<svg xmlns="http://www.w3.org/2000/svg" xmlns:xlink="http://www.w3.org/1999/xlink" width="1080" zoomAndPan="magnify" viewBox="0 0 810 809.999993" height="1080" preserveAspectRatio="xMidYMid meet" version="1.0"><defs><clipPath id="d6162bad8b"><path d="M 518 145 L 542 145 L 542 251 L 518 251 Z M 518 145 " clip-rule="nonzero"/></clipPath><clipPath id="12d879d846"><path d="M 487.144531 149.699219 L 670.539062 129.515625 L 687.929688 287.5625 L 504.539062 307.746094 Z M 487.144531 149.699219 " clip-rule="nonzero"/></clipPath><clipPath id="45049c8a2c"><path d="M 303.738281 169.882812 L 670.523438 129.519531 L 687.917969 287.5625 L 321.132812 327.929688 Z M 303.738281 169.882812 " clip-rule="nonzero"/></clipPath><clipPath id="922c08dd6d"><path d="M 570 188 L 615 188 L 615 269 L 570 269 Z M 570 188 " clip-rule="nonzero"/></clipPath><clipPath id="3ea0dcffde"><path d="M 487.144531 149.699219 L 670.539062 129.515625 L 687.929688 287.5625 L 504.539062 307.746094 Z M 487.144531 149.699219 " clip-rule="nonzero"/></clipPath><clipPath id="11987cebe5"><path d="M 303.738281 169.882812 L 670.523438 129.519531 L 687.917969 287.5625 L 321.132812 327.929688 Z M 303.738281 169.882812 " clip-rule="nonzero"/></clipPath><clipPath id="3d29588e68"><path d="M 610 243 L 684 243 L 684 296 L 610 296 Z M 610 243 " clip-rule="nonzero"/></clipPath><clipPath id="bc98774413"><path d="M 487.144531 149.699219 L 670.539062 129.515625 L 687.929688 287.5625 L 504.539062 307.746094 Z M 487.144531 149.699219 " clip-rule="nonzero"/></clipPath><clipPath id="dd817d5033"><path d="M 303.738281 169.882812 L 670.523438 129.519531 L 687.917969 287.5625 L 321.132812 327.929688 Z M 303.738281 169.882812 " clip-rule="nonzero"/></clipPath><clipPath id="c090fb858a"><path d="M 446 229 L 696.210938 229 L 696.210938 483.960938 L 446 483.960938 Z M 446 229 " clip-rule="nonzero"/></clipPath><clipPath id="f0d127cdf5"><path d="M 570.664062 615.804688 L 615.664062 615.804688 L 615.664062 661.554688 L 570.664062 661.554688 Z M 570.664062 615.804688 " clip-rule="nonzero"/></clipPath><clipPath id="bea06e45dc"><path d="M 626.132812 498.152344 L 671.132812 498.152344 L 671.132812 543.902344 L 626.132812 543.902344 Z M 626.132812 498.152344 " clip-rule="nonzero"/></clipPath><clipPath id="9828f789ae"><path d="M 87 561.234375 L 251.988281 561.234375 L 251.988281 729.234375 L 87 729.234375 Z M 87 561.234375 " clip-rule="nonzero"/></clipPath><clipPath id="2fe77f0ffd"><path d="M 137.144531 108.28125 L 251.894531 108.28125 L 251.894531 225.28125 L 137.144531 225.28125 Z M 137.144531 108.28125 " clip-rule="nonzero"/></clipPath><clipPath id="6e035ad60f"><path d="M 696.234375 606.878906 L 727.734375 606.878906 L 727.734375 638.378906 L 696.234375 638.378906 Z M 696.234375 606.878906 " clip-rule="nonzero"/></clipPath></defs><rect x="-81" width="972" fill="#ffffff" y="-80.999999" height="971.999992" fill-opacity="1"/><rect x="-81" width="972" fill="#ffffff" y="-80.999999" height="971.999992" fill-opacity="1"/><rect x="-81" width="972" fill="#ffffff" y="-80.999999" height="971.999992" fill-opacity="1"/><g clip-path="url(#d6162bad8b)"><g clip-path="url(#12d879d846)"><g clip-path="url(#45049c8a2c)"><path fill="#ffffff" d="M 536.265625 208.984375 C 535.84375 209.253906 535.425781 209.527344 535.203125 209.550781 C 535.300781 210.441406 535.597656 211.082031 535.695312 211.96875 C 535.769531 212.636719 535.644531 213.550781 535.496094 214.242188 C 535.519531 214.460938 535.320312 214.710938 535.148438 215.179688 C 534.976562 215.648438 534.777344 215.894531 534.824219 216.339844 C 534.921875 217.226562 534.355469 218.1875 534.921875 219.25 C 534.945312 219.472656 534.75 219.71875 534.773438 219.941406 C 533.785156 221.175781 533.980469 222.953125 533.261719 224.605469 C 533.066406 224.851562 533.3125 225.050781 533.136719 225.519531 C 533.210938 226.183594 533.0625 226.875 532.691406 227.589844 C 532.121094 228.550781 532.246094 229.664062 532.144531 230.796875 C 532.195312 231.242188 531.996094 231.488281 531.824219 231.957031 C 531.453125 232.671875 531.082031 233.390625 531.402344 234.253906 C 531.425781 234.476562 531.472656 234.917969 531.253906 234.945312 C 530.042969 236.203125 530.484375 238.175781 529.519531 239.632812 C 529.320312 239.878906 529.148438 240.347656 528.949219 240.59375 C 528.578125 241.308594 528.429688 242 528.058594 242.714844 C 527.6875 243.429688 527.292969 243.925781 526.921875 244.640625 C 525.785156 246.5625 524.648438 248.488281 523.488281 250.191406 C 523.289062 250.4375 523.089844 250.683594 522.894531 250.929688 C 522.84375 250.484375 522.574219 250.066406 522.574219 250.066406 C 521.4375 249.964844 521.585938 249.273438 521.265625 248.410156 C 520.40625 244.683594 519.769531 240.929688 519.328125 236.929688 C 519.183594 235.597656 519.257812 234.242188 519.332031 232.882812 C 519.285156 232.4375 519.210938 231.773438 518.941406 231.351562 C 518.398438 230.511719 518.347656 230.070312 518.941406 229.328125 C 519.335938 228.835938 519.460938 227.921875 519.363281 227.035156 C 519.464844 225.898438 519.5625 224.761719 519.664062 223.628906 C 519.613281 223.183594 519.566406 222.738281 519.515625 222.292969 C 519.640625 221.382812 518.457031 220.835938 519.027344 219.875 C 519.398438 219.160156 519.519531 218.246094 519.890625 217.53125 C 520.089844 217.285156 520.042969 216.839844 520.238281 216.59375 C 519.472656 215.777344 519.597656 214.867188 519.722656 213.953125 C 519.847656 213.039062 519.550781 212.398438 520.121094 211.4375 C 520.691406 210.472656 520.765625 209.117188 520.175781 207.832031 C 519.855469 206.96875 519.78125 206.300781 520.128906 205.363281 C 520.621094 203.734375 520.894531 202.132812 521.167969 200.527344 C 521.34375 200.058594 521.292969 199.613281 521.246094 199.167969 C 521.394531 198.480469 521.515625 197.566406 521.667969 196.875 C 521.789062 195.960938 521.914062 195.046875 522.015625 193.914062 C 522.1875 193.445312 522.113281 192.777344 522.289062 192.308594 C 522.414062 191.394531 522.785156 190.679688 522.4375 189.59375 C 522.019531 187.839844 522.515625 186.214844 522.789062 184.609375 C 522.914062 183.695312 523.484375 182.734375 522.890625 181.449219 C 522.867188 181.226562 522.84375 181.003906 523.039062 180.757812 C 523.585938 179.574219 523.882812 178.191406 523.957031 176.835938 C 523.933594 176.613281 524.132812 176.367188 524.105469 176.144531 C 523.765625 173.035156 523.765625 173.035156 524.78125 170 C 524.953125 169.53125 524.683594 169.109375 524.832031 168.421875 C 524.757812 167.753906 524.882812 166.839844 524.808594 166.175781 C 524.785156 165.953125 524.980469 165.707031 524.957031 165.484375 C 524.808594 164.148438 525.132812 162.992188 525.230469 161.855469 C 525.679688 159.78125 525.210938 157.585938 524.992188 155.585938 C 524.894531 154.695312 524.84375 154.253906 525.957031 154.128906 C 525.710938 153.933594 525.460938 153.734375 525.4375 153.511719 C 525.414062 153.289062 525.144531 152.871094 525.339844 152.625 C 525.710938 151.910156 525.835938 150.996094 525.984375 150.304688 C 525.9375 149.859375 526.578125 149.566406 526.777344 149.320312 C 526.972656 149.070312 527.21875 149.269531 527.417969 149.023438 C 527.789062 148.308594 528.160156 147.59375 528.53125 146.875 C 528.925781 146.382812 529.566406 146.089844 530.40625 145.546875 C 530.925781 146.164062 531.886719 146.730469 532.652344 147.546875 C 533.070312 147.277344 533.714844 146.980469 534.355469 146.683594 C 535.316406 147.253906 536.304688 148.046875 537.265625 148.613281 L 538.621094 150.714844 C 538.917969 151.355469 539.164062 151.554688 540.027344 151.234375 C 540.175781 152.566406 540.097656 153.921875 541.109375 154.9375 C 541.132812 155.160156 541.160156 155.378906 541.183594 155.601562 C 541.230469 156.046875 541.058594 156.515625 541.132812 157.183594 C 541.230469 158.070312 541.304688 158.738281 540.933594 159.453125 C 540.734375 159.699219 540.5625 160.167969 541.054688 160.5625 C 541.792969 161.15625 541.421875 161.871094 541.050781 162.585938 C 540.308594 164.019531 540.480469 165.574219 541.097656 167.078125 C 541.121094 167.300781 541.394531 167.722656 541.441406 168.164062 C 540.625 168.929688 540.28125 169.867188 540.402344 170.980469 C 540.175781 173.027344 539.953125 175.074219 539.730469 177.125 C 539.753906 177.347656 539.582031 177.816406 539.605469 178.035156 C 539.949219 179.125 539.824219 180.035156 539.476562 180.972656 C 538.984375 182.601562 539.152344 184.15625 539.324219 185.710938 C 539.375 186.15625 538.78125 186.898438 539.519531 187.488281 C 539.765625 187.6875 539.644531 188.601562 539.445312 188.847656 C 538.40625 189.636719 538.800781 191.167969 538.453125 192.105469 C 538.257812 192.351562 538.332031 193.015625 538.550781 192.992188 C 539.5625 194.003906 538.550781 195.015625 538.671875 196.128906 C 538.722656 196.570312 537.832031 196.667969 537.90625 197.335938 C 538.273438 198.644531 537.953125 199.804688 537.851562 200.941406 C 537.902344 201.382812 537.730469 201.851562 537.554688 202.320312 C 537.578125 202.542969 537.183594 203.035156 537.429688 203.234375 C 537.230469 205.503906 535.824219 207.007812 536.265625 208.984375 Z M 536.265625 208.984375 " fill-opacity="0" fill-rule="nonzero"/></g></g></g><g clip-path="url(#922c08dd6d)"><g clip-path="url(#3ea0dcffde)"><g clip-path="url(#11987cebe5)"><path fill="#ffffff" d="M 572.089844 268.898438 C 571.351562 268.304688 571.078125 267.886719 570.363281 267.515625 C 570.4375 266.160156 570.710938 264.554688 570.738281 262.753906 C 571.136719 260.234375 571.753906 257.695312 572.152344 255.175781 C 572.128906 254.953125 572.300781 254.484375 572.5 254.238281 C 573.289062 253.253906 573.613281 252.09375 573.910156 250.710938 C 574.035156 249.796875 573.9375 248.910156 574.777344 248.367188 C 575.195312 248.097656 575.148438 247.652344 575.320312 247.183594 C 575.519531 246.9375 575.46875 246.492188 575.667969 246.246094 C 576.679688 245.234375 576.753906 243.878906 576.632812 242.765625 C 576.535156 241.878906 577.203125 241.804688 577.375 241.335938 C 577.523438 240.644531 577.179688 239.558594 578.289062 239.4375 C 577.773438 238.820312 578.414062 238.523438 578.589844 238.054688 C 578.761719 237.585938 579.132812 236.871094 579.726562 236.128906 C 579.800781 234.773438 580.542969 233.34375 581.507812 231.886719 C 580.964844 231.046875 580.867188 230.160156 581.730469 229.839844 C 582.59375 229.519531 582.769531 229.050781 582.695312 228.382812 C 582.671875 228.160156 582.867188 227.914062 582.84375 227.691406 C 583.929688 227.347656 583.414062 226.730469 583.117188 226.089844 C 583.957031 225.546875 585.042969 225.203125 584.898438 223.867188 C 584.847656 223.425781 585.464844 222.90625 585.859375 222.414062 C 586.480469 221.894531 584.851562 221.402344 585.960938 221.277344 C 585.171875 220.242188 586.257812 219.898438 586.875 219.378906 C 587.097656 219.355469 587.074219 219.132812 587.296875 219.109375 C 587.050781 218.910156 587.023438 218.6875 586.777344 218.488281 C 586.976562 218.242188 587.199219 218.21875 587.394531 217.972656 C 586.679688 217.601562 587.296875 217.082031 587.296875 217.082031 C 588.582031 216.492188 588.410156 214.9375 589.226562 214.171875 C 590.238281 213.164062 590.339844 212.027344 590.660156 210.867188 C 591.007812 209.929688 591.847656 209.386719 591.28125 208.324219 C 591.257812 208.105469 591.652344 207.609375 591.851562 207.363281 C 593.308594 206.304688 593.308594 204.28125 594.050781 202.847656 C 594.222656 202.378906 594.375 201.691406 594.570312 201.441406 C 595.386719 200.679688 595.953125 199.71875 596.992188 198.929688 C 598.226562 197.894531 598.574219 196.957031 598.648438 195.597656 C 598.625 195.375 598.601562 195.152344 598.796875 194.90625 C 600.527344 194.265625 600.699219 193.796875 600.332031 192.488281 C 601.121094 191.503906 602.652344 191.109375 602.257812 189.578125 C 602.902344 189.285156 603.320312 189.011719 603.742188 188.742188 C 604.234375 189.136719 604.726562 189.53125 605.417969 189.679688 C 605.839844 189.410156 606.035156 189.164062 606.480469 189.113281 C 606.925781 189.066406 607.394531 189.238281 607.835938 189.191406 C 607.863281 189.414062 607.910156 189.855469 607.960938 190.300781 C 608.578125 189.785156 609.21875 189.488281 609.835938 188.96875 C 610.332031 189.367188 610.601562 189.785156 611.117188 190.402344 C 611.515625 189.910156 611.710938 189.664062 611.910156 189.417969 C 612.847656 189.761719 612.476562 190.480469 612.328125 191.167969 C 613.265625 191.515625 613.980469 191.886719 613.4375 193.070312 C 613.460938 193.292969 613.507812 193.738281 613.507812 193.738281 C 615.164062 194.457031 614.222656 196.132812 614.789062 197.195312 C 615.035156 197.390625 614.664062 198.109375 614.46875 198.355469 C 613.75 200.007812 613.476562 201.609375 613.203125 203.214844 C 613.054688 203.90625 612.90625 204.597656 612.289062 205.113281 C 610.855469 206.398438 611.320312 208.59375 610.136719 210.074219 C 609.148438 211.304688 608.898438 213.132812 608.15625 214.5625 C 607.613281 215.746094 606.820312 216.734375 606.277344 217.917969 C 605.558594 219.570312 604.101562 220.632812 603.855469 222.457031 C 603.878906 222.679688 603.457031 222.949219 603.261719 223.195312 C 602.890625 223.914062 602.074219 224.675781 602.617188 225.515625 C 602.910156 226.160156 602.738281 226.628906 601.898438 227.167969 C 600.863281 227.957031 600.046875 228.722656 599.503906 229.90625 C 599.132812 230.621094 598.980469 231.3125 598.832031 232.003906 C 598.117188 233.65625 597.347656 234.867188 595.546875 236.863281 C 594.730469 237.625 594.410156 238.785156 593.839844 239.75 C 593.667969 240.21875 593.269531 240.710938 592.875 241.203125 C 593.6875 242.464844 592.230469 243.523438 591.910156 244.683594 C 591.167969 246.113281 589.710938 247.171875 589.238281 249.023438 C 589.265625 249.246094 588.820312 249.296875 588.621094 249.542969 C 588.425781 249.789062 588.203125 249.8125 588.226562 250.035156 C 587.382812 252.601562 587.410156 252.824219 586.394531 253.835938 C 584.9375 254.894531 584.222656 256.546875 583.257812 258.003906 C 583.058594 258.25 583.058594 258.25 583.082031 258.472656 C 580.882812 260.960938 579.425781 264.046875 576.484375 265.941406 C 574.78125 266.804688 573.546875 267.839844 572.089844 268.898438 Z M 572.089844 268.898438 " fill-opacity="1" fill-rule="nonzero"/></g></g></g><g clip-path="url(#3d29588e68)"><g clip-path="url(#bc98774413)"><g clip-path="url(#dd817d5033)"><path fill="#ffffff" d="M 610.316406 295.496094 C 610.910156 294.757812 611.75 294.214844 611.429688 293.351562 C 611.207031 293.375 610.765625 293.425781 610.542969 293.449219 C 610.542969 293.449219 610.519531 293.226562 610.519531 293.226562 C 612.222656 290.339844 614.421875 287.851562 616.84375 285.335938 C 617.859375 284.324219 618.847656 283.089844 620.082031 282.054688 C 621.515625 280.773438 622.972656 279.714844 624.625 278.40625 C 625.246094 277.890625 625.863281 277.371094 626.480469 276.855469 C 626.875 276.363281 627.492188 275.84375 627.886719 275.351562 C 629.148438 274.539062 630.652344 273.921875 631.890625 272.886719 C 633.125 271.851562 634.113281 270.617188 635.125 269.605469 C 635.519531 269.113281 636.136719 268.597656 636.78125 268.300781 C 638.238281 267.242188 639.941406 266.378906 641.398438 265.320312 C 642.632812 264.285156 643.871094 263.25 645.105469 262.214844 C 645.917969 261.449219 646.757812 260.90625 647.597656 260.363281 C 648.21875 259.847656 649.105469 259.75 649.453125 258.8125 C 649.453125 258.8125 649.648438 258.566406 649.648438 258.566406 C 652.042969 257.851562 653.453125 256.347656 655.058594 254.597656 C 655.257812 254.351562 655.703125 254.300781 656.144531 254.253906 C 656.566406 253.980469 657.453125 253.882812 657.652344 253.636719 C 658.589844 251.960938 660.097656 251.34375 661.605469 250.730469 C 662.46875 250.410156 663.085938 249.890625 663.925781 249.347656 C 664.742188 248.585938 665.582031 248.042969 666.691406 247.921875 C 667.359375 247.847656 668.199219 247.304688 668.566406 246.589844 C 669.929688 244.640625 672.347656 244.148438 674.496094 243.238281 C 675.78125 242.648438 677.210938 243.390625 678.074219 243.070312 C 679.257812 243.613281 680.195312 243.960938 681.132812 244.308594 C 682.070312 244.652344 682.144531 245.320312 682.21875 245.988281 C 682.339844 247.097656 682.660156 247.960938 683.621094 248.53125 C 683.472656 249.222656 683.546875 249.886719 683.375 250.355469 C 683.25 251.269531 683.101562 251.960938 682.507812 252.699219 C 682.113281 253.195312 681.714844 253.6875 681.566406 254.378906 C 681 255.339844 680.652344 256.277344 679.292969 256.203125 C 679.292969 256.203125 679.074219 256.226562 679.074219 256.226562 C 677.960938 258.371094 675.292969 258.667969 673.664062 260.195312 C 672.648438 261.207031 671.367188 261.796875 671.070312 263.179688 C 670.203125 263.5 669.363281 264.039062 668.5 264.359375 C 666.550781 265.023438 664.820312 265.664062 663.660156 267.367188 C 663.460938 267.613281 662.820312 267.910156 662.375 267.957031 C 661.511719 268.277344 660.375 268.175781 659.808594 269.140625 C 658.226562 269.089844 657.511719 270.742188 655.957031 270.914062 C 654.84375 271.035156 654.027344 271.800781 653.460938 272.761719 C 653.066406 273.253906 652.449219 273.773438 651.757812 273.625 C 650.421875 273.769531 649.140625 274.359375 648.125 275.371094 C 647.507812 275.890625 646.421875 276.234375 645.804688 276.75 C 644.148438 278.058594 641.976562 278.746094 640.050781 279.632812 C 639.210938 280.175781 638.371094 280.71875 637.308594 281.285156 C 636.46875 281.828125 635.605469 282.144531 634.765625 282.6875 C 634.347656 282.960938 633.902344 283.007812 633.480469 283.28125 C 630.789062 285.375 627.332031 286.65625 624.640625 288.75 C 622.984375 290.054688 621.035156 290.71875 619.355469 291.804688 C 617.257812 293.160156 614.589844 293.453125 612.492188 294.808594 C 612.09375 295.300781 611.207031 295.398438 610.316406 295.496094 Z M 610.316406 295.496094 " fill-opacity="1" fill-rule="nonzero"/></g></g></g><g clip-path="url(#c090fb858a)"><path fill="#f9ac85" d="M 581.839844 231.890625 C 581.386719 230.074219 579.660156 228.984375 577.84375 229.4375 C 576.664062 229.710938 575.664062 230.710938 575.394531 231.890625 C 569.582031 253.699219 555.234375 293.957031 523.628906 318.585938 C 501.652344 335.667969 475.949219 347.480469 448.707031 353.027344 C 446.890625 353.390625 445.710938 355.117188 446.074219 356.933594 C 446.34375 358.207031 447.253906 359.113281 448.433594 359.476562 C 470.59375 365.65625 509.097656 379.199219 528.625 402.1875 C 544.0625 420.363281 557.773438 465.890625 563.769531 488.15625 C 564.3125 489.882812 566.128906 490.972656 567.855469 490.425781 C 568.945312 490.152344 569.855469 489.246094 570.125 488.15625 C 576.300781 465.527344 592.285156 418.726562 622.164062 398.824219 C 648.863281 381.015625 678.558594 372.109375 695.359375 368.109375 C 697.175781 367.65625 698.175781 365.839844 697.722656 364.019531 C 697.449219 362.929688 696.632812 362.023438 695.542969 361.75 C 675.289062 355.75 637.601562 342.210938 622.164062 321.945312 C 598.1875 290.503906 586.746094 252.609375 581.839844 231.890625 Z M 749.757812 418.636719 C 749.484375 417.546875 748.394531 416.910156 747.308594 417.183594 C 746.582031 417.363281 746.035156 417.910156 745.855469 418.636719 C 742.3125 431.996094 733.503906 456.621094 714.160156 471.617188 C 700.71875 482.066406 685.007812 489.246094 668.296875 492.609375 C 667.207031 492.789062 666.480469 493.878906 666.753906 494.96875 C 666.933594 495.699219 667.480469 496.332031 668.207031 496.515625 C 681.738281 500.332031 705.351562 508.511719 717.246094 522.597656 C 726.691406 533.683594 735.046875 561.582031 738.769531 575.210938 C 739.042969 576.300781 740.222656 576.9375 741.222656 576.667969 C 741.949219 576.484375 742.402344 575.9375 742.675781 575.210938 C 746.488281 561.398438 756.207031 532.773438 774.460938 520.597656 C 790.808594 509.691406 808.96875 504.238281 819.230469 501.785156 C 820.320312 501.511719 820.957031 500.421875 820.683594 499.332031 C 820.503906 498.605469 819.957031 498.058594 819.324219 497.878906 C 806.882812 494.152344 783.90625 485.972656 774.460938 473.523438 C 759.75 454.53125 752.753906 431.359375 749.757812 418.636719 Z M 816.144531 266.695312 C 815.964844 265.96875 815.238281 265.515625 814.511719 265.695312 C 814.054688 265.785156 813.691406 266.148438 813.511719 266.695312 C 811.148438 275.601562 805.335938 291.867188 792.441406 301.863281 C 783.542969 308.769531 773.097656 313.585938 762.019531 315.859375 C 761.292969 316.039062 760.839844 316.675781 760.929688 317.402344 C 761.019531 317.949219 761.382812 318.3125 761.929688 318.402344 C 770.917969 320.945312 786.539062 326.398438 794.53125 335.757812 C 800.796875 343.121094 806.335938 361.660156 808.789062 370.65625 C 808.96875 371.382812 809.695312 371.746094 810.421875 371.5625 C 810.878906 371.472656 811.242188 371.109375 811.332031 370.65625 C 813.875 361.476562 820.320312 342.484375 832.492188 334.398438 C 843.296875 327.125 855.375 323.582031 862.277344 321.945312 C 863.003906 321.765625 863.460938 321.039062 863.277344 320.3125 C 863.1875 319.855469 862.824219 319.492188 862.371094 319.3125 C 854.105469 316.859375 838.847656 311.40625 832.582031 303.136719 C 822.863281 290.503906 818.140625 275.148438 816.144531 266.695312 Z M 816.144531 266.695312 " fill-opacity="1" fill-rule="nonzero"/></g><g clip-path="url(#f0d127cdf5)"><path fill="#ffffff" d="M 595.101562 616.332031 C 595.019531 616.007812 594.710938 615.8125 594.386719 615.894531 C 594.171875 615.941406 593.992188 616.121094 593.945312 616.332031 C 592.902344 620.234375 590.324219 627.433594 584.652344 631.839844 C 580.707031 634.894531 576.089844 637.007812 571.199219 638 C 570.875 638.0625 570.664062 638.371094 570.726562 638.699219 C 570.777344 638.925781 570.941406 639.089844 571.152344 639.152344 C 575.128906 640.257812 582.042969 642.679688 585.546875 646.792969 C 588.320312 650.042969 590.78125 658.1875 591.859375 662.167969 C 591.957031 662.476562 592.28125 662.671875 592.589844 662.574219 C 592.789062 662.527344 592.949219 662.363281 593 662.167969 C 594.109375 658.121094 596.976562 649.75 602.339844 646.191406 C 607.136719 643.003906 612.464844 641.414062 615.484375 640.695312 C 615.808594 640.617188 615.988281 640.289062 615.90625 639.964844 C 615.859375 639.769531 615.710938 639.609375 615.515625 639.558594 C 611.878906 638.488281 605.113281 636.066406 602.339844 632.441406 C 598.039062 626.816406 595.984375 620.039062 595.101562 616.332031 Z M 625.25 649.734375 C 625.199219 649.539062 625.003906 649.425781 624.808594 649.476562 C 624.679688 649.507812 624.582031 649.605469 624.546875 649.734375 C 623.914062 652.125 622.332031 656.527344 618.859375 659.210938 C 616.445312 661.082031 613.625 662.363281 610.625 662.964844 C 610.429688 663 610.296875 663.191406 610.347656 663.386719 C 610.378906 663.519531 610.476562 663.632812 610.609375 663.664062 C 613.039062 664.347656 617.277344 665.808594 619.414062 668.328125 C 621.109375 670.3125 622.609375 675.304688 623.277344 677.742188 C 623.324219 677.9375 623.539062 678.050781 623.714844 678 C 623.847656 677.96875 623.929688 677.871094 623.976562 677.742188 C 624.664062 675.269531 626.40625 670.148438 629.683594 667.972656 C 632.617188 666.023438 635.878906 665.046875 637.722656 664.609375 C 637.917969 664.558594 638.03125 664.363281 637.984375 664.167969 C 637.949219 664.039062 637.851562 663.941406 637.738281 663.910156 C 635.503906 663.242188 631.378906 661.777344 629.683594 659.550781 C 627.042969 656.15625 625.789062 652.011719 625.25 649.734375 Z M 637.167969 622.558594 C 637.136719 622.425781 637.003906 622.347656 636.875 622.378906 C 636.792969 622.394531 636.726562 622.460938 636.695312 622.558594 C 636.269531 624.148438 635.226562 627.058594 632.914062 628.847656 C 631.316406 630.082031 629.441406 630.945312 627.449219 631.351562 C 627.320312 631.382812 627.238281 631.496094 627.253906 631.628906 C 627.269531 631.726562 627.335938 631.789062 627.433594 631.804688 C 629.046875 632.261719 631.851562 633.238281 633.289062 634.910156 C 634.414062 636.226562 635.40625 639.542969 635.847656 641.152344 C 635.878906 641.28125 636.011719 641.347656 636.140625 641.316406 C 636.222656 641.296875 636.289062 641.234375 636.304688 641.152344 C 636.761719 639.511719 637.917969 636.113281 640.101562 634.667969 C 642.042969 633.367188 644.210938 632.734375 645.449219 632.441406 C 645.582031 632.40625 645.664062 632.277344 645.628906 632.148438 C 645.613281 632.066406 645.546875 632 645.464844 631.96875 C 643.984375 631.53125 641.242188 630.554688 640.117188 629.074219 C 638.375 626.816406 637.527344 624.070312 637.167969 622.558594 Z M 637.167969 622.558594 " fill-opacity="1" fill-rule="nonzero"/></g><g clip-path="url(#bea06e45dc)"><path fill="#ffffff" d="M 650.574219 498.679688 C 650.492188 498.355469 650.179688 498.160156 649.855469 498.242188 C 649.644531 498.289062 649.464844 498.46875 649.414062 498.679688 C 648.371094 502.582031 645.796875 509.78125 640.121094 514.1875 C 636.175781 517.242188 631.5625 519.355469 626.671875 520.347656 C 626.34375 520.410156 626.132812 520.71875 626.199219 521.046875 C 626.246094 521.273438 626.410156 521.433594 626.621094 521.5 C 630.601562 522.605469 637.511719 525.027344 641.019531 529.140625 C 643.789062 532.390625 646.253906 540.535156 647.328125 544.515625 C 647.425781 544.824219 647.753906 545.019531 648.0625 544.921875 C 648.257812 544.875 648.421875 544.710938 648.46875 544.515625 C 649.578125 540.46875 652.449219 532.097656 657.8125 528.539062 C 662.605469 525.351562 667.9375 523.761719 670.953125 523.042969 C 671.277344 522.964844 671.457031 522.636719 671.378906 522.3125 C 671.328125 522.117188 671.179688 521.957031 670.984375 521.90625 C 667.351562 520.835938 660.582031 518.410156 657.8125 514.789062 C 653.507812 509.164062 651.453125 502.386719 650.574219 498.679688 Z M 680.71875 532.082031 C 680.671875 531.886719 680.476562 531.773438 680.277344 531.820312 C 680.148438 531.855469 680.050781 531.953125 680.019531 532.082031 C 679.382812 534.472656 677.800781 538.875 674.328125 541.558594 C 671.914062 543.425781 669.09375 544.710938 666.09375 545.3125 C 665.898438 545.347656 665.769531 545.539062 665.816406 545.734375 C 665.851562 545.867188 665.949219 545.980469 666.078125 546.011719 C 668.507812 546.695312 672.746094 548.15625 674.882812 550.675781 C 676.578125 552.660156 678.078125 557.648438 678.746094 560.089844 C 678.796875 560.285156 679.007812 560.398438 679.1875 560.347656 C 679.316406 560.316406 679.398438 560.21875 679.449219 560.089844 C 680.132812 557.617188 681.878906 552.496094 685.152344 550.320312 C 688.089844 548.367188 691.351562 547.394531 693.191406 546.953125 C 693.386719 546.90625 693.503906 546.710938 693.453125 546.515625 C 693.421875 546.386719 693.324219 546.289062 693.207031 546.257812 C 690.976562 545.589844 686.851562 544.125 685.152344 541.898438 C 682.511719 538.503906 681.257812 534.359375 680.71875 532.082031 Z M 692.636719 504.90625 C 692.605469 504.773438 692.476562 504.695312 692.34375 504.726562 C 692.261719 504.742188 692.199219 504.808594 692.164062 504.90625 C 691.742188 506.496094 690.699219 509.40625 688.382812 511.195312 C 686.785156 512.429688 684.910156 513.292969 682.921875 513.699219 C 682.789062 513.730469 682.707031 513.84375 682.726562 513.976562 C 682.742188 514.070312 682.804688 514.136719 682.902344 514.152344 C 684.519531 514.609375 687.324219 515.582031 688.757812 517.257812 C 689.882812 518.574219 690.878906 521.890625 691.316406 523.5 C 691.351562 523.628906 691.480469 523.695312 691.609375 523.664062 C 691.691406 523.644531 691.757812 523.582031 691.773438 523.5 C 692.230469 521.859375 693.386719 518.460938 695.574219 517.015625 C 697.511719 515.714844 699.679688 515.078125 700.921875 514.789062 C 701.050781 514.753906 701.132812 514.625 701.101562 514.496094 C 701.082031 514.414062 701.019531 514.347656 700.9375 514.316406 C 699.453125 513.878906 696.714844 512.902344 695.589844 511.421875 C 693.84375 509.164062 692.996094 506.417969 692.636719 504.90625 Z M 692.636719 504.90625 " fill-opacity="1" fill-rule="nonzero"/></g><g clip-path="url(#9828f789ae)"><path fill="#f9ac85" d="M 176.683594 563.160156 C 176.386719 561.96875 175.246094 561.25 174.050781 561.550781 C 173.273438 561.726562 172.613281 562.386719 172.4375 563.160156 C 168.605469 577.496094 159.152344 603.960938 138.328125 620.148438 C 123.847656 631.378906 106.914062 639.140625 88.964844 642.785156 C 87.765625 643.023438 86.988281 644.160156 87.226562 645.355469 C 87.40625 646.191406 88.003906 646.789062 88.785156 647.027344 C 103.382812 651.089844 128.753906 659.988281 141.621094 675.101562 C 151.792969 687.046875 160.828125 716.972656 164.777344 731.609375 C 165.136719 732.742188 166.332031 733.460938 167.46875 733.101562 C 168.1875 732.921875 168.785156 732.324219 168.964844 731.609375 C 173.035156 716.734375 183.566406 685.972656 203.25 672.890625 C 220.84375 661.183594 240.410156 655.328125 251.480469 652.703125 C 252.675781 652.402344 253.335938 651.207031 253.035156 650.015625 C 252.855469 649.296875 252.316406 648.699219 251.601562 648.519531 C 238.257812 644.578125 213.425781 635.679688 203.25 622.355469 C 187.453125 601.691406 179.914062 576.78125 176.683594 563.160156 Z M 287.324219 685.914062 C 287.144531 685.195312 286.425781 684.777344 285.707031 684.957031 C 285.226562 685.078125 284.871094 685.433594 284.75 685.914062 C 282.414062 694.695312 276.613281 710.882812 263.867188 720.738281 C 255.011719 727.605469 244.660156 732.324219 233.648438 734.535156 C 232.929688 734.65625 232.453125 735.371094 232.632812 736.089844 C 232.75 736.566406 233.109375 736.984375 233.589844 737.105469 C 242.503906 739.613281 258.0625 744.988281 265.902344 754.246094 C 272.125 761.535156 277.628906 779.875 280.082031 788.832031 C 280.261719 789.550781 281.039062 789.96875 281.699219 789.789062 C 282.175781 789.667969 282.476562 789.3125 282.65625 788.832031 C 285.167969 779.753906 291.570312 760.9375 303.597656 752.933594 C 314.367188 745.765625 326.335938 742.179688 333.097656 740.570312 C 333.816406 740.390625 334.234375 739.671875 334.054688 738.957031 C 333.933594 738.476562 333.578125 738.121094 333.15625 738 C 324.960938 735.550781 309.820312 730.175781 303.597656 721.992188 C 293.90625 709.507812 289.296875 694.277344 287.324219 685.914062 Z M 331.0625 586.039062 C 330.945312 585.5625 330.464844 585.261719 329.984375 585.382812 C 329.6875 585.441406 329.449219 585.679688 329.328125 586.039062 C 327.773438 591.894531 323.941406 602.585938 315.445312 609.15625 C 309.582031 613.695312 302.699219 616.863281 295.402344 618.355469 C 294.921875 618.476562 294.621094 618.894531 294.683594 619.371094 C 294.742188 619.730469 294.980469 619.96875 295.339844 620.027344 C 301.265625 621.699219 311.554688 625.285156 316.820312 631.4375 C 320.949219 636.273438 324.601562 648.460938 326.214844 654.375 C 326.335938 654.851562 326.816406 655.089844 327.292969 654.972656 C 327.59375 654.910156 327.832031 654.671875 327.890625 654.375 C 329.566406 648.339844 333.816406 635.855469 341.835938 630.539062 C 348.953125 625.761719 356.914062 623.433594 361.460938 622.355469 C 361.9375 622.238281 362.238281 621.761719 362.117188 621.28125 C 362.058594 620.984375 361.820312 620.746094 361.519531 620.625 C 356.074219 619.011719 346.023438 615.429688 341.894531 609.992188 C 335.492188 601.691406 332.378906 591.59375 331.0625 586.039062 Z M 331.0625 586.039062 " fill-opacity="1" fill-rule="nonzero"/></g><g clip-path="url(#2fe77f0ffd)"><path fill="#f9ac85" d="M 199.464844 109.625 C 199.257812 108.789062 198.46875 108.289062 197.636719 108.5 C 197.097656 108.625 196.640625 109.082031 196.515625 109.625 C 193.855469 119.636719 187.285156 138.117188 172.816406 149.421875 C 162.753906 157.265625 150.988281 162.6875 138.515625 165.234375 C 137.683594 165.398438 137.144531 166.191406 137.308594 167.027344 C 137.433594 167.609375 137.851562 168.027344 138.390625 168.195312 C 148.535156 171.03125 166.164062 177.246094 175.101562 187.800781 C 182.171875 196.144531 188.449219 217.042969 191.191406 227.265625 C 191.441406 228.058594 192.273438 228.558594 193.0625 228.308594 C 193.5625 228.183594 193.976562 227.765625 194.101562 227.265625 C 196.929688 216.878906 204.246094 195.394531 217.925781 186.257812 C 230.148438 178.082031 243.746094 173.992188 251.4375 172.15625 C 252.269531 171.949219 252.726562 171.113281 252.515625 170.28125 C 252.394531 169.78125 252.019531 169.363281 251.519531 169.238281 C 242.25 166.484375 224.996094 160.269531 217.925781 150.964844 C 206.949219 136.53125 201.710938 119.136719 199.464844 109.625 Z M 276.339844 195.351562 C 276.214844 194.851562 275.71875 194.558594 275.21875 194.683594 C 274.886719 194.769531 274.636719 195.019531 274.554688 195.351562 C 272.929688 201.484375 268.898438 212.789062 260.042969 219.671875 C 253.890625 224.46875 246.695312 227.765625 239.046875 229.308594 C 238.546875 229.390625 238.214844 229.894531 238.339844 230.394531 C 238.421875 230.726562 238.671875 231.019531 239.003906 231.101562 C 245.199219 232.855469 256.011719 236.609375 261.457031 243.074219 C 265.78125 248.164062 269.605469 260.972656 271.308594 267.230469 C 271.433594 267.730469 271.976562 268.023438 272.433594 267.898438 C 272.765625 267.8125 272.972656 267.5625 273.097656 267.230469 C 274.84375 260.886719 279.292969 247.746094 287.648438 242.15625 C 295.132812 237.152344 303.449219 234.648438 308.144531 233.523438 C 308.644531 233.398438 308.9375 232.898438 308.8125 232.394531 C 308.726562 232.0625 308.480469 231.8125 308.1875 231.730469 C 302.492188 230.019531 291.972656 226.265625 287.648438 220.546875 C 280.914062 211.828125 277.710938 201.191406 276.339844 195.351562 Z M 306.734375 125.601562 C 306.648438 125.269531 306.316406 125.058594 305.984375 125.144531 C 305.777344 125.183594 305.609375 125.351562 305.527344 125.601562 C 304.445312 129.691406 301.785156 137.15625 295.882812 141.746094 C 291.808594 144.917969 287.027344 147.128906 281.953125 148.171875 C 281.621094 148.253906 281.414062 148.546875 281.453125 148.878906 C 281.496094 149.128906 281.664062 149.296875 281.910156 149.339844 C 286.027344 150.507812 293.179688 153.011719 296.835938 157.308594 C 299.707031 160.6875 302.242188 169.195312 303.363281 173.324219 C 303.449219 173.660156 303.78125 173.828125 304.113281 173.742188 C 304.320312 173.703125 304.488281 173.535156 304.527344 173.324219 C 305.691406 169.113281 308.644531 160.394531 314.214844 156.679688 C 319.164062 153.34375 324.695312 151.71875 327.851562 150.964844 C 328.1875 150.882812 328.394531 150.546875 328.3125 150.214844 C 328.269531 150.007812 328.101562 149.839844 327.894531 149.757812 C 324.113281 148.628906 317.125 146.125 314.257812 142.332031 C 309.808594 136.53125 307.648438 129.480469 306.734375 125.601562 Z M 306.734375 125.601562 " fill-opacity="1" fill-rule="nonzero"/></g><g clip-path="url(#6e035ad60f)"><path fill="#ffffff" d="M 713.097656 607.246094 C 713.042969 607.019531 712.828125 606.882812 712.605469 606.9375 C 712.457031 606.972656 712.332031 607.097656 712.300781 607.246094 C 711.578125 609.972656 709.800781 615.003906 705.886719 618.082031 C 703.164062 620.21875 699.980469 621.695312 696.605469 622.386719 C 696.382812 622.433594 696.234375 622.648438 696.28125 622.875 C 696.3125 623.035156 696.425781 623.148438 696.574219 623.195312 C 699.316406 623.964844 704.085938 625.660156 706.507812 628.53125 C 708.417969 630.804688 710.117188 636.496094 710.859375 639.277344 C 710.925781 639.496094 711.152344 639.632812 711.367188 639.5625 C 711.5 639.527344 711.613281 639.414062 711.648438 639.277344 C 712.414062 636.449219 714.390625 630.601562 718.09375 628.113281 C 721.402344 625.886719 725.078125 624.773438 727.160156 624.273438 C 727.386719 624.214844 727.511719 623.988281 727.453125 623.761719 C 727.417969 623.625 727.320312 623.511719 727.183594 623.476562 C 724.675781 622.726562 720.007812 621.035156 718.09375 618.503906 C 715.125 614.570312 713.707031 609.835938 713.097656 607.246094 Z M 733.898438 630.589844 C 733.867188 630.453125 733.730469 630.371094 733.597656 630.40625 C 733.507812 630.429688 733.4375 630.496094 733.417969 630.589844 C 732.976562 632.257812 731.886719 635.335938 729.488281 637.210938 C 727.824219 638.519531 725.878906 639.414062 723.808594 639.835938 C 723.671875 639.859375 723.582031 639.996094 723.617188 640.132812 C 723.640625 640.222656 723.707031 640.300781 723.796875 640.324219 C 725.472656 640.800781 728.398438 641.824219 729.871094 643.585938 C 731.042969 644.96875 732.078125 648.457031 732.539062 650.160156 C 732.574219 650.296875 732.71875 650.378906 732.84375 650.34375 C 732.933594 650.320312 732.988281 650.253906 733.023438 650.160156 C 733.496094 648.433594 734.699219 644.855469 736.960938 643.335938 C 738.984375 641.972656 741.234375 641.289062 742.507812 640.984375 C 742.640625 640.949219 742.71875 640.8125 742.6875 640.675781 C 742.664062 640.585938 742.597656 640.515625 742.515625 640.496094 C 740.976562 640.027344 738.128906 639.007812 736.960938 637.449219 C 735.136719 635.074219 734.269531 632.179688 733.898438 630.589844 Z M 742.125 611.59375 C 742.101562 611.503906 742.011719 611.449219 741.921875 611.46875 C 741.863281 611.480469 741.820312 611.527344 741.796875 611.59375 C 741.503906 612.707031 740.785156 614.742188 739.1875 615.992188 C 738.085938 616.855469 736.792969 617.457031 735.417969 617.742188 C 735.328125 617.765625 735.273438 617.84375 735.285156 617.933594 C 735.292969 618.003906 735.339844 618.046875 735.40625 618.058594 C 736.519531 618.378906 738.457031 619.058594 739.445312 620.230469 C 740.222656 621.148438 740.910156 623.464844 741.210938 624.589844 C 741.234375 624.683594 741.324219 624.726562 741.414062 624.703125 C 741.472656 624.691406 741.515625 624.648438 741.527344 624.589844 C 741.84375 623.445312 742.640625 621.070312 744.148438 620.058594 C 745.488281 619.148438 746.984375 618.707031 747.839844 618.503906 C 747.929688 618.480469 747.984375 618.386719 747.960938 618.296875 C 747.949219 618.242188 747.90625 618.195312 747.851562 618.171875 C 746.824219 617.867188 744.9375 617.183594 744.160156 616.152344 C 742.957031 614.570312 742.371094 612.652344 742.125 611.59375 Z M 742.125 611.59375 " fill-opacity="1" fill-rule="nonzero"/></g><path stroke-linecap="butt" transform="matrix(0.750181, 0, 0, 0.75, 0.0000035, 17.032913)" fill="none" stroke-linejoin="miter" d="M -0.00000466554 3.497783 L 1166.718847 3.497783 " stroke="#ffffff" stroke-width="7" stroke-opacity="1" stroke-miterlimit="4"/><path stroke-linecap="butt" transform="matrix(0.750181, 0, 0, 0.75, -45.599778, 784.825349)" fill="none" stroke-linejoin="miter" d="M -0.00237849 3.498494 L 1166.72168 3.498494 " stroke="#ffffff" stroke-width="7" stroke-opacity="1" stroke-miterlimit="4"/><path stroke-linecap="butt" transform="matrix(0.000000000000000046, -0.750181, 0.75, 0.000000000000000046, 783.498708, 809.999163)" fill="none" stroke-linejoin="miter" d="M -0.0011154 3.501723 L 1166.722943 3.501723 " stroke="#ffffff" stroke-width="7" stroke-opacity="1" stroke-miterlimit="4"/></svg>