<svg xmlns="http://www.w3.org/2000/svg" xmlns:xlink="http://www.w3.org/1999/xlink" width="1080" zoomAndPan="magnify" viewBox="0 0 810 809.999993" height="1080" preserveAspectRatio="xMidYMid meet" version="1.0"><defs><clipPath id="0248fb0420"><path d="M 518 145 L 542 145 L 542 251 L 518 251 Z M 518 145 " clip-rule="nonzero"/></clipPath><clipPath id="6b72e8481b"><path d="M 487.144531 149.699219 L 670.539062 129.515625 L 687.929688 287.5625 L 504.539062 307.746094 Z M 487.144531 149.699219 " clip-rule="nonzero"/></clipPath><clipPath id="862103d62e"><path d="M 303.738281 169.882812 L 670.523438 129.519531 L 687.917969 287.5625 L 321.132812 327.929688 Z M 303.738281 169.882812 " clip-rule="nonzero"/></clipPath><clipPath id="e1869d73dc"><path d="M 570 188 L 615 188 L 615 269 L 570 269 Z M 570 188 " clip-rule="nonzero"/></clipPath><clipPath id="4a85bd0a2a"><path d="M 487.144531 149.699219 L 670.539062 129.515625 L 687.929688 287.5625 L 504.539062 307.746094 Z M 487.144531 149.699219 " clip-rule="nonzero"/></clipPath><clipPath id="214c08aa5d"><path d="M 303.738281 169.882812 L 670.523438 129.519531 L 687.917969 287.5625 L 321.132812 327.929688 Z M 303.738281 169.882812 " clip-rule="nonzero"/></clipPath><clipPath id="93eeedac5a"><path d="M 610 243 L 684 243 L 684 296 L 610 296 Z M 610 243 " clip-rule="nonzero"/></clipPath><clipPath id="a5b9994072"><path d="M 487.144531 149.699219 L 670.539062 129.515625 L 687.929688 287.5625 L 504.539062 307.746094 Z M 487.144531 149.699219 " clip-rule="nonzero"/></clipPath><clipPath id="afc7ca9bc5"><path d="M 303.738281 169.882812 L 670.523438 129.519531 L 687.917969 287.5625 L 321.132812 327.929688 Z M 303.738281 169.882812 " clip-rule="nonzero"/></clipPath><clipPath id="d93a5543a1"><path d="M 570.664062 615.804688 L 615.664062 615.804688 L 615.664062 661.554688 L 570.664062 661.554688 Z M 570.664062 615.804688 " clip-rule="nonzero"/></clipPath><clipPath id="2892306614"><path d="M 626.132812 498.152344 L 671.132812 498.152344 L 671.132812 543.902344 L 626.132812 543.902344 Z M 626.132812 498.152344 " clip-rule="nonzero"/></clipPath><clipPath id="75009565dc"><path d="M 696.234375 606.878906 L 727.734375 606.878906 L 727.734375 638.378906 L 696.234375 638.378906 Z M 696.234375 606.878906 " clip-rule="nonzero"/></clipPath><clipPath id="4171d8839c"><path d="M 272 385 L 273 385 L 273 386 L 272 386 Z M 272 385 " clip-rule="nonzero"/></clipPath><clipPath id="0d09101450"><path d="M 187.085938 86.074219 L 695.957031 156.707031 L 622.433594 686.378906 L 113.5625 615.746094 Z M 187.085938 86.074219 " clip-rule="nonzero"/></clipPath><clipPath id="9ba676c1d1"><path d="M 187.085938 86.074219 L 801.445312 171.351562 L 727.921875 701.023438 L 113.5625 615.746094 Z M 187.085938 86.074219 " clip-rule="nonzero"/></clipPath><clipPath id="75bc818173"><path d="M 553 401 L 554 401 L 554 402 L 553 402 Z M 553 401 " clip-rule="nonzero"/></clipPath><clipPath id="6a7da058e3"><path d="M 187.085938 86.074219 L 695.957031 156.707031 L 622.433594 686.378906 L 113.5625 615.746094 Z M 187.085938 86.074219 " clip-rule="nonzero"/></clipPath><clipPath id="5dda159029"><path d="M 187.085938 86.074219 L 801.445312 171.351562 L 727.921875 701.023438 L 113.5625 615.746094 Z M 187.085938 86.074219 " clip-rule="nonzero"/></clipPath><clipPath id="36e84f6e28"><path d="M 598 393 L 600 393 L 600 394 L 598 394 Z M 598 393 " clip-rule="nonzero"/></clipPath><clipPath id="e5c60357e3"><path d="M 187.085938 86.074219 L 695.957031 156.707031 L 622.433594 686.378906 L 113.5625 615.746094 Z M 187.085938 86.074219 " clip-rule="nonzero"/></clipPath><clipPath id="2ce03f7f78"><path d="M 187.085938 86.074219 L 801.445312 171.351562 L 727.921875 701.023438 L 113.5625 615.746094 Z M 187.085938 86.074219 " clip-rule="nonzero"/></clipPath><clipPath id="c5bfab2ac3"><path d="M 458 362 L 459 362 L 459 363 L 458 363 Z M 458 362 " clip-rule="nonzero"/></clipPath><clipPath id="e0529b29fa"><path d="M 187.085938 86.074219 L 695.957031 156.707031 L 622.433594 686.378906 L 113.5625 615.746094 Z M 187.085938 86.074219 " clip-rule="nonzero"/></clipPath><clipPath id="665e2dba70"><path d="M 187.085938 86.074219 L 801.445312 171.351562 L 727.921875 701.023438 L 113.5625 615.746094 Z M 187.085938 86.074219 " clip-rule="nonzero"/></clipPath><clipPath id="618a24428f"><path d="M 207 452 L 208 452 L 208 454 L 207 454 Z M 207 452 " clip-rule="nonzero"/></clipPath><clipPath id="e7be518896"><path d="M 187.085938 86.074219 L 695.957031 156.707031 L 622.433594 686.378906 L 113.5625 615.746094 Z M 187.085938 86.074219 " clip-rule="nonzero"/></clipPath><clipPath id="e02af45808"><path d="M 187.085938 86.074219 L 801.445312 171.351562 L 727.921875 701.023438 L 113.5625 615.746094 Z M 187.085938 86.074219 " clip-rule="nonzero"/></clipPath><clipPath id="5ede5fcc6e"><path d="M 208 451 L 209 451 L 209 453 L 208 453 Z M 208 451 " clip-rule="nonzero"/></clipPath><clipPath id="a482a299b7"><path d="M 187.085938 86.074219 L 695.957031 156.707031 L 622.433594 686.378906 L 113.5625 615.746094 Z M 187.085938 86.074219 " clip-rule="nonzero"/></clipPath><clipPath id="62c83cbd28"><path d="M 187.085938 86.074219 L 801.445312 171.351562 L 727.921875 701.023438 L 113.5625 615.746094 Z M 187.085938 86.074219 " clip-rule="nonzero"/></clipPath><clipPath id="4f22f002ff"><path d="M 207 450 L 211 450 L 211 454 L 207 454 Z M 207 450 " clip-rule="nonzero"/></clipPath><clipPath id="f223e7e3b5"><path d="M 187.085938 86.074219 L 695.957031 156.707031 L 622.433594 686.378906 L 113.5625 615.746094 Z M 187.085938 86.074219 " clip-rule="nonzero"/></clipPath><clipPath id="df3f933e1e"><path d="M 187.085938 86.074219 L 801.445312 171.351562 L 727.921875 701.023438 L 113.5625 615.746094 Z M 187.085938 86.074219 " clip-rule="nonzero"/></clipPath><clipPath id="d9797a6121"><path d="M 445 381 L 447 381 L 447 382 L 445 382 Z M 445 381 " clip-rule="nonzero"/></clipPath><clipPath id="4edf4cf34f"><path d="M 187.085938 86.074219 L 695.957031 156.707031 L 622.433594 686.378906 L 113.5625 615.746094 Z M 187.085938 86.074219 " clip-rule="nonzero"/></clipPath><clipPath id="915f6d573b"><path d="M 187.085938 86.074219 L 801.445312 171.351562 L 727.921875 701.023438 L 113.5625 615.746094 Z M 187.085938 86.074219 " clip-rule="nonzero"/></clipPath><clipPath id="0f23bc8dfe"><path d="M 129 571 L 130 571 L 130 573 L 129 573 Z M 129 571 " clip-rule="nonzero"/></clipPath><clipPath id="c416266651"><path d="M 187.085938 86.074219 L 695.957031 156.707031 L 622.433594 686.378906 L 113.5625 615.746094 Z M 187.085938 86.074219 " clip-rule="nonzero"/></clipPath><clipPath id="d8aba03afd"><path d="M 187.085938 86.074219 L 801.445312 171.351562 L 727.921875 701.023438 L 113.5625 615.746094 Z M 187.085938 86.074219 " clip-rule="nonzero"/></clipPath><clipPath id="7efa9e4492"><path d="M 637 373 L 638 373 L 638 374 L 637 374 Z M 637 373 " clip-rule="nonzero"/></clipPath><clipPath id="e6c62794ed"><path d="M 187.085938 86.074219 L 695.957031 156.707031 L 622.433594 686.378906 L 113.5625 615.746094 Z M 187.085938 86.074219 " clip-rule="nonzero"/></clipPath><clipPath id="a7a8866a54"><path d="M 187.085938 86.074219 L 801.445312 171.351562 L 727.921875 701.023438 L 113.5625 615.746094 Z M 187.085938 86.074219 " clip-rule="nonzero"/></clipPath><clipPath id="be2176af45"><path d="M 146 540 L 147 540 L 147 541 L 146 541 Z M 146 540 " clip-rule="nonzero"/></clipPath><clipPath id="2f6b6c1dcc"><path d="M 187.085938 86.074219 L 695.957031 156.707031 L 622.433594 686.378906 L 113.5625 615.746094 Z M 187.085938 86.074219 " clip-rule="nonzero"/></clipPath><clipPath id="b163acd116"><path d="M 187.085938 86.074219 L 801.445312 171.351562 L 727.921875 701.023438 L 113.5625 615.746094 Z M 187.085938 86.074219 " clip-rule="nonzero"/></clipPath><clipPath id="2f678339c8"><path d="M 667 348 L 668 348 L 668 349 L 667 349 Z M 667 348 " clip-rule="nonzero"/></clipPath><clipPath id="2b8be86b22"><path d="M 187.085938 86.074219 L 695.957031 156.707031 L 622.433594 686.378906 L 113.5625 615.746094 Z M 187.085938 86.074219 " clip-rule="nonzero"/></clipPath><clipPath id="e4cc1d77f3"><path d="M 187.085938 86.074219 L 801.445312 171.351562 L 727.921875 701.023438 L 113.5625 615.746094 Z M 187.085938 86.074219 " clip-rule="nonzero"/></clipPath><clipPath id="8286eeae95"><path d="M 113 171 L 696 171 L 696 616 L 113 616 Z M 113 171 " clip-rule="nonzero"/></clipPath><clipPath id="27c8820c7b"><path d="M 187.085938 86.074219 L 695.957031 156.707031 L 622.433594 686.378906 L 113.5625 615.746094 Z M 187.085938 86.074219 " clip-rule="nonzero"/></clipPath><clipPath id="099dc70df8"><path d="M 187.085938 86.074219 L 801.445312 171.351562 L 727.921875 701.023438 L 113.5625 615.746094 Z M 187.085938 86.074219 " clip-rule="nonzero"/></clipPath></defs><rect x="-81" width="972" fill="#ffffff" y="-80.999999" height="971.999992" fill-opacity="1"/><rect x="-81" width="972" fill="#ffffff" y="-80.999999" height="971.999992" fill-opacity="1"/><g clip-path="url(#0248fb0420)"><g clip-path="url(#6b72e8481b)"><g clip-path="url(#862103d62e)"><path fill="#ffffff" d="M 536.265625 208.984375 C 535.84375 209.253906 535.425781 209.527344 535.203125 209.550781 C 535.300781 210.441406 535.597656 211.082031 535.695312 211.96875 C 535.769531 212.636719 535.644531 213.550781 535.496094 214.242188 C 535.519531 214.464844 535.320312 214.710938 535.148438 215.179688 C 534.976562 215.648438 534.777344 215.894531 534.824219 216.339844 C 534.921875 217.226562 534.355469 218.1875 534.921875 219.25 C 534.945312 219.472656 534.75 219.71875 534.773438 219.941406 C 533.785156 221.175781 533.980469 222.953125 533.261719 224.605469 C 533.066406 224.851562 533.3125 225.050781 533.136719 225.519531 C 533.210938 226.183594 533.0625 226.875 532.691406 227.589844 C 532.121094 228.550781 532.246094 229.664062 532.144531 230.796875 C 532.195312 231.242188 531.996094 231.488281 531.824219 231.957031 C 531.453125 232.671875 531.082031 233.390625 531.402344 234.253906 C 531.425781 234.476562 531.472656 234.917969 531.253906 234.945312 C 530.042969 236.203125 530.484375 238.175781 529.519531 239.632812 C 529.320312 239.878906 529.148438 240.347656 528.949219 240.59375 C 528.578125 241.308594 528.429688 242 528.058594 242.714844 C 527.6875 243.429688 527.292969 243.925781 526.921875 244.640625 C 525.785156 246.5625 524.648438 248.488281 523.488281 250.191406 C 523.289062 250.4375 523.089844 250.683594 522.894531 250.929688 C 522.84375 250.484375 522.574219 250.066406 522.574219 250.066406 C 521.4375 249.964844 521.585938 249.273438 521.265625 248.410156 C 520.40625 244.683594 519.769531 240.929688 519.328125 236.929688 C 519.183594 235.597656 519.257812 234.242188 519.332031 232.882812 C 519.285156 232.4375 519.210938 231.773438 518.941406 231.351562 C 518.398438 230.511719 518.347656 230.070312 518.941406 229.328125 C 519.335938 228.835938 519.460938 227.921875 519.363281 227.035156 C 519.464844 225.898438 519.5625 224.761719 519.664062 223.628906 C 519.613281 223.183594 519.566406 222.738281 519.515625 222.296875 C 519.640625 221.382812 518.457031 220.835938 519.027344 219.875 C 519.398438 219.160156 519.519531 218.246094 519.890625 217.53125 C 520.089844 217.285156 520.042969 216.839844 520.238281 216.59375 C 519.472656 215.777344 519.597656 214.867188 519.722656 213.953125 C 519.847656 213.039062 519.550781 212.398438 520.121094 211.4375 C 520.691406 210.472656 520.765625 209.117188 520.175781 207.832031 C 519.855469 206.96875 519.78125 206.300781 520.128906 205.363281 C 520.621094 203.734375 520.894531 202.132812 521.167969 200.527344 C 521.34375 200.058594 521.292969 199.613281 521.246094 199.171875 C 521.394531 198.480469 521.515625 197.566406 521.667969 196.875 C 521.789062 195.960938 521.914062 195.046875 522.015625 193.914062 C 522.1875 193.445312 522.113281 192.777344 522.289062 192.308594 C 522.414062 191.394531 522.785156 190.679688 522.4375 189.59375 C 522.019531 187.84375 522.515625 186.214844 522.789062 184.609375 C 522.914062 183.695312 523.484375 182.734375 522.890625 181.449219 C 522.867188 181.226562 522.84375 181.003906 523.039062 180.757812 C 523.585938 179.574219 523.882812 178.191406 523.957031 176.835938 C 523.933594 176.613281 524.132812 176.367188 524.105469 176.144531 C 523.765625 173.035156 523.765625 173.035156 524.78125 170 C 524.953125 169.53125 524.683594 169.109375 524.832031 168.421875 C 524.757812 167.753906 524.882812 166.839844 524.808594 166.175781 C 524.785156 165.953125 524.980469 165.707031 524.957031 165.484375 C 524.808594 164.148438 525.132812 162.992188 525.230469 161.855469 C 525.679688 159.78125 525.210938 157.585938 524.992188 155.585938 C 524.894531 154.695312 524.84375 154.253906 525.957031 154.128906 C 525.710938 153.933594 525.460938 153.734375 525.4375 153.511719 C 525.414062 153.289062 525.144531 152.871094 525.339844 152.625 C 525.710938 151.910156 525.835938 150.996094 525.984375 150.304688 C 525.9375 149.859375 526.578125 149.566406 526.777344 149.320312 C 526.972656 149.070312 527.21875 149.269531 527.417969 149.023438 C 527.789062 148.308594 528.160156 147.59375 528.53125 146.875 C 528.925781 146.382812 529.566406 146.089844 530.40625 145.546875 C 530.925781 146.164062 531.886719 146.730469 532.652344 147.546875 C 533.070312 147.277344 533.714844 146.980469 534.355469 146.683594 C 535.316406 147.253906 536.304688 148.046875 537.265625 148.613281 L 538.621094 150.714844 C 538.917969 151.355469 539.164062 151.554688 540.027344 151.234375 C 540.175781 152.566406 540.097656 153.921875 541.109375 154.9375 C 541.132812 155.160156 541.160156 155.378906 541.183594 155.601562 C 541.230469 156.046875 541.058594 156.515625 541.132812 157.183594 C 541.230469 158.070312 541.304688 158.738281 540.933594 159.453125 C 540.734375 159.699219 540.5625 160.167969 541.054688 160.5625 C 541.792969 161.15625 541.421875 161.871094 541.050781 162.585938 C 540.308594 164.019531 540.480469 165.574219 541.097656 167.078125 C 541.121094 167.300781 541.394531 167.722656 541.441406 168.167969 C 540.625 168.929688 540.28125 169.867188 540.402344 170.980469 C 540.175781 173.027344 539.953125 175.074219 539.730469 177.125 C 539.753906 177.347656 539.582031 177.816406 539.605469 178.035156 C 539.949219 179.125 539.824219 180.035156 539.476562 180.972656 C 538.984375 182.601562 539.152344 184.15625 539.324219 185.710938 C 539.375 186.15625 538.78125 186.898438 539.519531 187.488281 C 539.765625 187.6875 539.644531 188.601562 539.445312 188.847656 C 538.40625 189.636719 538.800781 191.167969 538.453125 192.105469 C 538.257812 192.351562 538.332031 193.015625 538.550781 192.992188 C 539.5625 194.007812 538.550781 195.015625 538.671875 196.128906 C 538.722656 196.570312 537.832031 196.667969 537.90625 197.335938 C 538.273438 198.644531 537.953125 199.804688 537.851562 200.941406 C 537.902344 201.382812 537.730469 201.851562 537.554688 202.320312 C 537.578125 202.542969 537.183594 203.035156 537.429688 203.234375 C 537.230469 205.503906 535.824219 207.007812 536.265625 208.984375 Z M 536.265625 208.984375 " fill-opacity="1" fill-rule="nonzero"/></g></g></g><g clip-path="url(#e1869d73dc)"><g clip-path="url(#4a85bd0a2a)"><g clip-path="url(#214c08aa5d)"><path fill="#ffffff" d="M 572.089844 268.898438 C 571.351562 268.308594 571.078125 267.886719 570.363281 267.515625 C 570.4375 266.160156 570.710938 264.554688 570.738281 262.753906 C 571.136719 260.234375 571.753906 257.695312 572.152344 255.175781 C 572.128906 254.953125 572.300781 254.484375 572.5 254.238281 C 573.289062 253.253906 573.613281 252.09375 573.910156 250.710938 C 574.035156 249.796875 573.9375 248.910156 574.777344 248.367188 C 575.195312 248.097656 575.148438 247.652344 575.320312 247.183594 C 575.519531 246.9375 575.46875 246.492188 575.667969 246.246094 C 576.679688 245.234375 576.753906 243.878906 576.632812 242.765625 C 576.535156 241.878906 577.203125 241.804688 577.375 241.335938 C 577.523438 240.644531 577.179688 239.558594 578.289062 239.4375 C 577.773438 238.820312 578.414062 238.523438 578.589844 238.054688 C 578.761719 237.585938 579.132812 236.871094 579.726562 236.128906 C 579.800781 234.773438 580.542969 233.34375 581.507812 231.886719 C 580.964844 231.046875 580.867188 230.160156 581.730469 229.839844 C 582.59375 229.519531 582.769531 229.050781 582.695312 228.382812 C 582.671875 228.160156 582.867188 227.914062 582.84375 227.691406 C 583.929688 227.347656 583.414062 226.730469 583.117188 226.089844 C 583.957031 225.546875 585.042969 225.203125 584.898438 223.867188 C 584.847656 223.425781 585.464844 222.90625 585.859375 222.414062 C 586.480469 221.894531 584.851562 221.402344 585.960938 221.277344 C 585.171875 220.242188 586.257812 219.898438 586.875 219.378906 C 587.097656 219.355469 587.074219 219.132812 587.296875 219.109375 C 587.050781 218.910156 587.023438 218.6875 586.777344 218.492188 C 586.976562 218.242188 587.199219 218.21875 587.394531 217.972656 C 586.679688 217.601562 587.296875 217.082031 587.296875 217.082031 C 588.582031 216.492188 588.410156 214.9375 589.226562 214.171875 C 590.238281 213.164062 590.339844 212.027344 590.660156 210.867188 C 591.007812 209.929688 591.847656 209.386719 591.28125 208.324219 C 591.257812 208.105469 591.652344 207.609375 591.851562 207.363281 C 593.308594 206.304688 593.308594 204.28125 594.050781 202.851562 C 594.222656 202.382812 594.375 201.691406 594.570312 201.441406 C 595.386719 200.679688 595.953125 199.71875 596.992188 198.929688 C 598.226562 197.894531 598.574219 196.957031 598.648438 195.597656 C 598.625 195.375 598.601562 195.152344 598.796875 194.90625 C 600.527344 194.265625 600.699219 193.796875 600.332031 192.488281 C 601.121094 191.503906 602.652344 191.109375 602.257812 189.578125 C 602.902344 189.285156 603.320312 189.011719 603.742188 188.742188 C 604.234375 189.136719 604.726562 189.53125 605.417969 189.679688 C 605.839844 189.410156 606.035156 189.164062 606.480469 189.113281 C 606.925781 189.066406 607.394531 189.238281 607.835938 189.191406 C 607.863281 189.414062 607.910156 189.855469 607.960938 190.300781 C 608.578125 189.785156 609.21875 189.488281 609.835938 188.96875 C 610.332031 189.367188 610.601562 189.785156 611.117188 190.402344 C 611.515625 189.910156 611.710938 189.664062 611.910156 189.417969 C 612.847656 189.761719 612.476562 190.480469 612.328125 191.167969 C 613.265625 191.515625 613.980469 191.886719 613.4375 193.070312 C 613.460938 193.292969 613.507812 193.738281 613.507812 193.738281 C 615.164062 194.457031 614.222656 196.132812 614.789062 197.195312 C 615.035156 197.390625 614.664062 198.109375 614.46875 198.355469 C 613.75 200.007812 613.476562 201.609375 613.203125 203.214844 C 613.054688 203.90625 612.90625 204.597656 612.289062 205.113281 C 610.855469 206.398438 611.320312 208.59375 610.136719 210.074219 C 609.148438 211.304688 608.898438 213.132812 608.15625 214.5625 C 607.613281 215.746094 606.820312 216.734375 606.277344 217.917969 C 605.558594 219.570312 604.101562 220.632812 603.855469 222.457031 C 603.878906 222.679688 603.457031 222.949219 603.261719 223.195312 C 602.890625 223.914062 602.074219 224.675781 602.617188 225.515625 C 602.910156 226.160156 602.738281 226.628906 601.898438 227.167969 C 600.863281 227.957031 600.046875 228.722656 599.503906 229.90625 C 599.132812 230.621094 598.980469 231.3125 598.832031 232.003906 C 598.117188 233.65625 597.347656 234.867188 595.546875 236.863281 C 594.730469 237.628906 594.410156 238.785156 593.839844 239.75 C 593.667969 240.21875 593.269531 240.710938 592.875 241.203125 C 593.6875 242.464844 592.230469 243.523438 591.910156 244.683594 C 591.167969 246.113281 589.710938 247.171875 589.238281 249.023438 C 589.265625 249.246094 588.820312 249.296875 588.621094 249.542969 C 588.425781 249.789062 588.203125 249.8125 588.226562 250.035156 C 587.382812 252.601562 587.410156 252.824219 586.394531 253.835938 C 584.9375 254.894531 584.222656 256.546875 583.257812 258.003906 C 583.058594 258.25 583.058594 258.25 583.082031 258.472656 C 580.882812 260.960938 579.425781 264.046875 576.484375 265.941406 C 574.78125 266.804688 573.546875 267.839844 572.089844 268.898438 Z M 572.089844 268.898438 " fill-opacity="1" fill-rule="nonzero"/></g></g></g><g clip-path="url(#93eeedac5a)"><g clip-path="url(#a5b9994072)"><g clip-path="url(#afc7ca9bc5)"><path fill="#ffffff" d="M 610.316406 295.496094 C 610.910156 294.757812 611.75 294.214844 611.429688 293.351562 C 611.207031 293.375 610.765625 293.425781 610.542969 293.449219 C 610.542969 293.449219 610.519531 293.226562 610.519531 293.226562 C 612.222656 290.339844 614.421875 287.851562 616.84375 285.335938 C 617.859375 284.324219 618.847656 283.089844 620.082031 282.054688 C 621.515625 280.773438 622.972656 279.714844 624.625 278.40625 C 625.246094 277.890625 625.863281 277.371094 626.480469 276.855469 C 626.875 276.363281 627.492188 275.84375 627.886719 275.351562 C 629.148438 274.539062 630.652344 273.921875 631.890625 272.886719 C 633.125 271.851562 634.113281 270.617188 635.125 269.609375 C 635.519531 269.113281 636.136719 268.597656 636.78125 268.300781 C 638.238281 267.242188 639.941406 266.378906 641.398438 265.320312 C 642.632812 264.285156 643.871094 263.25 645.105469 262.214844 C 645.917969 261.449219 646.757812 260.90625 647.597656 260.363281 C 648.21875 259.847656 649.105469 259.75 649.453125 258.8125 C 649.453125 258.8125 649.648438 258.566406 649.648438 258.566406 C 652.042969 257.851562 653.453125 256.347656 655.058594 254.597656 C 655.257812 254.351562 655.703125 254.300781 656.144531 254.253906 C 656.566406 253.980469 657.453125 253.882812 657.652344 253.636719 C 658.589844 251.960938 660.097656 251.34375 661.605469 250.730469 C 662.46875 250.410156 663.085938 249.890625 663.925781 249.347656 C 664.742188 248.585938 665.582031 248.042969 666.691406 247.921875 C 667.359375 247.847656 668.199219 247.304688 668.566406 246.589844 C 669.929688 244.640625 672.347656 244.148438 674.496094 243.238281 C 675.78125 242.648438 677.210938 243.390625 678.074219 243.070312 C 679.257812 243.613281 680.195312 243.960938 681.132812 244.308594 C 682.070312 244.652344 682.144531 245.320312 682.21875 245.988281 C 682.339844 247.097656 682.660156 247.960938 683.621094 248.53125 C 683.472656 249.222656 683.546875 249.886719 683.375 250.355469 C 683.25 251.269531 683.101562 251.960938 682.507812 252.699219 C 682.113281 253.195312 681.714844 253.6875 681.566406 254.378906 C 681 255.339844 680.652344 256.277344 679.292969 256.203125 C 679.292969 256.203125 679.074219 256.226562 679.074219 256.226562 C 677.960938 258.371094 675.292969 258.667969 673.664062 260.195312 C 672.648438 261.207031 671.367188 261.796875 671.070312 263.179688 C 670.203125 263.5 669.363281 264.039062 668.5 264.359375 C 666.550781 265.023438 664.820312 265.664062 663.660156 267.367188 C 663.460938 267.613281 662.820312 267.910156 662.375 267.957031 C 661.511719 268.277344 660.375 268.175781 659.808594 269.140625 C 658.226562 269.089844 657.511719 270.742188 655.957031 270.914062 C 654.84375 271.035156 654.027344 271.800781 653.460938 272.761719 C 653.066406 273.253906 652.449219 273.773438 651.757812 273.625 C 650.421875 273.769531 649.140625 274.359375 648.125 275.371094 C 647.507812 275.890625 646.421875 276.234375 645.804688 276.75 C 644.148438 278.058594 641.976562 278.746094 640.050781 279.632812 C 639.210938 280.175781 638.371094 280.71875 637.308594 281.285156 C 636.46875 281.828125 635.605469 282.144531 634.765625 282.6875 C 634.347656 282.960938 633.902344 283.007812 633.480469 283.28125 C 630.789062 285.375 627.332031 286.65625 624.640625 288.75 C 622.984375 290.054688 621.035156 290.71875 619.355469 291.804688 C 617.257812 293.160156 614.589844 293.453125 612.492188 294.808594 C 612.09375 295.300781 611.207031 295.398438 610.316406 295.496094 Z M 610.316406 295.496094 " fill-opacity="1" fill-rule="nonzero"/></g></g></g><g clip-path="url(#d93a5543a1)"><path fill="#ffffff" d="M 595.101562 616.332031 C 595.019531 616.007812 594.710938 615.8125 594.386719 615.894531 C 594.171875 615.941406 593.992188 616.121094 593.945312 616.332031 C 592.902344 620.234375 590.324219 627.433594 584.652344 631.839844 C 580.707031 634.894531 576.089844 637.007812 571.199219 638 C 570.875 638.0625 570.664062 638.371094 570.726562 638.699219 C 570.777344 638.925781 570.941406 639.089844 571.152344 639.152344 C 575.128906 640.257812 582.042969 642.679688 585.546875 646.792969 C 588.320312 650.042969 590.78125 658.1875 591.859375 662.167969 C 591.957031 662.476562 592.28125 662.671875 592.589844 662.574219 C 592.789062 662.527344 592.949219 662.363281 593 662.167969 C 594.109375 658.121094 596.976562 649.75 602.339844 646.191406 C 607.136719 643.003906 612.464844 641.414062 615.484375 640.699219 C 615.808594 640.617188 615.988281 640.289062 615.90625 639.964844 C 615.859375 639.769531 615.710938 639.609375 615.515625 639.558594 C 611.878906 638.488281 605.113281 636.066406 602.339844 632.441406 C 598.039062 626.816406 595.984375 620.039062 595.101562 616.332031 Z M 625.25 649.734375 C 625.199219 649.539062 625.003906 649.425781 624.808594 649.476562 C 624.679688 649.507812 624.582031 649.605469 624.546875 649.734375 C 623.914062 652.125 622.332031 656.527344 618.859375 659.210938 C 616.445312 661.082031 613.625 662.363281 610.625 662.964844 C 610.429688 663 610.296875 663.195312 610.347656 663.386719 C 610.378906 663.519531 610.476562 663.632812 610.609375 663.664062 C 613.039062 664.347656 617.277344 665.808594 619.414062 668.328125 C 621.109375 670.3125 622.609375 675.304688 623.277344 677.742188 C 623.324219 677.9375 623.539062 678.050781 623.714844 678 C 623.847656 677.96875 623.929688 677.871094 623.976562 677.742188 C 624.664062 675.269531 626.40625 670.148438 629.683594 667.972656 C 632.617188 666.023438 635.878906 665.046875 637.722656 664.609375 C 637.917969 664.558594 638.03125 664.363281 637.984375 664.167969 C 637.949219 664.039062 637.851562 663.941406 637.738281 663.910156 C 635.503906 663.242188 631.378906 661.777344 629.683594 659.550781 C 627.042969 656.15625 625.789062 652.011719 625.25 649.734375 Z M 637.167969 622.558594 C 637.136719 622.425781 637.003906 622.347656 636.875 622.378906 C 636.792969 622.394531 636.726562 622.460938 636.695312 622.558594 C 636.269531 624.148438 635.226562 627.058594 632.914062 628.847656 C 631.316406 630.082031 629.441406 630.945312 627.449219 631.351562 C 627.320312 631.382812 627.238281 631.496094 627.253906 631.628906 C 627.269531 631.726562 627.335938 631.789062 627.433594 631.804688 C 629.046875 632.261719 631.851562 633.238281 633.289062 634.910156 C 634.414062 636.226562 635.40625 639.542969 635.847656 641.152344 C 635.878906 641.28125 636.011719 641.347656 636.140625 641.316406 C 636.222656 641.296875 636.289062 641.234375 636.304688 641.152344 C 636.761719 639.511719 637.917969 636.113281 640.101562 634.667969 C 642.042969 633.367188 644.210938 632.734375 645.449219 632.441406 C 645.582031 632.40625 645.664062 632.277344 645.628906 632.148438 C 645.613281 632.066406 645.546875 632 645.464844 631.96875 C 643.984375 631.53125 641.242188 630.554688 640.117188 629.074219 C 638.375 626.816406 637.527344 624.070312 637.167969 622.558594 Z M 637.167969 622.558594 " fill-opacity="1" fill-rule="nonzero"/></g><g clip-path="url(#2892306614)"><path fill="#ffffff" d="M 650.574219 498.679688 C 650.492188 498.355469 650.179688 498.160156 649.855469 498.242188 C 649.644531 498.289062 649.464844 498.46875 649.414062 498.679688 C 648.371094 502.582031 645.796875 509.78125 640.121094 514.1875 C 636.175781 517.242188 631.5625 519.355469 626.671875 520.347656 C 626.34375 520.410156 626.132812 520.71875 626.199219 521.046875 C 626.246094 521.273438 626.410156 521.4375 626.621094 521.5 C 630.601562 522.605469 637.511719 525.027344 641.019531 529.140625 C 643.789062 532.390625 646.253906 540.535156 647.328125 544.515625 C 647.425781 544.824219 647.753906 545.019531 648.0625 544.921875 C 648.257812 544.875 648.421875 544.710938 648.46875 544.515625 C 649.578125 540.46875 652.449219 532.097656 657.8125 528.539062 C 662.605469 525.351562 667.9375 523.761719 670.953125 523.042969 C 671.277344 522.964844 671.457031 522.636719 671.378906 522.3125 C 671.328125 522.117188 671.179688 521.957031 670.984375 521.90625 C 667.351562 520.835938 660.582031 518.414062 657.8125 514.789062 C 653.507812 509.164062 651.453125 502.386719 650.574219 498.679688 Z M 680.71875 532.082031 C 680.671875 531.886719 680.476562 531.773438 680.277344 531.820312 C 680.148438 531.855469 680.050781 531.953125 680.019531 532.082031 C 679.382812 534.472656 677.800781 538.875 674.328125 541.558594 C 671.914062 543.429688 669.09375 544.710938 666.09375 545.3125 C 665.898438 545.347656 665.769531 545.539062 665.816406 545.734375 C 665.851562 545.867188 665.949219 545.980469 666.078125 546.011719 C 668.507812 546.695312 672.746094 548.15625 674.882812 550.675781 C 676.578125 552.660156 678.078125 557.652344 678.746094 560.089844 C 678.796875 560.285156 679.007812 560.398438 679.1875 560.347656 C 679.316406 560.316406 679.398438 560.21875 679.449219 560.089844 C 680.132812 557.617188 681.878906 552.496094 685.152344 550.320312 C 688.089844 548.371094 691.351562 547.394531 693.191406 546.953125 C 693.386719 546.90625 693.503906 546.710938 693.453125 546.515625 C 693.421875 546.386719 693.324219 546.289062 693.207031 546.257812 C 690.976562 545.589844 686.851562 544.125 685.152344 541.898438 C 682.511719 538.503906 681.257812 534.359375 680.71875 532.082031 Z M 692.636719 504.90625 C 692.605469 504.773438 692.476562 504.695312 692.34375 504.726562 C 692.261719 504.742188 692.199219 504.808594 692.164062 504.90625 C 691.742188 506.496094 690.699219 509.40625 688.382812 511.195312 C 686.785156 512.429688 684.910156 513.292969 682.921875 513.699219 C 682.789062 513.730469 682.707031 513.84375 682.726562 513.976562 C 682.742188 514.074219 682.804688 514.136719 682.902344 514.152344 C 684.519531 514.609375 687.324219 515.582031 688.757812 517.257812 C 689.882812 518.574219 690.878906 521.890625 691.316406 523.5 C 691.351562 523.628906 691.480469 523.695312 691.609375 523.664062 C 691.691406 523.644531 691.757812 523.582031 691.773438 523.5 C 692.230469 521.859375 693.386719 518.460938 695.574219 517.015625 C 697.511719 515.714844 699.679688 515.078125 700.921875 514.789062 C 701.050781 514.753906 701.132812 514.625 701.101562 514.496094 C 701.082031 514.414062 701.019531 514.347656 700.9375 514.316406 C 699.453125 513.878906 696.714844 512.902344 695.589844 511.421875 C 693.84375 509.164062 692.996094 506.417969 692.636719 504.90625 Z M 692.636719 504.90625 " fill-opacity="1" fill-rule="nonzero"/></g><g clip-path="url(#75009565dc)"><path fill="#ffffff" d="M 713.097656 607.246094 C 713.042969 607.019531 712.828125 606.882812 712.605469 606.9375 C 712.457031 606.972656 712.332031 607.097656 712.300781 607.246094 C 711.578125 609.972656 709.800781 615.003906 705.886719 618.082031 C 703.164062 620.21875 699.980469 621.695312 696.605469 622.386719 C 696.382812 622.433594 696.234375 622.648438 696.28125 622.875 C 696.3125 623.035156 696.425781 623.148438 696.574219 623.195312 C 699.316406 623.964844 704.085938 625.660156 706.507812 628.53125 C 708.417969 630.804688 710.117188 636.496094 710.859375 639.277344 C 710.925781 639.496094 711.152344 639.632812 711.367188 639.5625 C 711.5 639.527344 711.613281 639.414062 711.648438 639.277344 C 712.414062 636.449219 714.390625 630.601562 718.09375 628.113281 C 721.402344 625.886719 725.078125 624.773438 727.160156 624.273438 C 727.386719 624.214844 727.511719 623.988281 727.453125 623.761719 C 727.417969 623.625 727.320312 623.511719 727.183594 623.476562 C 724.675781 622.726562 720.007812 621.035156 718.09375 618.503906 C 715.125 614.570312 713.707031 609.835938 713.097656 607.246094 Z M 733.898438 630.589844 C 733.867188 630.453125 733.730469 630.371094 733.597656 630.40625 C 733.507812 630.429688 733.4375 630.496094 733.417969 630.589844 C 732.976562 632.257812 731.886719 635.335938 729.488281 637.210938 C 727.824219 638.519531 725.878906 639.414062 723.808594 639.835938 C 723.671875 639.859375 723.582031 639.996094 723.617188 640.132812 C 723.640625 640.222656 723.707031 640.300781 723.796875 640.324219 C 725.472656 640.800781 728.398438 641.824219 729.871094 643.585938 C 731.042969 644.96875 732.078125 648.457031 732.539062 650.160156 C 732.574219 650.296875 732.71875 650.378906 732.84375 650.34375 C 732.933594 650.320312 732.988281 650.253906 733.023438 650.160156 C 733.496094 648.433594 734.699219 644.855469 736.960938 643.335938 C 738.984375 641.972656 741.234375 641.289062 742.507812 640.984375 C 742.640625 640.949219 742.71875 640.8125 742.6875 640.675781 C 742.664062 640.585938 742.597656 640.515625 742.515625 640.496094 C 740.976562 640.027344 738.128906 639.007812 736.960938 637.449219 C 735.136719 635.074219 734.269531 632.179688 733.898438 630.589844 Z M 742.125 611.59375 C 742.101562 611.503906 742.011719 611.449219 741.921875 611.46875 C 741.863281 611.480469 741.820312 611.527344 741.796875 611.59375 C 741.503906 612.707031 740.785156 614.742188 739.1875 615.992188 C 738.085938 616.855469 736.792969 617.457031 735.417969 617.742188 C 735.328125 617.765625 735.273438 617.84375 735.285156 617.933594 C 735.292969 618.003906 735.339844 618.046875 735.40625 618.058594 C 736.519531 618.378906 738.457031 619.058594 739.445312 620.230469 C 740.222656 621.148438 740.910156 623.464844 741.210938 624.589844 C 741.234375 624.683594 741.324219 624.726562 741.414062 624.703125 C 741.472656 624.691406 741.515625 624.648438 741.527344 624.589844 C 741.84375 623.445312 742.640625 621.070312 744.148438 620.058594 C 745.488281 619.148438 746.984375 618.707031 747.839844 618.503906 C 747.929688 618.480469 747.984375 618.386719 747.960938 618.296875 C 747.949219 618.242188 747.90625 618.195312 747.851562 618.171875 C 746.824219 617.867188 744.9375 617.183594 744.160156 616.152344 C 742.957031 614.570312 742.371094 612.652344 742.125 611.59375 Z M 742.125 611.59375 " fill-opacity="1" fill-rule="nonzero"/></g><path stroke-linecap="butt" transform="matrix(0.750181, 0, 0, 0.75, 0.0000035, 17.032988)" fill="none" stroke-linejoin="miter" d="M -0.00000466554 3.497683 L 1166.718847 3.497683 " stroke="#ffffff" stroke-width="7" stroke-opacity="1" stroke-miterlimit="4"/><path stroke-linecap="butt" transform="matrix(0.750181, 0, 0, 0.75, -45.599778, 784.825469)" fill="none" stroke-linejoin="miter" d="M -0.00237849 3.498334 L 1166.72168 3.498334 " stroke="#ffffff" stroke-width="7" stroke-opacity="1" stroke-miterlimit="4"/><path stroke-linecap="butt" transform="matrix(0.000000000000000046, -0.750181, 0.75, 0.000000000000000046, 783.498708, 809.999091)" fill="none" stroke-linejoin="miter" d="M -0.00121137 3.501723 L 1166.722847 3.501723 " stroke="#ffffff" stroke-width="7" stroke-opacity="1" stroke-miterlimit="4"/><g clip-path="url(#4171d8839c)"><g clip-path="url(#0d09101450)"><g clip-path="url(#9ba676c1d1)"><path fill="#ffde59" d="M 272.921875 385.308594 C 272.566406 385.511719 272.464844 385.707031 272.921875 385.308594 Z M 272.921875 385.308594 " fill-opacity="1" fill-rule="nonzero"/></g></g></g><g clip-path="url(#75bc818173)"><g clip-path="url(#6a7da058e3)"><g clip-path="url(#5dda159029)"><path fill="#ffde59" d="M 553.183594 401.746094 L 553.445312 401.78125 C 553.605469 401.515625 553.785156 401.261719 553.980469 401.023438 Z M 553.183594 401.746094 " fill-opacity="1" fill-rule="nonzero"/></g></g></g><g clip-path="url(#36e84f6e28)"><g clip-path="url(#e5c60357e3)"><g clip-path="url(#2ce03f7f78)"><path fill="#ffde59" d="M 598.828125 393.910156 L 599.121094 393.949219 C 599.042969 393.671875 599.039062 393.480469 598.828125 393.910156 Z M 598.828125 393.910156 " fill-opacity="1" fill-rule="nonzero"/></g></g></g><g clip-path="url(#c5bfab2ac3)"><g clip-path="url(#e0529b29fa)"><g clip-path="url(#665e2dba70)"><path fill="#ffde59" d="M 458.261719 362.074219 C 458.511719 362.226562 458.746094 362.402344 458.960938 362.601562 C 458.777344 362.355469 458.546875 362.179688 458.261719 362.074219 Z M 458.261719 362.074219 " fill-opacity="1" fill-rule="nonzero"/></g></g></g><g clip-path="url(#618a24428f)"><g clip-path="url(#e7be518896)"><g clip-path="url(#e02af45808)"><path fill="#ffde59" d="M 207.765625 453.179688 L 207.894531 452.988281 C 207.734375 453.085938 207.582031 453.199219 207.40625 453.292969 Z M 207.765625 453.179688 " fill-opacity="1" fill-rule="nonzero"/></g></g></g><g clip-path="url(#5ede5fcc6e)"><g clip-path="url(#a482a299b7)"><g clip-path="url(#62c83cbd28)"><path fill="#ffde59" d="M 208.40625 451.871094 C 208.277344 451.910156 208.164062 451.980469 208.066406 452.074219 C 208.191406 452.023438 208.304688 451.953125 208.40625 451.871094 Z M 208.40625 451.871094 " fill-opacity="1" fill-rule="nonzero"/></g></g></g><g clip-path="url(#4f22f002ff)"><g clip-path="url(#f223e7e3b5)"><g clip-path="url(#df3f933e1e)"><path fill="#ffde59" d="M 208.40625 451.871094 C 208.640625 451.902344 208.117188 452.664062 207.90625 453.003906 C 208.992188 452.308594 209.867188 451.410156 210.527344 450.304688 C 210.226562 449.996094 209.105469 451.328125 208.40625 451.871094 Z M 208.40625 451.871094 " fill-opacity="1" fill-rule="nonzero"/></g></g></g><g clip-path="url(#d9797a6121)"><g clip-path="url(#4edf4cf34f)"><g clip-path="url(#915f6d573b)"><path fill="#ffde59" d="M 446.238281 381.652344 C 446.039062 381.503906 445.828125 381.3125 445.625 381.164062 C 445.789062 381.375 445.996094 381.539062 446.238281 381.652344 Z M 446.238281 381.652344 " fill-opacity="1" fill-rule="nonzero"/></g></g></g><g clip-path="url(#0f23bc8dfe)"><g clip-path="url(#c416266651)"><g clip-path="url(#d8aba03afd)"><path fill="#ffde59" d="M 129.808594 572.25 L 129.3125 571.644531 C 129.382812 571.925781 129.546875 572.125 129.808594 572.25 Z M 129.808594 572.25 " fill-opacity="1" fill-rule="nonzero"/></g></g></g><g clip-path="url(#7efa9e4492)"><g clip-path="url(#e6c62794ed)"><g clip-path="url(#a7a8866a54)"><path fill="#ffde59" d="M 637.265625 373.34375 C 637.410156 373.503906 637.582031 373.605469 637.789062 373.65625 L 637.898438 373.597656 Z M 637.265625 373.34375 " fill-opacity="1" fill-rule="nonzero"/></g></g></g><g clip-path="url(#be2176af45)"><g clip-path="url(#2f6b6c1dcc)"><g clip-path="url(#b163acd116)"><path fill="#ffde59" d="M 146.574219 540.78125 L 146.757812 540.402344 C 146.671875 540.515625 146.609375 540.640625 146.574219 540.78125 Z M 146.574219 540.78125 " fill-opacity="1" fill-rule="nonzero"/></g></g></g><g clip-path="url(#2f678339c8)"><g clip-path="url(#2b8be86b22)"><g clip-path="url(#e4cc1d77f3)"><path fill="#ffde59" d="M 667.414062 348.996094 L 667.679688 348.378906 C 667.566406 348.574219 667.476562 348.78125 667.414062 348.996094 Z M 667.414062 348.996094 " fill-opacity="1" fill-rule="nonzero"/></g></g></g><g clip-path="url(#8286eeae95)"><g clip-path="url(#27c8820c7b)"><g clip-path="url(#099dc70df8)"><path fill="#ffde59" d="M 785.757812 191.015625 C 789.242188 184.972656 786.386719 189.273438 785.269531 190.265625 L 785.4375 190.867188 C 783.21875 194.425781 782.273438 193.953125 781.082031 195.703125 C 781.183594 195.742188 781.289062 195.757812 781.402344 195.75 L 781.441406 195.457031 C 781.691406 195.359375 781.761719 195.5 781.753906 195.769531 C 781.988281 195.800781 782.054688 196.078125 781.5 197.070312 L 781.53125 196.835938 C 780.722656 198.695312 779.800781 200.496094 778.761719 202.238281 L 777.953125 201.855469 C 778.019531 203.621094 775.109375 207.976562 771.960938 212.355469 C 768.8125 216.734375 765.3125 221.066406 764.359375 222.898438 C 762.894531 224.703125 761.742188 226.6875 760.902344 228.855469 C 759.910156 231.214844 758.730469 233.472656 757.359375 235.636719 C 753.214844 242.804688 754.265625 238.667969 751.652344 241.964844 C 748.707031 246.253906 753.0625 241.535156 752.136719 243.398438 L 747.976562 248.085938 C 749.640625 244.898438 748.21875 246.335938 747.597656 246.738281 C 744.839844 251.324219 739.375 257.910156 740 260.152344 C 735.589844 265.917969 734.984375 265.566406 733.332031 268.148438 C 734.132812 267.425781 735.441406 265.808594 735.742188 265.984375 C 733.597656 268.066406 735.207031 267.261719 735.960938 266.339844 C 734.507812 270.601562 721.195312 283.949219 722.367188 285.777344 L 722.066406 285.585938 C 722.726562 287.164062 724.890625 286.660156 723.765625 289.628906 L 722.09375 290.957031 L 720.863281 293.847656 C 719.308594 295.296875 719.558594 294.234375 719.410156 294.136719 C 718.03125 296.683594 716.445312 299.097656 714.660156 301.375 C 712.726562 303.839844 710.53125 306.289062 708.652344 308.671875 L 715.691406 305.828125 C 711.84375 309.445312 704.859375 315.757812 705.175781 317.335938 L 702.1875 319.046875 C 693.726562 325.394531 698.496094 325.300781 695.3125 327.996094 L 693.125 329.519531 L 690.859375 330.960938 L 692.605469 329.074219 L 694.234375 327.101562 C 692.753906 328.46875 691.195312 329.738281 689.558594 330.914062 C 688.199219 331.929688 686.914062 332.820312 685.203125 334.011719 C 685.203125 334.011719 685.613281 333.753906 685.695312 333.78125 L 685.25 334.328125 C 685.371094 335.269531 683.949219 337.582031 681.460938 340.210938 C 677.804688 343.75 675.636719 347.253906 668.832031 351.839844 C 668.714844 352.6875 668.601562 353.519531 668.371094 354.320312 L 663.1875 357.703125 L 662.402344 356.820312 C 667.082031 353.113281 674.589844 344.730469 679.953125 339.289062 L 679.648438 338.816406 C 676.503906 342.082031 673.164062 346.019531 670.9375 348.015625 C 669.851562 348.785156 666.957031 350.257812 667.355469 348.765625 L 666.429688 350.941406 C 660.839844 355.980469 657.949219 358.507812 655.035156 360.972656 C 653.394531 362.328125 651.675781 363.578125 649.878906 364.71875 L 642.082031 369.820312 L 643.515625 369.453125 C 642.394531 370.546875 641.261719 371.640625 640.277344 372.425781 C 639.570312 373.125 638.722656 373.46875 637.726562 373.453125 C 633.808594 375.988281 629.765625 378.460938 625.980469 380.550781 L 624.582031 381.324219 C 624.117188 381.554688 623.664062 381.730469 623.203125 381.921875 C 622.300781 382.300781 621.414062 382.671875 620.550781 383.039062 C 618.960938 383.632812 617.339844 384.136719 615.691406 384.550781 C 615.53125 385.167969 615.359375 385.765625 615.183594 386.382812 C 613.410156 387.175781 609.953125 386.578125 609.921875 388.625 C 608.765625 389.371094 607.613281 390.164062 606.429688 390.890625 C 603.964844 391.8125 602.773438 393.222656 599.667969 393.535156 L 599.082031 393.589844 C 599.101562 393.628906 599.125 393.660156 599.15625 393.6875 C 593.359375 395.1875 599.648438 394.871094 592.9375 396.410156 C 590.546875 396.078125 591.113281 398.847656 587.855469 399.507812 L 584.101562 398.511719 C 581.785156 398.648438 579.570312 399.191406 577.453125 400.148438 C 576.476562 400.546875 575.417969 400.996094 574.0625 401.460938 C 572.371094 401.980469 570.65625 402.386719 568.914062 402.679688 C 564.65625 402.609375 562.523438 401.167969 564.925781 399.285156 C 561.472656 401.558594 563.40625 400.695312 558.59375 402.078125 C 557.765625 401.382812 558.285156 401.1875 559.296875 400.4375 C 554.921875 399.828125 556.667969 401.367188 553.371094 401.472656 C 552.484375 402.925781 551.4375 405.21875 550.332031 405.363281 L 551.660156 405.753906 C 547.785156 406.78125 543.886719 406.878906 539.96875 406.050781 L 540.167969 405.351562 L 535.703125 405.382812 L 535.507812 404.449219 C 533.433594 404.28125 531.316406 404.226562 529.257812 403.96875 L 530.070312 404.335938 C 529.339844 404.234375 527.746094 404.160156 526.023438 403.921875 C 524.359375 403.667969 522.730469 403.257812 521.140625 402.695312 L 521.355469 402.21875 C 517.9375 400.773438 514.40625 399.6875 510.765625 398.964844 L 508.011719 398.34375 L 505.144531 397.574219 C 503.097656 397.003906 501.09375 396.300781 499.136719 395.460938 L 500.6875 395.007812 C 498.328125 392.835938 499.257812 396.101562 496.15625 394.035156 L 496.558594 392.828125 C 492.914062 392.859375 493.058594 390.542969 491.464844 388.953125 L 491.535156 390.898438 C 490.363281 390.140625 489.269531 389.246094 488.132812 388.433594 C 484.558594 385.496094 486.953125 385.148438 487.953125 384.808594 L 484.699219 384.164062 L 485.042969 382.636719 C 482.226562 382.691406 483.359375 381.0625 479.671875 379.378906 C 479.757812 378.734375 480.71875 379.105469 479.847656 378.09375 C 478.804688 377.695312 477.746094 377.296875 476.703125 376.871094 L 473.597656 375.472656 C 474.789062 376.113281 475.957031 376.78125 477.144531 377.449219 L 475.382812 378.78125 C 473.878906 378.289062 472.609375 377.445312 471.574219 376.246094 C 470.847656 375.109375 469.941406 374.148438 468.851562 373.355469 L 470.808594 374.355469 C 469.449219 373.417969 468.300781 372.265625 467.367188 370.902344 C 466.777344 369.988281 466.472656 369.203125 465.628906 368 C 465.976562 368.925781 466.511719 370.308594 464.847656 369.023438 C 463.699219 367.988281 464.8125 367.886719 463.96875 366.671875 C 463.339844 367.042969 462.230469 366.683594 461.109375 365.871094 C 459.742188 364.878906 458.601562 363.667969 457.6875 362.246094 C 457.871094 362.105469 458.074219 362.066406 458.300781 362.121094 C 457.347656 361.726562 456.609375 361.085938 456.085938 360.195312 L 457.871094 359.757812 L 454.703125 358.589844 C 453.59375 356.832031 450.667969 355.53125 451.578125 354.960938 L 452.640625 355.566406 C 450.882812 353.671875 448.925781 351.8125 447.03125 349.941406 C 445.132812 348.074219 443.085938 346.242188 440.828125 344.5 L 441.421875 343.347656 C 440.222656 343.523438 438.550781 341.96875 436.847656 340.738281 C 435.148438 339.503906 433.734375 338.433594 433.390625 339.515625 C 432.601562 338.691406 431.707031 338.011719 430.703125 337.476562 C 429.519531 336.769531 428.292969 336.148438 427.023438 335.613281 C 424.613281 334.546875 422.835938 333.632812 424.230469 332.90625 C 422.933594 332.3125 421.601562 331.820312 420.230469 331.425781 C 418.996094 331.011719 417.738281 330.667969 416.464844 330.398438 C 415.210938 330.226562 414 330.058594 412.816406 329.820312 C 411.652344 329.621094 410.480469 329.484375 409.304688 329.40625 L 402.121094 328.808594 C 399.527344 328.523438 396.660156 328.304688 393.328125 327.902344 C 391.730469 327.28125 390.078125 326.917969 388.367188 326.8125 C 386.054688 326.648438 383.746094 326.65625 381.4375 326.84375 C 376.539062 327.261719 371.695312 328.007812 366.902344 329.082031 C 359.875 331.117188 353.070312 333.734375 346.488281 336.9375 C 340.066406 340.0625 333.820312 343.511719 327.753906 347.289062 C 322.8125 348.386719 317.757812 351.726562 312.929688 355.355469 C 308.101562 358.980469 303.460938 362.960938 298.878906 365.226562 L 297.324219 367.773438 C 290.8125 370.230469 284.0625 378.1875 275.695312 382.363281 C 274.851562 383.410156 273.945312 384.398438 272.976562 385.332031 C 273.226562 385.179688 273.496094 385.109375 273.785156 385.117188 C 274.074219 385.125 274.339844 385.210938 274.578125 385.375 C 272.1875 386.527344 268.367188 390.28125 267.785156 388.890625 L 268.214844 388.371094 C 268.070312 388.023438 267.632812 388.171875 267.023438 388.609375 C 266.710938 388.816406 266.359375 389.109375 265.972656 389.441406 L 265.363281 389.96875 C 264.867188 390.371094 264.398438 390.804688 263.949219 391.257812 C 263.558594 391.660156 263.1875 392.078125 262.839844 392.515625 C 261.941406 393.671875 261.195312 394.914062 260.597656 396.25 L 260.574219 396.410156 L 260.5625 396.5 L 260.574219 396.425781 L 260.554688 396.554688 C 260.554688 396.617188 260.546875 396.675781 260.53125 396.730469 C 260.5 396.949219 260.179688 397.011719 259.886719 396.878906 L 259.972656 396.890625 C 260.40625 397.199219 260.863281 397.460938 261.351562 397.679688 L 260.992188 397.894531 L 260.921875 397.886719 C 260.921875 397.886719 260.933594 397.796875 260.921875 397.886719 L 260.753906 398.027344 L 260.050781 398.582031 L 258.664062 399.699219 L 259.488281 398.566406 C 256.351562 402.363281 252.972656 405.933594 249.351562 409.273438 C 246.238281 412.335938 243.246094 414.941406 240.257812 417.515625 C 237.136719 420.070312 234.171875 422.796875 231.363281 425.691406 C 228.09375 429.019531 225.167969 432.628906 222.59375 436.515625 C 223.183594 433.328125 220.515625 440.140625 218.949219 439.089844 C 217.800781 439.613281 216.769531 440.308594 215.855469 441.175781 C 214.9375 442.046875 214.191406 443.039062 213.609375 444.160156 C 212.460938 446.21875 211.730469 448.480469 210.574219 450.296875 C 210.644531 450.308594 210.699219 450.464844 210.644531 450.753906 L 205.636719 456.304688 C 206.707031 451.382812 203.660156 461.664062 204.761719 457.25 C 201.308594 460.710938 197.914062 464.71875 194.417969 468.929688 C 190.917969 473.144531 187.613281 477.796875 184.15625 482.449219 C 180.703125 487.097656 177.492188 492.035156 174.09375 496.796875 C 170.699219 501.558594 167.558594 506.417969 164.222656 510.964844 L 165.285156 510.488281 C 162.03125 515.167969 158.894531 521.496094 155.707031 524.652344 C 152.519531 527.808594 152.070312 533.5 151.304688 534.96875 C 149.890625 539.039062 146.542969 541.535156 146.671875 540.824219 C 144.570312 545.246094 143.875 550.261719 139.644531 555.667969 C 136.730469 556.75 131.910156 573.179688 129.910156 572.277344 L 130.035156 572.445312 C 127.363281 576 125.164062 579.828125 123.445312 583.929688 C 121.695312 588.191406 119.496094 592.207031 116.855469 595.980469 C 116.8125 595.78125 116.800781 595.582031 116.816406 595.378906 C 115.75 602.207031 114.789062 609.046875 113.777344 615.773438 L 123.054688 614.371094 C 127.476562 610.359375 131.882812 606.347656 136.339844 602.402344 C 143.058594 588.824219 150.023438 575.417969 157.230469 562.183594 C 164.011719 552.210938 170.882812 542.324219 178.027344 532.703125 C 185.683594 520.382812 193.867188 508.328125 202.285156 496.519531 C 206.597656 490.707031 210.820312 484.8125 215.347656 479.179688 C 217.597656 476.355469 219.742188 473.425781 222.085938 470.6875 L 229.019531 462.375 C 229.902344 460.414062 230.851562 458.496094 231.828125 456.59375 C 235.382812 453.757812 238.726562 450.691406 241.859375 447.398438 C 245.289062 444.113281 248.59375 440.542969 251.964844 436.90625 C 255.339844 433.273438 258.890625 429.867188 262.480469 426.472656 C 264.203125 424.761719 266.097656 423.226562 267.953125 421.746094 C 269.808594 420.261719 271.683594 418.84375 273.5625 417.527344 L 272.886719 416.171875 C 273.503906 415.601562 274.027344 415.152344 274.476562 414.800781 L 275.089844 414.335938 C 275.410156 414.023438 275.761719 413.75 276.140625 413.515625 L 278.460938 411.886719 C 279.019531 411.535156 279.515625 411.109375 279.949219 410.609375 C 280.359375 410.011719 280.699219 409.375 281.054688 408.738281 L 281.40625 408.03125 L 281.503906 407.953125 L 283.355469 406.515625 L 290.695312 400.753906 C 295.542969 396.96875 300.367188 393.175781 305.203125 389.386719 C 314.554688 381.988281 324.28125 375.121094 334.382812 368.785156 C 343.859375 362.8125 353.929688 358.105469 364.585938 354.660156 C 374.347656 351.546875 384.335938 350.410156 394.546875 351.25 C 396.382812 351.832031 400.054688 352.148438 403.632812 352.914062 C 404.507812 353.035156 405.484375 353.171875 406.21875 353.464844 L 408.296875 354.109375 C 408.878906 354.277344 409.445312 354.488281 409.996094 354.734375 C 410.382812 354.941406 410.746094 355.183594 411.082031 355.464844 C 414.011719 356.027344 416.835938 356.925781 419.546875 358.167969 C 422.257812 359.410156 424.785156 360.957031 427.125 362.804688 C 432.5 367.011719 437.460938 371.667969 442 376.765625 L 441.515625 376.488281 L 446.40625 381.199219 C 446.527344 381.496094 446.417969 381.644531 446.195312 381.554688 C 449.960938 384.652344 453.492188 387.992188 456.796875 391.578125 C 460.707031 395.5625 464.8125 399.335938 469.105469 402.90625 L 468.527344 402.675781 C 474.574219 407.140625 480.980469 411.003906 487.75 414.269531 C 494.519531 417.53125 501.53125 420.140625 508.789062 422.09375 C 522.90625 425.832031 537.257812 427.328125 551.847656 426.582031 C 566.097656 425.886719 580.058594 423.5 593.730469 419.414062 C 607.523438 415.335938 620.78125 409.941406 633.503906 403.230469 C 636.640625 401.773438 639.65625 400.097656 642.554688 398.210938 C 645.496094 396.390625 648.453125 394.464844 651.433594 392.484375 C 652.925781 391.496094 654.367188 390.4375 655.753906 389.308594 L 659.996094 385.957031 C 662.824219 383.671875 665.722656 381.429688 668.507812 379.019531 C 679.496094 369.140625 690.425781 358.601562 701.0625 347.941406 C 703.515625 346.441406 714.703125 334.03125 724.300781 320.585938 C 731.390625 311.066406 737.835938 301.125 743.628906 290.765625 L 738.511719 295.839844 C 741.320312 291.023438 743.878906 286.933594 746.207031 283.210938 L 752.671875 272.824219 C 757.074219 265.90625 760.984375 258.722656 764.40625 251.273438 L 764.25 252.382812 C 765.117188 251.28125 764.820312 249.886719 766.660156 245.742188 C 768.027344 242.75 769.609375 239.871094 771.394531 237.105469 C 773.777344 233.320312 776.960938 228.484375 781.523438 222.292969 L 781.683594 222.3125 C 781.960938 221.273438 782.460938 220.351562 783.179688 219.546875 L 779.820312 223.71875 C 780.714844 220.453125 781.804688 217.253906 783.085938 214.121094 C 783.660156 213.414062 784.121094 213.316406 784.410156 213.371094 L 788.671875 204.089844 L 791.085938 201.792969 C 791.898438 198.722656 789.105469 198.914062 793.925781 192.03125 C 791.023438 194.109375 794.84375 187.875 793.625 188.421875 C 793.992188 188.128906 794.703125 187.410156 795.328125 186.859375 C 797.339844 182.335938 801.007812 173.773438 801.257812 171.324219 C 801.390625 171.328125 789.6875 187.128906 785.757812 191.015625 Z M 274.316406 401.8125 L 273.0625 400.152344 Z M 274.316406 401.8125 " fill-opacity="1" fill-rule="nonzero"/></g></g></g></svg>