<svg xmlns="http://www.w3.org/2000/svg" xmlns:xlink="http://www.w3.org/1999/xlink" width="1080" zoomAndPan="magnify" viewBox="0 0 810 809.999993" height="1080" preserveAspectRatio="xMidYMid meet" version="1.0"><defs><filter x="0%" y="0%" width="100%" height="100%" id="c4926f9682"><feColorMatrix values="0 0 0 0 1 0 0 0 0 1 0 0 0 0 1 0 0 0 1 0" color-interpolation-filters="sRGB"/></filter><clipPath id="a50f0c852d"><path d="M 518 145 L 542 145 L 542 251 L 518 251 Z M 518 145 " clip-rule="nonzero"/></clipPath><clipPath id="c5b0f22557"><path d="M 487.144531 149.699219 L 670.539062 129.515625 L 687.929688 287.5625 L 504.539062 307.746094 Z M 487.144531 149.699219 " clip-rule="nonzero"/></clipPath><clipPath id="e16a0462c5"><path d="M 303.738281 169.882812 L 670.523438 129.519531 L 687.917969 287.566406 L 321.132812 327.929688 Z M 303.738281 169.882812 " clip-rule="nonzero"/></clipPath><clipPath id="fce919d4db"><path d="M 570 188 L 615 188 L 615 269 L 570 269 Z M 570 188 " clip-rule="nonzero"/></clipPath><clipPath id="fab727fdf7"><path d="M 487.144531 149.699219 L 670.539062 129.515625 L 687.929688 287.5625 L 504.539062 307.746094 Z M 487.144531 149.699219 " clip-rule="nonzero"/></clipPath><clipPath id="31b65e4a7b"><path d="M 303.738281 169.882812 L 670.523438 129.519531 L 687.917969 287.566406 L 321.132812 327.929688 Z M 303.738281 169.882812 " clip-rule="nonzero"/></clipPath><clipPath id="d57fb44e70"><path d="M 610 243 L 684 243 L 684 296 L 610 296 Z M 610 243 " clip-rule="nonzero"/></clipPath><clipPath id="9f05701cb1"><path d="M 487.144531 149.699219 L 670.539062 129.515625 L 687.929688 287.5625 L 504.539062 307.746094 Z M 487.144531 149.699219 " clip-rule="nonzero"/></clipPath><clipPath id="76ef3e8fd5"><path d="M 303.738281 169.882812 L 670.523438 129.519531 L 687.917969 287.566406 L 321.132812 327.929688 Z M 303.738281 169.882812 " clip-rule="nonzero"/></clipPath><clipPath id="f5512d6973"><path d="M 570.664062 615.804688 L 615.664062 615.804688 L 615.664062 661.554688 L 570.664062 661.554688 Z M 570.664062 615.804688 " clip-rule="nonzero"/></clipPath><clipPath id="6471a0e064"><path d="M 626.132812 498.152344 L 671.132812 498.152344 L 671.132812 543.902344 L 626.132812 543.902344 Z M 626.132812 498.152344 " clip-rule="nonzero"/></clipPath><clipPath id="0f28724d85"><path d="M 696.234375 606.878906 L 727.734375 606.878906 L 727.734375 638.378906 L 696.234375 638.378906 Z M 696.234375 606.878906 " clip-rule="nonzero"/></clipPath><mask id="0fe70e7c7c"><g filter="url(#c4926f9682)"><rect x="-81" width="972" fill="#000000" y="-80.999999" height="971.999992" fill-opacity="0.7882"/></g></mask><clipPath id="5b27d808de"><path d="M 69 386 L 70 386 L 70 396 L 69 396 Z M 69 386 " clip-rule="nonzero"/></clipPath><clipPath id="c07064f6ed"><path d="M -72.894531 -54.617188 L 615.835938 -143.949219 L 705.167969 544.78125 L 16.4375 634.113281 Z M -72.894531 -54.617188 " clip-rule="nonzero"/></clipPath><clipPath id="ae905f6a07"><path d="M -72.894531 -54.617188 L 615.835938 -143.949219 L 705.167969 544.78125 L 16.4375 634.113281 Z M -72.894531 -54.617188 " clip-rule="nonzero"/></clipPath><clipPath id="ec63c7a012"><path d="M 552 7 L 557 7 L 557 12 L 552 12 Z M 552 7 " clip-rule="nonzero"/></clipPath><clipPath id="899fc615a5"><path d="M -72.894531 -54.617188 L 615.835938 -143.949219 L 705.167969 544.78125 L 16.4375 634.113281 Z M -72.894531 -54.617188 " clip-rule="nonzero"/></clipPath><clipPath id="8a29bce4bc"><path d="M -72.894531 -54.617188 L 615.835938 -143.949219 L 705.167969 544.78125 L 16.4375 634.113281 Z M -72.894531 -54.617188 " clip-rule="nonzero"/></clipPath><clipPath id="92ea1fd583"><path d="M 550 12 L 552 12 L 552 13 L 550 13 Z M 550 12 " clip-rule="nonzero"/></clipPath><clipPath id="c3efcf5d64"><path d="M -72.894531 -54.617188 L 615.835938 -143.949219 L 705.167969 544.78125 L 16.4375 634.113281 Z M -72.894531 -54.617188 " clip-rule="nonzero"/></clipPath><clipPath id="463926a432"><path d="M -72.894531 -54.617188 L 615.835938 -143.949219 L 705.167969 544.78125 L 16.4375 634.113281 Z M -72.894531 -54.617188 " clip-rule="nonzero"/></clipPath><clipPath id="ddfb037d46"><path d="M 550 12 L 551 12 L 551 14 L 550 14 Z M 550 12 " clip-rule="nonzero"/></clipPath><clipPath id="0cea10bd24"><path d="M -72.894531 -54.617188 L 615.835938 -143.949219 L 705.167969 544.78125 L 16.4375 634.113281 Z M -72.894531 -54.617188 " clip-rule="nonzero"/></clipPath><clipPath id="f3fd973a12"><path d="M -72.894531 -54.617188 L 615.835938 -143.949219 L 705.167969 544.78125 L 16.4375 634.113281 Z M -72.894531 -54.617188 " clip-rule="nonzero"/></clipPath><clipPath id="0c38379258"><path d="M 551 12 L 552 12 L 552 13 L 551 13 Z M 551 12 " clip-rule="nonzero"/></clipPath><clipPath id="3758748c81"><path d="M -72.894531 -54.617188 L 615.835938 -143.949219 L 705.167969 544.78125 L 16.4375 634.113281 Z M -72.894531 -54.617188 " clip-rule="nonzero"/></clipPath><clipPath id="19cb708791"><path d="M -72.894531 -54.617188 L 615.835938 -143.949219 L 705.167969 544.78125 L 16.4375 634.113281 Z M -72.894531 -54.617188 " clip-rule="nonzero"/></clipPath><clipPath id="c9d3d32e2c"><path d="M 550 13 L 551 13 L 551 14 L 550 14 Z M 550 13 " clip-rule="nonzero"/></clipPath><clipPath id="7814dfa45b"><path d="M -72.894531 -54.617188 L 615.835938 -143.949219 L 705.167969 544.78125 L 16.4375 634.113281 Z M -72.894531 -54.617188 " clip-rule="nonzero"/></clipPath><clipPath id="97e972f88e"><path d="M -72.894531 -54.617188 L 615.835938 -143.949219 L 705.167969 544.78125 L 16.4375 634.113281 Z M -72.894531 -54.617188 " clip-rule="nonzero"/></clipPath><clipPath id="d63ec9f8a8"><path d="M 556 7 L 557 7 L 557 8 L 556 8 Z M 556 7 " clip-rule="nonzero"/></clipPath><clipPath id="59b36db64e"><path d="M -72.894531 -54.617188 L 615.835938 -143.949219 L 705.167969 544.78125 L 16.4375 634.113281 Z M -72.894531 -54.617188 " clip-rule="nonzero"/></clipPath><clipPath id="c4324b8476"><path d="M -72.894531 -54.617188 L 615.835938 -143.949219 L 705.167969 544.78125 L 16.4375 634.113281 Z M -72.894531 -54.617188 " clip-rule="nonzero"/></clipPath><clipPath id="ff909ff28b"><path d="M 556 6 L 557 6 L 557 8 L 556 8 Z M 556 6 " clip-rule="nonzero"/></clipPath><clipPath id="30ec699ca3"><path d="M -72.894531 -54.617188 L 615.835938 -143.949219 L 705.167969 544.78125 L 16.4375 634.113281 Z M -72.894531 -54.617188 " clip-rule="nonzero"/></clipPath><clipPath id="06cfa46a41"><path d="M -72.894531 -54.617188 L 615.835938 -143.949219 L 705.167969 544.78125 L 16.4375 634.113281 Z M -72.894531 -54.617188 " clip-rule="nonzero"/></clipPath><clipPath id="ef783a681d"><path d="M 556 6 L 557 6 L 557 7 L 556 7 Z M 556 6 " clip-rule="nonzero"/></clipPath><clipPath id="baf0d11f08"><path d="M -72.894531 -54.617188 L 615.835938 -143.949219 L 705.167969 544.78125 L 16.4375 634.113281 Z M -72.894531 -54.617188 " clip-rule="nonzero"/></clipPath><clipPath id="e594975d60"><path d="M -72.894531 -54.617188 L 615.835938 -143.949219 L 705.167969 544.78125 L 16.4375 634.113281 Z M -72.894531 -54.617188 " clip-rule="nonzero"/></clipPath><clipPath id="9442df2a22"><path d="M 551 12 L 553 12 L 553 13 L 551 13 Z M 551 12 " clip-rule="nonzero"/></clipPath><clipPath id="2fbb4701ef"><path d="M -72.894531 -54.617188 L 615.835938 -143.949219 L 705.167969 544.78125 L 16.4375 634.113281 Z M -72.894531 -54.617188 " clip-rule="nonzero"/></clipPath><clipPath id="9d1032b5dc"><path d="M -72.894531 -54.617188 L 615.835938 -143.949219 L 705.167969 544.78125 L 16.4375 634.113281 Z M -72.894531 -54.617188 " clip-rule="nonzero"/></clipPath><clipPath id="4a88e0bdf0"><path d="M 550 12 L 552 12 L 552 13 L 550 13 Z M 550 12 " clip-rule="nonzero"/></clipPath><clipPath id="e26f8f3076"><path d="M -72.894531 -54.617188 L 615.835938 -143.949219 L 705.167969 544.78125 L 16.4375 634.113281 Z M -72.894531 -54.617188 " clip-rule="nonzero"/></clipPath><clipPath id="ce82465de1"><path d="M -72.894531 -54.617188 L 615.835938 -143.949219 L 705.167969 544.78125 L 16.4375 634.113281 Z M -72.894531 -54.617188 " clip-rule="nonzero"/></clipPath><clipPath id="f3ed7f2839"><path d="M 550 12 L 551 12 L 551 14 L 550 14 Z M 550 12 " clip-rule="nonzero"/></clipPath><clipPath id="cf3fa6615a"><path d="M -72.894531 -54.617188 L 615.835938 -143.949219 L 705.167969 544.78125 L 16.4375 634.113281 Z M -72.894531 -54.617188 " clip-rule="nonzero"/></clipPath><clipPath id="763480c987"><path d="M -72.894531 -54.617188 L 615.835938 -143.949219 L 705.167969 544.78125 L 16.4375 634.113281 Z M -72.894531 -54.617188 " clip-rule="nonzero"/></clipPath><clipPath id="a9669e1ed6"><path d="M 547 13 L 550 13 L 550 15 L 547 15 Z M 547 13 " clip-rule="nonzero"/></clipPath><clipPath id="1e3b26af35"><path d="M -72.894531 -54.617188 L 615.835938 -143.949219 L 705.167969 544.78125 L 16.4375 634.113281 Z M -72.894531 -54.617188 " clip-rule="nonzero"/></clipPath><clipPath id="efd8bd46dd"><path d="M -72.894531 -54.617188 L 615.835938 -143.949219 L 705.167969 544.78125 L 16.4375 634.113281 Z M -72.894531 -54.617188 " clip-rule="nonzero"/></clipPath><clipPath id="2a25b41140"><path d="M 42 12 L 579 12 L 579 400 L 42 400 Z M 42 12 " clip-rule="nonzero"/></clipPath><clipPath id="a02dd33da3"><path d="M -72.894531 -54.617188 L 615.835938 -143.949219 L 705.167969 544.78125 L 16.4375 634.113281 Z M -72.894531 -54.617188 " clip-rule="nonzero"/></clipPath><clipPath id="e1f0a38621"><path d="M -72.894531 -54.617188 L 615.835938 -143.949219 L 705.167969 544.78125 L 16.4375 634.113281 Z M -72.894531 -54.617188 " clip-rule="nonzero"/></clipPath><clipPath id="e431233564"><path d="M 551 11 L 553 11 L 553 13 L 551 13 Z M 551 11 " clip-rule="nonzero"/></clipPath><clipPath id="7844ace732"><path d="M -72.894531 -54.617188 L 615.835938 -143.949219 L 705.167969 544.78125 L 16.4375 634.113281 Z M -72.894531 -54.617188 " clip-rule="nonzero"/></clipPath><clipPath id="e87061fe52"><path d="M -72.894531 -54.617188 L 615.835938 -143.949219 L 705.167969 544.78125 L 16.4375 634.113281 Z M -72.894531 -54.617188 " clip-rule="nonzero"/></clipPath><clipPath id="4d045c4b06"><path d="M 128 443 L 130 443 L 130 451 L 128 451 Z M 128 443 " clip-rule="nonzero"/></clipPath><clipPath id="2bcd12625d"><path d="M -72.894531 -54.617188 L 615.835938 -143.949219 L 705.167969 544.78125 L 16.4375 634.113281 Z M -72.894531 -54.617188 " clip-rule="nonzero"/></clipPath><clipPath id="76dea15fc3"><path d="M -72.894531 -54.617188 L 615.835938 -143.949219 L 705.167969 544.78125 L 16.4375 634.113281 Z M -72.894531 -54.617188 " clip-rule="nonzero"/></clipPath><clipPath id="ccc44a55c6"><path d="M 596 120 L 597 120 L 597 124 L 596 124 Z M 596 120 " clip-rule="nonzero"/></clipPath><clipPath id="759f62acfe"><path d="M -72.894531 -54.617188 L 615.835938 -143.949219 L 705.167969 544.78125 L 16.4375 634.113281 Z M -72.894531 -54.617188 " clip-rule="nonzero"/></clipPath><clipPath id="26a2ba162f"><path d="M -72.894531 -54.617188 L 615.835938 -143.949219 L 705.167969 544.78125 L 16.4375 634.113281 Z M -72.894531 -54.617188 " clip-rule="nonzero"/></clipPath><clipPath id="d815cbbe87"><path d="M 102 118 L 622 118 L 622 455 L 102 455 Z M 102 118 " clip-rule="nonzero"/></clipPath><clipPath id="62748ffd43"><path d="M -72.894531 -54.617188 L 615.835938 -143.949219 L 705.167969 544.78125 L 16.4375 634.113281 Z M -72.894531 -54.617188 " clip-rule="nonzero"/></clipPath><clipPath id="9ed122dc61"><path d="M -72.894531 -54.617188 L 615.835938 -143.949219 L 705.167969 544.78125 L 16.4375 634.113281 Z M -72.894531 -54.617188 " clip-rule="nonzero"/></clipPath><clipPath id="f4d422d56d"><rect x="0" width="654" y="0" height="465"/></clipPath></defs><rect x="-81" width="972" fill="#ffffff" y="-80.999999" height="971.999992" fill-opacity="1"/><rect x="-81" width="972" fill="#ffffff" y="-80.999999" height="971.999992" fill-opacity="1"/><g clip-path="url(#a50f0c852d)"><g clip-path="url(#c5b0f22557)"><g clip-path="url(#e16a0462c5)"><path fill="#ffffff" d="M 536.265625 208.984375 C 535.84375 209.253906 535.425781 209.527344 535.203125 209.550781 C 535.300781 210.441406 535.597656 211.082031 535.695312 211.96875 C 535.769531 212.636719 535.644531 213.550781 535.496094 214.242188 C 535.519531 214.464844 535.320312 214.710938 535.148438 215.179688 C 534.976562 215.648438 534.777344 215.894531 534.824219 216.339844 C 534.921875 217.226562 534.355469 218.1875 534.921875 219.25 C 534.945312 219.472656 534.75 219.71875 534.773438 219.941406 C 533.785156 221.175781 533.980469 222.953125 533.261719 224.605469 C 533.066406 224.851562 533.3125 225.050781 533.136719 225.519531 C 533.210938 226.183594 533.0625 226.875 532.691406 227.589844 C 532.121094 228.554688 532.246094 229.664062 532.144531 230.800781 C 532.195312 231.242188 531.996094 231.488281 531.824219 231.957031 C 531.453125 232.675781 531.082031 233.390625 531.402344 234.253906 C 531.425781 234.476562 531.472656 234.921875 531.253906 234.945312 C 530.042969 236.203125 530.484375 238.175781 529.519531 239.632812 C 529.320312 239.878906 529.148438 240.347656 528.949219 240.59375 C 528.578125 241.308594 528.429688 242 528.058594 242.714844 C 527.6875 243.429688 527.292969 243.925781 526.921875 244.640625 C 525.785156 246.5625 524.648438 248.488281 523.488281 250.191406 C 523.289062 250.4375 523.089844 250.683594 522.894531 250.929688 C 522.84375 250.484375 522.574219 250.066406 522.574219 250.066406 C 521.4375 249.964844 521.585938 249.273438 521.265625 248.410156 C 520.40625 244.683594 519.769531 240.929688 519.328125 236.929688 C 519.183594 235.597656 519.257812 234.242188 519.332031 232.882812 C 519.285156 232.4375 519.210938 231.773438 518.941406 231.351562 C 518.398438 230.511719 518.347656 230.070312 518.941406 229.328125 C 519.335938 228.835938 519.460938 227.921875 519.363281 227.035156 C 519.464844 225.898438 519.5625 224.761719 519.664062 223.628906 C 519.613281 223.183594 519.566406 222.738281 519.515625 222.296875 C 519.640625 221.382812 518.457031 220.835938 519.027344 219.875 C 519.398438 219.160156 519.519531 218.246094 519.890625 217.53125 C 520.089844 217.285156 520.042969 216.839844 520.238281 216.59375 C 519.472656 215.777344 519.597656 214.867188 519.722656 213.953125 C 519.847656 213.039062 519.550781 212.398438 520.121094 211.4375 C 520.691406 210.472656 520.765625 209.117188 520.175781 207.832031 C 519.855469 206.96875 519.78125 206.300781 520.128906 205.363281 C 520.621094 203.734375 520.894531 202.132812 521.167969 200.527344 C 521.34375 200.058594 521.292969 199.613281 521.246094 199.171875 C 521.394531 198.480469 521.515625 197.566406 521.667969 196.875 C 521.789062 195.960938 521.914062 195.050781 522.015625 193.914062 C 522.1875 193.445312 522.113281 192.777344 522.289062 192.308594 C 522.414062 191.398438 522.785156 190.679688 522.4375 189.59375 C 522.019531 187.84375 522.515625 186.214844 522.789062 184.609375 C 522.914062 183.695312 523.484375 182.734375 522.890625 181.449219 C 522.867188 181.226562 522.84375 181.007812 523.039062 180.757812 C 523.585938 179.574219 523.882812 178.195312 523.957031 176.835938 C 523.933594 176.613281 524.132812 176.367188 524.105469 176.144531 C 523.765625 173.035156 523.765625 173.035156 524.78125 170 C 524.953125 169.53125 524.683594 169.109375 524.832031 168.421875 C 524.757812 167.753906 524.882812 166.839844 524.808594 166.175781 C 524.785156 165.953125 524.980469 165.707031 524.957031 165.484375 C 524.808594 164.152344 525.132812 162.992188 525.230469 161.855469 C 525.679688 159.78125 525.210938 157.585938 524.992188 155.585938 C 524.894531 154.699219 524.84375 154.253906 525.957031 154.128906 C 525.710938 153.933594 525.460938 153.734375 525.4375 153.511719 C 525.414062 153.292969 525.144531 152.871094 525.339844 152.625 C 525.710938 151.910156 525.835938 150.996094 525.984375 150.304688 C 525.9375 149.859375 526.578125 149.566406 526.777344 149.320312 C 526.972656 149.070312 527.21875 149.269531 527.417969 149.023438 C 527.789062 148.308594 528.160156 147.59375 528.53125 146.878906 C 528.925781 146.382812 529.566406 146.089844 530.40625 145.546875 C 530.925781 146.164062 531.886719 146.734375 532.652344 147.546875 C 533.070312 147.277344 533.714844 146.980469 534.355469 146.6875 C 535.316406 147.253906 536.304688 148.046875 537.265625 148.613281 L 538.621094 150.714844 C 538.917969 151.355469 539.164062 151.554688 540.027344 151.234375 C 540.175781 152.566406 540.097656 153.921875 541.109375 154.9375 C 541.132812 155.160156 541.160156 155.378906 541.183594 155.601562 C 541.230469 156.046875 541.058594 156.515625 541.132812 157.183594 C 541.230469 158.070312 541.304688 158.738281 540.933594 159.453125 C 540.734375 159.699219 540.5625 160.167969 541.054688 160.5625 C 541.792969 161.15625 541.421875 161.871094 541.050781 162.585938 C 540.308594 164.019531 540.480469 165.574219 541.097656 167.078125 C 541.121094 167.300781 541.394531 167.722656 541.441406 168.167969 C 540.625 168.929688 540.28125 169.867188 540.402344 170.980469 C 540.175781 173.027344 539.953125 175.074219 539.730469 177.125 C 539.753906 177.347656 539.582031 177.816406 539.605469 178.035156 C 539.949219 179.125 539.824219 180.035156 539.476562 180.972656 C 538.984375 182.601562 539.152344 184.15625 539.324219 185.710938 C 539.375 186.15625 538.78125 186.898438 539.519531 187.488281 C 539.765625 187.6875 539.644531 188.601562 539.445312 188.847656 C 538.40625 189.636719 538.800781 191.167969 538.453125 192.105469 C 538.257812 192.351562 538.332031 193.015625 538.550781 192.992188 C 539.5625 194.007812 538.550781 195.015625 538.671875 196.128906 C 538.722656 196.570312 537.832031 196.671875 537.90625 197.335938 C 538.273438 198.644531 537.953125 199.804688 537.851562 200.941406 C 537.902344 201.382812 537.730469 201.851562 537.554688 202.320312 C 537.578125 202.542969 537.183594 203.039062 537.429688 203.234375 C 537.230469 205.503906 535.824219 207.007812 536.265625 208.984375 Z M 536.265625 208.984375 " fill-opacity="1" fill-rule="nonzero"/></g></g></g><g clip-path="url(#fce919d4db)"><g clip-path="url(#fab727fdf7)"><g clip-path="url(#31b65e4a7b)"><path fill="#ffffff" d="M 572.089844 268.898438 C 571.351562 268.308594 571.078125 267.886719 570.363281 267.515625 C 570.4375 266.160156 570.710938 264.554688 570.738281 262.753906 C 571.136719 260.234375 571.753906 257.695312 572.152344 255.175781 C 572.128906 254.953125 572.300781 254.484375 572.5 254.238281 C 573.289062 253.253906 573.613281 252.09375 573.910156 250.710938 C 574.035156 249.796875 573.9375 248.910156 574.777344 248.367188 C 575.195312 248.097656 575.148438 247.652344 575.320312 247.183594 C 575.519531 246.9375 575.46875 246.492188 575.667969 246.246094 C 576.679688 245.234375 576.753906 243.878906 576.632812 242.765625 C 576.535156 241.878906 577.203125 241.804688 577.375 241.335938 C 577.523438 240.644531 577.179688 239.558594 578.289062 239.4375 C 577.773438 238.820312 578.414062 238.523438 578.589844 238.054688 C 578.761719 237.585938 579.132812 236.871094 579.726562 236.128906 C 579.800781 234.773438 580.542969 233.34375 581.507812 231.886719 C 580.964844 231.046875 580.867188 230.160156 581.730469 229.839844 C 582.59375 229.519531 582.769531 229.050781 582.695312 228.382812 C 582.671875 228.160156 582.867188 227.914062 582.84375 227.691406 C 583.929688 227.347656 583.414062 226.730469 583.117188 226.089844 C 583.957031 225.546875 585.042969 225.203125 584.898438 223.867188 C 584.847656 223.425781 585.464844 222.90625 585.859375 222.414062 C 586.480469 221.894531 584.851562 221.402344 585.960938 221.277344 C 585.171875 220.242188 586.257812 219.898438 586.875 219.378906 C 587.097656 219.355469 587.074219 219.132812 587.296875 219.109375 C 587.050781 218.910156 587.023438 218.6875 586.777344 218.492188 C 586.976562 218.242188 587.199219 218.21875 587.394531 217.972656 C 586.679688 217.601562 587.296875 217.085938 587.296875 217.085938 C 588.582031 216.492188 588.410156 214.9375 589.226562 214.171875 C 590.238281 213.164062 590.339844 212.027344 590.660156 210.867188 C 591.007812 209.929688 591.847656 209.386719 591.28125 208.328125 C 591.257812 208.105469 591.652344 207.609375 591.851562 207.363281 C 593.308594 206.304688 593.308594 204.28125 594.050781 202.851562 C 594.222656 202.382812 594.375 201.691406 594.570312 201.445312 C 595.386719 200.679688 595.953125 199.71875 596.992188 198.929688 C 598.226562 197.894531 598.574219 196.957031 598.648438 195.597656 C 598.625 195.375 598.601562 195.152344 598.796875 194.90625 C 600.527344 194.265625 600.699219 193.796875 600.332031 192.488281 C 601.121094 191.503906 602.652344 191.109375 602.257812 189.578125 C 602.902344 189.285156 603.320312 189.011719 603.742188 188.742188 C 604.234375 189.136719 604.726562 189.53125 605.417969 189.683594 C 605.839844 189.410156 606.035156 189.164062 606.480469 189.113281 C 606.925781 189.066406 607.394531 189.238281 607.835938 189.191406 C 607.863281 189.414062 607.910156 189.855469 607.960938 190.300781 C 608.578125 189.785156 609.21875 189.488281 609.835938 188.96875 C 610.332031 189.367188 610.601562 189.785156 611.117188 190.402344 C 611.515625 189.910156 611.710938 189.664062 611.910156 189.417969 C 612.847656 189.761719 612.476562 190.480469 612.328125 191.167969 C 613.265625 191.515625 613.980469 191.886719 613.4375 193.070312 C 613.460938 193.292969 613.507812 193.738281 613.507812 193.738281 C 615.164062 194.457031 614.222656 196.132812 614.789062 197.195312 C 615.035156 197.390625 614.664062 198.109375 614.46875 198.355469 C 613.75 200.007812 613.476562 201.613281 613.203125 203.214844 C 613.054688 203.90625 612.90625 204.597656 612.289062 205.113281 C 610.855469 206.398438 611.320312 208.59375 610.136719 210.074219 C 609.148438 211.308594 608.898438 213.132812 608.15625 214.5625 C 607.613281 215.746094 606.820312 216.734375 606.277344 217.917969 C 605.558594 219.570312 604.101562 220.632812 603.855469 222.457031 C 603.878906 222.679688 603.457031 222.949219 603.261719 223.195312 C 602.890625 223.914062 602.074219 224.675781 602.617188 225.515625 C 602.910156 226.160156 602.738281 226.628906 601.898438 227.167969 C 600.863281 227.957031 600.046875 228.722656 599.503906 229.90625 C 599.132812 230.621094 598.980469 231.3125 598.832031 232.003906 C 598.117188 233.65625 597.347656 234.867188 595.546875 236.863281 C 594.730469 237.628906 594.410156 238.785156 593.839844 239.75 C 593.667969 240.21875 593.269531 240.710938 592.875 241.203125 C 593.6875 242.464844 592.230469 243.523438 591.910156 244.683594 C 591.167969 246.113281 589.710938 247.171875 589.238281 249.023438 C 589.265625 249.246094 588.820312 249.296875 588.621094 249.542969 C 588.425781 249.789062 588.203125 249.8125 588.226562 250.035156 C 587.382812 252.601562 587.410156 252.824219 586.394531 253.835938 C 584.9375 254.894531 584.222656 256.546875 583.257812 258.003906 C 583.058594 258.25 583.058594 258.25 583.082031 258.472656 C 580.882812 260.960938 579.425781 264.046875 576.484375 265.941406 C 574.78125 266.804688 573.546875 267.839844 572.089844 268.898438 Z M 572.089844 268.898438 " fill-opacity="1" fill-rule="nonzero"/></g></g></g><g clip-path="url(#d57fb44e70)"><g clip-path="url(#9f05701cb1)"><g clip-path="url(#76ef3e8fd5)"><path fill="#ffffff" d="M 610.316406 295.496094 C 610.910156 294.757812 611.75 294.214844 611.429688 293.351562 C 611.207031 293.375 610.765625 293.425781 610.542969 293.449219 C 610.542969 293.449219 610.519531 293.226562 610.519531 293.226562 C 612.222656 290.339844 614.421875 287.851562 616.84375 285.335938 C 617.859375 284.324219 618.847656 283.089844 620.082031 282.054688 C 621.515625 280.773438 622.972656 279.714844 624.625 278.40625 C 625.246094 277.890625 625.863281 277.371094 626.480469 276.855469 C 626.875 276.363281 627.492188 275.84375 627.886719 275.351562 C 629.148438 274.539062 630.652344 273.921875 631.890625 272.886719 C 633.125 271.851562 634.113281 270.617188 635.125 269.609375 C 635.519531 269.113281 636.136719 268.597656 636.78125 268.300781 C 638.238281 267.242188 639.941406 266.378906 641.398438 265.320312 C 642.632812 264.285156 643.871094 263.25 645.105469 262.214844 C 645.917969 261.449219 646.757812 260.90625 647.597656 260.363281 C 648.21875 259.847656 649.105469 259.75 649.453125 258.8125 C 649.453125 258.8125 649.648438 258.566406 649.648438 258.566406 C 652.042969 257.851562 653.453125 256.347656 655.058594 254.597656 C 655.257812 254.351562 655.703125 254.300781 656.144531 254.253906 C 656.566406 253.980469 657.453125 253.882812 657.652344 253.636719 C 658.589844 251.960938 660.097656 251.34375 661.605469 250.730469 C 662.46875 250.410156 663.085938 249.890625 663.925781 249.347656 C 664.742188 248.585938 665.582031 248.042969 666.691406 247.921875 C 667.359375 247.847656 668.199219 247.304688 668.566406 246.589844 C 669.929688 244.640625 672.347656 244.148438 674.496094 243.238281 C 675.78125 242.648438 677.210938 243.390625 678.074219 243.070312 C 679.257812 243.613281 680.195312 243.960938 681.132812 244.308594 C 682.070312 244.652344 682.144531 245.320312 682.21875 245.988281 C 682.339844 247.097656 682.660156 247.960938 683.621094 248.53125 C 683.472656 249.222656 683.546875 249.886719 683.375 250.355469 C 683.25 251.269531 683.101562 251.960938 682.507812 252.699219 C 682.113281 253.195312 681.714844 253.6875 681.566406 254.378906 C 681 255.339844 680.652344 256.277344 679.292969 256.203125 C 679.292969 256.203125 679.074219 256.226562 679.074219 256.226562 C 677.960938 258.371094 675.292969 258.667969 673.664062 260.195312 C 672.648438 261.207031 671.367188 261.796875 671.070312 263.179688 C 670.203125 263.5 669.363281 264.039062 668.5 264.359375 C 666.550781 265.023438 664.820312 265.664062 663.660156 267.367188 C 663.460938 267.613281 662.820312 267.910156 662.375 267.957031 C 661.511719 268.277344 660.375 268.179688 659.808594 269.140625 C 658.226562 269.089844 657.511719 270.742188 655.957031 270.914062 C 654.84375 271.035156 654.027344 271.800781 653.460938 272.761719 C 653.066406 273.253906 652.449219 273.773438 651.757812 273.625 C 650.421875 273.769531 649.140625 274.359375 648.125 275.371094 C 647.507812 275.890625 646.421875 276.234375 645.804688 276.75 C 644.148438 278.058594 641.976562 278.746094 640.050781 279.632812 C 639.210938 280.175781 638.371094 280.71875 637.308594 281.285156 C 636.46875 281.828125 635.605469 282.148438 634.765625 282.6875 C 634.347656 282.960938 633.902344 283.007812 633.480469 283.28125 C 630.789062 285.375 627.332031 286.65625 624.640625 288.75 C 622.984375 290.054688 621.035156 290.71875 619.355469 291.804688 C 617.257812 293.160156 614.589844 293.453125 612.492188 294.808594 C 612.09375 295.300781 611.207031 295.398438 610.316406 295.496094 Z M 610.316406 295.496094 " fill-opacity="1" fill-rule="nonzero"/></g></g></g><g clip-path="url(#f5512d6973)"><path fill="#ffffff" d="M 595.101562 616.332031 C 595.019531 616.007812 594.710938 615.8125 594.386719 615.894531 C 594.171875 615.941406 593.992188 616.121094 593.945312 616.332031 C 592.902344 620.234375 590.324219 627.433594 584.652344 631.839844 C 580.707031 634.894531 576.089844 637.007812 571.199219 638 C 570.875 638.0625 570.664062 638.371094 570.726562 638.699219 C 570.777344 638.925781 570.941406 639.089844 571.152344 639.152344 C 575.128906 640.257812 582.042969 642.679688 585.546875 646.792969 C 588.320312 650.042969 590.78125 658.1875 591.859375 662.167969 C 591.957031 662.476562 592.28125 662.671875 592.589844 662.574219 C 592.789062 662.527344 592.949219 662.363281 593 662.167969 C 594.109375 658.121094 596.976562 649.75 602.339844 646.191406 C 607.136719 643.003906 612.464844 641.414062 615.484375 640.699219 C 615.808594 640.617188 615.988281 640.289062 615.90625 639.964844 C 615.859375 639.769531 615.710938 639.609375 615.515625 639.558594 C 611.878906 638.488281 605.113281 636.066406 602.339844 632.441406 C 598.039062 626.816406 595.984375 620.039062 595.101562 616.332031 Z M 625.25 649.734375 C 625.199219 649.539062 625.003906 649.425781 624.808594 649.476562 C 624.679688 649.507812 624.582031 649.605469 624.546875 649.734375 C 623.914062 652.125 622.332031 656.527344 618.859375 659.210938 C 616.445312 661.082031 613.625 662.363281 610.625 662.964844 C 610.429688 663 610.296875 663.195312 610.347656 663.386719 C 610.378906 663.519531 610.476562 663.632812 610.609375 663.664062 C 613.039062 664.347656 617.277344 665.808594 619.414062 668.328125 C 621.109375 670.3125 622.609375 675.304688 623.277344 677.742188 C 623.324219 677.9375 623.539062 678.050781 623.714844 678 C 623.847656 677.96875 623.929688 677.871094 623.976562 677.742188 C 624.664062 675.269531 626.40625 670.148438 629.683594 667.972656 C 632.617188 666.023438 635.878906 665.046875 637.722656 664.609375 C 637.917969 664.558594 638.03125 664.363281 637.984375 664.167969 C 637.949219 664.039062 637.851562 663.941406 637.738281 663.910156 C 635.503906 663.242188 631.378906 661.78125 629.683594 659.550781 C 627.042969 656.15625 625.789062 652.011719 625.25 649.734375 Z M 637.167969 622.558594 C 637.136719 622.425781 637.003906 622.347656 636.875 622.378906 C 636.792969 622.394531 636.726562 622.460938 636.695312 622.558594 C 636.269531 624.148438 635.226562 627.058594 632.914062 628.847656 C 631.316406 630.082031 629.441406 630.945312 627.449219 631.351562 C 627.320312 631.382812 627.238281 631.496094 627.253906 631.628906 C 627.269531 631.726562 627.335938 631.789062 627.433594 631.804688 C 629.046875 632.261719 631.851562 633.238281 633.289062 634.910156 C 634.414062 636.226562 635.40625 639.542969 635.847656 641.152344 C 635.878906 641.28125 636.011719 641.347656 636.140625 641.316406 C 636.222656 641.296875 636.289062 641.234375 636.304688 641.152344 C 636.761719 639.511719 637.917969 636.113281 640.101562 634.667969 C 642.042969 633.367188 644.210938 632.734375 645.449219 632.441406 C 645.582031 632.40625 645.664062 632.277344 645.628906 632.148438 C 645.613281 632.066406 645.546875 632 645.464844 631.96875 C 643.984375 631.53125 641.242188 630.554688 640.117188 629.074219 C 638.375 626.816406 637.527344 624.070312 637.167969 622.558594 Z M 637.167969 622.558594 " fill-opacity="1" fill-rule="nonzero"/></g><g clip-path="url(#6471a0e064)"><path fill="#ffffff" d="M 650.574219 498.679688 C 650.492188 498.355469 650.179688 498.160156 649.855469 498.242188 C 649.644531 498.289062 649.464844 498.46875 649.414062 498.679688 C 648.371094 502.582031 645.796875 509.78125 640.121094 514.1875 C 636.175781 517.242188 631.5625 519.355469 626.671875 520.347656 C 626.34375 520.410156 626.132812 520.71875 626.199219 521.046875 C 626.246094 521.273438 626.410156 521.4375 626.621094 521.5 C 630.601562 522.605469 637.511719 525.027344 641.019531 529.140625 C 643.789062 532.390625 646.253906 540.535156 647.328125 544.515625 C 647.425781 544.824219 647.753906 545.019531 648.0625 544.921875 C 648.257812 544.875 648.421875 544.710938 648.46875 544.515625 C 649.578125 540.46875 652.449219 532.097656 657.8125 528.539062 C 662.605469 525.351562 667.9375 523.761719 670.953125 523.042969 C 671.277344 522.964844 671.457031 522.636719 671.378906 522.3125 C 671.328125 522.117188 671.179688 521.957031 670.984375 521.90625 C 667.351562 520.835938 660.582031 518.414062 657.8125 514.789062 C 653.507812 509.164062 651.453125 502.386719 650.574219 498.679688 Z M 680.71875 532.082031 C 680.671875 531.886719 680.476562 531.773438 680.277344 531.820312 C 680.148438 531.855469 680.050781 531.953125 680.019531 532.082031 C 679.382812 534.472656 677.800781 538.875 674.328125 541.558594 C 671.914062 543.429688 669.09375 544.710938 666.09375 545.3125 C 665.898438 545.347656 665.769531 545.539062 665.816406 545.734375 C 665.851562 545.867188 665.949219 545.980469 666.078125 546.011719 C 668.507812 546.695312 672.746094 548.15625 674.882812 550.675781 C 676.578125 552.660156 678.078125 557.652344 678.746094 560.089844 C 678.796875 560.285156 679.007812 560.398438 679.1875 560.347656 C 679.316406 560.316406 679.398438 560.21875 679.449219 560.089844 C 680.132812 557.617188 681.878906 552.496094 685.152344 550.320312 C 688.089844 548.371094 691.351562 547.394531 693.191406 546.957031 C 693.386719 546.90625 693.503906 546.710938 693.453125 546.515625 C 693.421875 546.386719 693.324219 546.289062 693.207031 546.257812 C 690.976562 545.589844 686.851562 544.125 685.152344 541.898438 C 682.511719 538.503906 681.257812 534.359375 680.71875 532.082031 Z M 692.636719 504.90625 C 692.605469 504.773438 692.476562 504.695312 692.34375 504.726562 C 692.261719 504.742188 692.199219 504.808594 692.164062 504.90625 C 691.742188 506.496094 690.699219 509.40625 688.382812 511.195312 C 686.785156 512.429688 684.910156 513.292969 682.921875 513.699219 C 682.789062 513.730469 682.707031 513.84375 682.726562 513.976562 C 682.742188 514.074219 682.804688 514.136719 682.902344 514.152344 C 684.519531 514.609375 687.324219 515.585938 688.757812 517.257812 C 689.882812 518.574219 690.878906 521.890625 691.316406 523.5 C 691.351562 523.628906 691.480469 523.695312 691.609375 523.664062 C 691.691406 523.644531 691.757812 523.582031 691.773438 523.5 C 692.230469 521.859375 693.386719 518.460938 695.574219 517.015625 C 697.511719 515.714844 699.679688 515.082031 700.921875 514.789062 C 701.050781 514.753906 701.132812 514.625 701.101562 514.496094 C 701.082031 514.414062 701.019531 514.347656 700.9375 514.316406 C 699.453125 513.878906 696.714844 512.902344 695.589844 511.421875 C 693.84375 509.164062 692.996094 506.417969 692.636719 504.90625 Z M 692.636719 504.90625 " fill-opacity="1" fill-rule="nonzero"/></g><g clip-path="url(#0f28724d85)"><path fill="#ffffff" d="M 713.097656 607.246094 C 713.042969 607.019531 712.828125 606.882812 712.605469 606.9375 C 712.457031 606.972656 712.332031 607.097656 712.300781 607.246094 C 711.578125 609.972656 709.800781 615.003906 705.886719 618.082031 C 703.164062 620.21875 699.980469 621.695312 696.605469 622.386719 C 696.382812 622.433594 696.234375 622.648438 696.28125 622.875 C 696.3125 623.035156 696.425781 623.148438 696.574219 623.195312 C 699.316406 623.964844 704.085938 625.660156 706.507812 628.53125 C 708.417969 630.804688 710.117188 636.496094 710.859375 639.277344 C 710.925781 639.496094 711.152344 639.632812 711.367188 639.5625 C 711.5 639.527344 711.613281 639.414062 711.648438 639.277344 C 712.414062 636.449219 714.390625 630.601562 718.09375 628.113281 C 721.402344 625.886719 725.078125 624.773438 727.160156 624.273438 C 727.386719 624.214844 727.511719 623.988281 727.453125 623.761719 C 727.417969 623.625 727.320312 623.511719 727.183594 623.476562 C 724.675781 622.726562 720.007812 621.035156 718.09375 618.503906 C 715.125 614.570312 713.707031 609.835938 713.097656 607.246094 Z M 733.898438 630.589844 C 733.867188 630.453125 733.730469 630.375 733.597656 630.40625 C 733.507812 630.429688 733.4375 630.5 733.417969 630.589844 C 732.976562 632.257812 731.886719 635.335938 729.488281 637.210938 C 727.824219 638.519531 725.878906 639.414062 723.808594 639.835938 C 723.671875 639.859375 723.582031 639.996094 723.617188 640.132812 C 723.640625 640.222656 723.707031 640.300781 723.796875 640.324219 C 725.472656 640.800781 728.398438 641.824219 729.871094 643.585938 C 731.042969 644.96875 732.078125 648.457031 732.539062 650.160156 C 732.574219 650.296875 732.71875 650.378906 732.84375 650.34375 C 732.933594 650.320312 732.988281 650.253906 733.023438 650.160156 C 733.496094 648.433594 734.699219 644.855469 736.960938 643.335938 C 738.984375 641.972656 741.234375 641.289062 742.507812 640.984375 C 742.640625 640.949219 742.71875 640.8125 742.6875 640.675781 C 742.664062 640.585938 742.597656 640.515625 742.515625 640.496094 C 740.976562 640.027344 738.128906 639.007812 736.960938 637.449219 C 735.136719 635.074219 734.269531 632.179688 733.898438 630.589844 Z M 742.125 611.597656 C 742.101562 611.503906 742.011719 611.449219 741.921875 611.472656 C 741.863281 611.480469 741.820312 611.527344 741.796875 611.597656 C 741.503906 612.710938 740.785156 614.742188 739.1875 615.992188 C 738.085938 616.855469 736.792969 617.457031 735.417969 617.742188 C 735.328125 617.765625 735.273438 617.84375 735.285156 617.933594 C 735.292969 618.003906 735.339844 618.046875 735.40625 618.058594 C 736.519531 618.378906 738.457031 619.058594 739.445312 620.230469 C 740.222656 621.148438 740.910156 623.464844 741.210938 624.589844 C 741.234375 624.683594 741.324219 624.726562 741.414062 624.703125 C 741.472656 624.695312 741.515625 624.648438 741.527344 624.589844 C 741.84375 623.445312 742.640625 621.070312 744.148438 620.058594 C 745.488281 619.148438 746.984375 618.707031 747.839844 618.503906 C 747.929688 618.480469 747.984375 618.390625 747.960938 618.296875 C 747.949219 618.242188 747.90625 618.195312 747.851562 618.171875 C 746.824219 617.867188 744.9375 617.183594 744.160156 616.152344 C 742.957031 614.570312 742.371094 612.652344 742.125 611.597656 Z M 742.125 611.597656 " fill-opacity="1" fill-rule="nonzero"/></g><path stroke-linecap="butt" transform="matrix(0.750181, 0, 0, 0.75, 0.0000035, 17.032988)" fill="none" stroke-linejoin="miter" d="M -0.00000466554 3.497683 L 1166.718847 3.497683 " stroke="#ffffff" stroke-width="7" stroke-opacity="1" stroke-miterlimit="4"/><path stroke-linecap="butt" transform="matrix(0.750181, 0, 0, 0.75, -45.599778, 784.825421)" fill="none" stroke-linejoin="miter" d="M -0.00237849 3.498398 L 1166.72168 3.498398 " stroke="#ffffff" stroke-width="7" stroke-opacity="1" stroke-miterlimit="4"/><path stroke-linecap="butt" transform="matrix(0.000000000000000046, -0.750181, 0.75, 0.000000000000000046, 783.498708, 809.999163)" fill="none" stroke-linejoin="miter" d="M -0.0011154 3.501723 L 1166.722943 3.501723 " stroke="#ffffff" stroke-width="7" stroke-opacity="1" stroke-miterlimit="4"/><g mask="url(#0fe70e7c7c)"><g transform="matrix(1, 0, 0, 1, 50, 153)"><g clip-path="url(#f4d422d56d)"><g clip-path="url(#5b27d808de)"><g clip-path="url(#c07064f6ed)"><g clip-path="url(#ae905f6a07)"><path fill="#737373" d="M 69.132812 395.710938 C 69.429688 394.386719 69.574219 393.046875 69.5625 391.691406 C 69.667969 390.125 69.777344 388.386719 69.84375 386.710938 C 69.488281 388.0625 69.238281 389.429688 69.085938 390.816406 C 68.972656 392.449219 68.988281 394.082031 69.132812 395.710938 Z M 69.132812 395.710938 " fill-opacity="1" fill-rule="nonzero"/></g></g></g><g clip-path="url(#ec63c7a012)"><g clip-path="url(#899fc615a5)"><g clip-path="url(#8a29bce4bc)"><path fill="#737373" d="M 552.339844 11.957031 L 552.582031 11.769531 L 552.789062 11.632812 L 552.871094 11.621094 L 553.25 11.304688 C 553.566406 11.039062 553.867188 10.777344 554.15625 10.515625 L 554.605469 10.078125 L 555.035156 9.632812 C 555.167969 9.492188 555.289062 9.34375 555.398438 9.191406 L 555.796875 8.679688 L 555.925781 8.480469 L 555.914062 8.398438 C 556.054688 8.1875 556.175781 7.964844 556.277344 7.734375 L 556.207031 7.855469 C 556.3125 7.640625 556.398438 7.421875 556.457031 7.191406 C 556.386719 7.429688 556.292969 7.664062 556.183594 7.886719 L 556.082031 8.082031 C 556.003906 8.234375 555.917969 8.378906 555.816406 8.523438 L 555.601562 8.816406 L 555.472656 8.988281 L 555.253906 9.253906 C 554.804688 9.777344 554.320312 10.269531 553.808594 10.730469 L 553.90625 10.632812 L 553.667969 10.84375 L 553.792969 10.730469 L 553.640625 10.863281 L 553.277344 11.175781 L 553.371094 11.164062 L 553.257812 11.261719 L 553.046875 11.445312 L 552.90625 11.558594 L 553.046875 11.445312 L 552.691406 11.726562 L 552.472656 11.882812 Z M 552.339844 11.957031 " fill-opacity="1" fill-rule="nonzero"/></g></g></g><g clip-path="url(#92ea1fd583)"><g clip-path="url(#c3efcf5d64)"><g clip-path="url(#463926a432)"><path fill="#737373" d="M 551.222656 12.71875 L 550.925781 12.910156 Z M 551.222656 12.71875 " fill-opacity="1" fill-rule="nonzero"/></g></g></g><g clip-path="url(#ddfb037d46)"><g clip-path="url(#0cea10bd24)"><g clip-path="url(#f3fd973a12)"><path fill="#737373" d="M 550.757812 13.03125 L 550.992188 12.886719 L 550.839844 12.90625 Z M 550.757812 13.03125 " fill-opacity="1" fill-rule="nonzero"/></g></g></g><g clip-path="url(#0c38379258)"><g clip-path="url(#3758748c81)"><g clip-path="url(#19cb708791)"><path fill="#737373" d="M 551.414062 12.59375 L 551.597656 12.488281 Z M 551.414062 12.59375 " fill-opacity="1" fill-rule="nonzero"/></g></g></g><g clip-path="url(#c9d3d32e2c)"><g clip-path="url(#7814dfa45b)"><g clip-path="url(#97e972f88e)"><path fill="#737373" d="M 550.441406 13.183594 L 550.6875 13.039062 L 550.480469 13.164062 Z M 550.441406 13.183594 " fill-opacity="1" fill-rule="nonzero"/></g></g></g><g clip-path="url(#d63ec9f8a8)"><g clip-path="url(#59b36db64e)"><g clip-path="url(#c4324b8476)"><path fill="#737373" d="M 556.730469 7.140625 C 556.730469 7.140625 556.746094 7.265625 556.757812 7.335938 C 556.742188 7.273438 556.734375 7.207031 556.730469 7.140625 Z M 556.730469 7.140625 " fill-opacity="1" fill-rule="nonzero"/><path fill="#737373" d="M 556.839844 7.449219 C 556.882812 7.546875 556.933594 7.636719 556.988281 7.726562 C 556.933594 7.636719 556.882812 7.546875 556.839844 7.449219 Z M 556.839844 7.449219 " fill-opacity="1" fill-rule="nonzero"/><path fill="#737373" d="M 556.730469 7.140625 L 556.71875 7.03125 C 556.722656 7.070312 556.730469 7.105469 556.730469 7.140625 Z M 556.730469 7.140625 " fill-opacity="1" fill-rule="nonzero"/></g></g></g><g clip-path="url(#ff909ff28b)"><g clip-path="url(#30ec699ca3)"><g clip-path="url(#06cfa46a41)"><path fill="#737373" d="M 556.652344 6.859375 C 556.640625 6.777344 556.644531 6.789062 556.675781 7.039062 C 556.664062 6.828125 556.640625 6.761719 556.652344 6.859375 Z M 556.652344 6.859375 " fill-opacity="1" fill-rule="nonzero"/></g></g></g><g clip-path="url(#ef783a681d)"><g clip-path="url(#baf0d11f08)"><g clip-path="url(#e594975d60)"><path fill="#737373" d="M 556.683594 6.996094 C 556.667969 6.9375 556.660156 6.875 556.660156 6.816406 C 556.660156 6.875 556.667969 6.9375 556.683594 6.996094 Z M 556.683594 6.996094 " fill-opacity="1" fill-rule="nonzero"/></g></g></g><g clip-path="url(#9442df2a22)"><g clip-path="url(#2fbb4701ef)"><g clip-path="url(#9d1032b5dc)"><path fill="#737373" d="M 551.597656 12.488281 C 551.882812 12.308594 552.097656 12.140625 552.277344 12.007812 L 551.582031 12.488281 Z M 551.597656 12.488281 " fill-opacity="1" fill-rule="nonzero"/></g></g></g><g clip-path="url(#4a88e0bdf0)"><g clip-path="url(#e26f8f3076)"><g clip-path="url(#ce82465de1)"><path fill="#737373" d="M 551.222656 12.71875 L 551.414062 12.59375 L 551.320312 12.605469 L 551.566406 12.449219 L 551.265625 12.640625 L 550.839844 12.90625 L 551.265625 12.640625 Z M 551.222656 12.71875 " fill-opacity="1" fill-rule="nonzero"/></g></g></g><g clip-path="url(#f3ed7f2839)"><g clip-path="url(#cf3fa6615a)"><g clip-path="url(#763480c987)"><path fill="#737373" d="M 550.886719 12.941406 L 550.484375 13.175781 L 550.75 12.960938 Z M 550.886719 12.941406 " fill-opacity="1" fill-rule="nonzero"/></g></g></g><g clip-path="url(#a9669e1ed6)"><g clip-path="url(#1e3b26af35)"><g clip-path="url(#efd8bd46dd)"><path fill="#737373" d="M 548.421875 14.019531 L 549.179688 13.921875 L 547.488281 14.28125 L 548.429688 14.074219 Z M 548.421875 14.019531 " fill-opacity="1" fill-rule="nonzero"/></g></g></g><g clip-path="url(#2a25b41140)"><g clip-path="url(#a02dd33da3)"><g clip-path="url(#e1f0a38621)"><path fill="#737373" d="M 98.3125 315.71875 C 102.5625 310.363281 107.128906 305.292969 112.011719 300.507812 C 112.652344 300.257812 112.046875 300.769531 111.59375 301.402344 C 117.148438 295.847656 123.058594 290.703125 129.328125 285.964844 C 130.335938 285.363281 131.417969 284.957031 132.574219 284.746094 C 131.871094 284.835938 140.507812 278.660156 150.164062 273.402344 C 152.570312 272.070312 155.058594 270.847656 157.371094 269.667969 L 163.875 266.597656 C 167.859375 264.917969 170.511719 263.761719 170.648438 263.742188 L 170.742188 262.511719 C 178.742188 259.386719 173.46875 262.691406 180.796875 259.808594 C 183.144531 257.164062 193.304688 255.804688 195.695312 254.261719 C 195.710938 254.371094 199.417969 253.371094 199.320312 253.917969 C 200.253906 252.800781 203.121094 252.652344 205.453125 251.859375 C 206.265625 251.417969 204.757812 251.769531 204.03125 251.679688 L 209.421875 250.058594 C 211.625 249.773438 212.238281 250.167969 209.96875 250.8125 C 213.566406 250.039062 220.632812 248.574219 229.488281 247.203125 C 238.34375 245.832031 249.035156 244.667969 259.777344 244.015625 C 270.519531 243.367188 281.320312 243.378906 290.414062 243.742188 C 299.507812 244.101562 307.171875 244.664062 311.300781 244.839844 C 309.21875 244.03125 304.203125 244.109375 302.308594 242.996094 C 306.652344 242.699219 308.644531 243.574219 310.621094 243.164062 C 312.230469 244.777344 320.21875 244.257812 323.472656 246.035156 L 324.777344 245.292969 L 326.953125 245.976562 C 336.792969 246.253906 338.054688 246.160156 338.894531 246.25 C 339.730469 246.335938 340.335938 246.566406 349.289062 247.015625 C 353.453125 247.09375 357.609375 246.914062 361.753906 246.476562 C 364.738281 246.164062 367.726562 246.011719 370.726562 246.011719 C 369.847656 246.042969 367.511719 245.632812 370.226562 245.28125 C 370.726562 246 377.457031 244.441406 378.820312 245.019531 C 380.199219 244.839844 382.972656 244.648438 385.09375 244.359375 C 387.214844 244.070312 388.597656 243.625 387.097656 243.289062 C 388.542969 243.644531 396.300781 242.976562 391.789062 243.925781 C 394.109375 243.8125 396.402344 243.511719 398.675781 243.03125 L 395.324219 243.230469 C 404 241.867188 408.875 241.765625 414.316406 239.757812 C 413.242188 239.898438 412.136719 239.914062 411.054688 239.984375 C 416.199219 238.9375 420.445312 237.871094 422.695312 238.476562 L 417.476562 239.9375 C 421.757812 239.042969 425.144531 238.15625 428.332031 237.253906 C 431.523438 236.347656 434.5 235.332031 437.925781 234.089844 L 435.421875 234.777344 C 439.757812 233.125 453.398438 228.441406 466.335938 222.367188 C 479.273438 216.289062 491.53125 209.292969 494.832031 206.539062 L 491.066406 207.757812 L 497.042969 203.632812 C 496.296875 204.039062 495.269531 207.5625 494.503906 207.703125 C 497.921875 205.859375 504.832031 201.796875 513.179688 195.980469 C 522.847656 189.300781 531.710938 181.691406 539.773438 173.144531 C 544.035156 168.574219 547.9375 163.71875 551.484375 158.574219 C 554.710938 153.871094 557.59375 148.964844 560.121094 143.851562 C 563.347656 137.242188 566.167969 130.460938 568.574219 123.511719 C 570.78125 117.957031 570.101562 122.867188 570.199219 122.980469 C 570.75 121.355469 571.078125 119.6875 571.175781 117.976562 C 571.28125 116.5625 571.566406 115.183594 572.042969 113.847656 C 572.609375 112.273438 572.554688 114.339844 572.410156 115.28125 C 573.039062 112.667969 573.894531 110.3125 573.578125 110.03125 C 572.492188 113.214844 571.898438 111.652344 570.925781 112.800781 C 571.621094 110.285156 572.21875 107.773438 572.84375 105.238281 L 573.367188 105.71875 C 573.503906 104.417969 573.511719 103.121094 573.394531 101.820312 C 573.433594 99.058594 573.761719 96.332031 574.378906 93.640625 C 576.730469 80.554688 577.855469 67.363281 577.75 54.070312 C 578.109375 54.261719 578.335938 56.988281 578.484375 59.730469 C 578.429688 57.726562 578.496094 55.730469 578.6875 53.738281 C 578.34375 55.308594 578.265625 53.945312 578.175781 52.5 C 578.085938 51.054688 578.027344 49.523438 577.949219 50.75 C 577.53125 48.382812 577.242188 45.855469 576.976562 43.257812 L 576.316406 35.359375 C 576.101562 32.726562 575.792969 30.132812 575.488281 27.679688 C 575.160156 25.378906 574.699219 23.101562 574.097656 20.855469 C 573.339844 20.605469 566.945312 17.105469 560.355469 14.234375 L 557.917969 13.152344 L 556.71875 12.648438 L 556.125 12.402344 L 555.570312 12.347656 C 554.242188 12.246094 552.929688 12.367188 551.640625 12.71875 C 551.140625 12.867188 550.664062 13.070312 550.207031 13.324219 L 550.34375 13.308594 L 550.195312 13.328125 L 550.316406 13.3125 L 549.808594 13.585938 L 549.640625 13.609375 L 549.15625 13.855469 L 549.417969 13.722656 L 549.253906 13.742188 L 549.117188 13.761719 L 550.179688 13.523438 L 550.34375 13.503906 L 550.617188 13.46875 L 550.90625 13.429688 L 550.578125 13.472656 L 550.894531 13.433594 L 551.003906 13.417969 L 550.730469 13.453125 L 550.535156 13.476562 L 550.136719 13.53125 L 549.625 13.597656 L 549.0625 13.667969 L 548.304688 13.769531 C 548.359375 14.035156 548.355469 14.304688 548.28125 14.570312 C 548.1875 14.902344 548.058594 15.226562 548.609375 17.859375 C 548.289062 18.070312 547.851562 16.964844 547.371094 15.21875 L 547.1875 14.558594 L 547.117188 14.019531 L 547.101562 13.882812 L 547.417969 13.839844 L 546.757812 13.925781 L 546.839844 14.558594 C 546.964844 15.871094 547.347656 17.101562 547.988281 18.25 C 548.382812 21.921875 547.089844 18 547.546875 22.410156 C 547.929688 23.941406 548.4375 25.699219 548.832031 27.550781 C 549.296875 29.386719 549.535156 31.25 549.558594 33.144531 L 549.433594 33.160156 C 549.523438 35.363281 549.679688 37.332031 549.867188 39.085938 L 550.523438 44.152344 C 551.113281 47.628906 551.285156 51.121094 551.027344 54.636719 L 550.789062 53.769531 C 550.390625 56.621094 550.921875 62.226562 550.125 67.332031 C 550.359375 65.898438 550.9375 64.632812 550.835938 67.726562 C 550.476562 70.675781 550.136719 73.140625 549.984375 75.417969 C 549.777344 77.589844 549.414062 79.738281 548.902344 81.859375 L 548.996094 86.050781 C 547.75 94.382812 546.027344 102.621094 543.824219 110.753906 C 540.953125 121.015625 536.453125 132.523438 529.96875 142.257812 C 523.460938 151.886719 515.636719 160.292969 506.5 167.476562 C 499.972656 172.6875 493.117188 177.425781 485.933594 181.683594 L 486.582031 181.164062 C 478.183594 186.230469 469.515625 190.777344 460.574219 194.804688 C 449.636719 199.707031 438.410156 203.816406 426.890625 207.128906 C 415.296875 210.472656 403.53125 213.007812 391.585938 214.734375 C 381.640625 216.152344 371.648438 217.03125 361.605469 217.375 C 356.464844 216.839844 349.328125 216.757812 343.832031 216.292969 C 346.871094 216.726562 345.808594 217.15625 343.421875 217.003906 C 335.035156 216.507812 334.707031 216.550781 334.398438 216.773438 C 334.089844 216.996094 333.757812 217.125 325.085938 216.582031 C 320.089844 216.375 311.5 215.710938 300.929688 215.105469 C 290.363281 214.503906 277.699219 214.167969 265.253906 214.648438 C 252.808594 215.128906 240.40625 216.261719 230.042969 217.691406 C 219.683594 219.117188 211.316406 220.707031 206.738281 221.59375 C 197.199219 224.722656 184.917969 227.324219 175.773438 231.214844 L 176.640625 230.679688 C 171.699219 232.527344 154.9375 238.1875 138.9375 246.566406 C 131.316406 250.511719 123.945312 254.878906 116.828125 259.671875 C 113.710938 261.898438 110.855469 263.851562 108.582031 265.65625 C 106.3125 267.464844 104.480469 268.894531 103.28125 269.929688 C 103.742188 269.589844 104.222656 269.304688 104.6875 268.992188 C 96.65625 276.492188 97.140625 274.734375 90.542969 280.449219 C 92.15625 280.476562 85.863281 287.570312 83.671875 290.417969 L 83.632812 290.140625 C 82.792969 291.203125 81.621094 292.558594 80.425781 294.242188 L 76.484375 299.808594 L 72.421875 306.066406 C 71.066406 308.144531 69.875 310.289062 68.671875 312.152344 L 68.339844 311.523438 L 66.855469 314.222656 L 65.199219 317.324219 L 63.371094 320.613281 C 62.761719 321.746094 62.265625 322.902344 61.613281 324.035156 C 59.1875 328.550781 57.285156 333 56.175781 335.457031 C 53.074219 342.269531 50.484375 349.269531 48.410156 356.464844 C 45.996094 364.769531 44.695312 373.242188 44.507812 381.886719 C 44.023438 383.660156 43.769531 385.472656 43.429688 387.28125 C 43.089844 389.089844 42.738281 390.914062 42.515625 392.75 L 42.722656 394.359375 C 43.835938 395.183594 45 395.925781 46.21875 396.582031 C 48.707031 397.980469 51.351562 398.941406 54.15625 399.460938 C 55.609375 399.769531 57.074219 399.820312 58.546875 399.613281 C 60.019531 399.402344 61.410156 398.949219 62.726562 398.25 C 64.101562 397.4375 65.222656 396.359375 66.085938 395.015625 C 67.121094 393.320312 67.871094 391.511719 68.335938 389.582031 L 68.949219 389.867188 L 68.921875 386.328125 C 69.042969 384.210938 69.203125 382.664062 69.1875 381.671875 C 69.171875 380.675781 69.214844 380.265625 69.503906 380.425781 L 69.226562 383.261719 L 69.089844 384.679688 L 69.046875 386.085938 C 69.136719 383.960938 69.386719 383.648438 69.472656 384.070312 L 69.890625 386.453125 C 69.941406 384.816406 70.140625 383.199219 70.496094 381.597656 C 70.382812 380.746094 70.191406 382.183594 69.996094 382.839844 L 69.875 378.878906 C 69.859375 377.433594 70.023438 376.011719 70.375 374.609375 C 70.710938 372.453125 70.972656 372.417969 71.234375 372.300781 C 71.5 372.183594 71.726562 371.96875 72.273438 369.492188 C 75.15625 356.304688 80.046875 343.90625 86.945312 332.304688 C 90.363281 326.523438 94.152344 320.992188 98.3125 315.71875 Z M 549.382812 13.867188 L 549.023438 13.914062 L 549.269531 13.878906 Z M 548.855469 14.03125 Z M 551.339844 13.402344 Z M 551.007812 13.445312 Z M 551.28125 13.410156 Z M 551.28125 13.410156 " fill-opacity="1" fill-rule="nonzero"/></g></g></g><g clip-path="url(#e431233564)"><g clip-path="url(#7844ace732)"><g clip-path="url(#e87061fe52)"><path fill="#737373" d="M 552.492188 11.835938 L 551.738281 12.382812 L 552.328125 11.972656 Z M 552.492188 11.835938 " fill-opacity="1" fill-rule="nonzero"/></g></g></g><g clip-path="url(#4d045c4b06)"><g clip-path="url(#2bcd12625d)"><g clip-path="url(#76dea15fc3)"><path fill="#737373" d="M 128.539062 448.359375 C 128.621094 448.980469 128.707031 449.640625 128.796875 450.34375 C 129.101562 447.996094 129.265625 445.640625 129.28125 443.277344 C 128.898438 444.308594 128.683594 445.371094 128.632812 446.472656 C 128.574219 447.109375 128.527344 447.71875 128.539062 448.359375 Z M 128.539062 448.359375 " fill-opacity="1" fill-rule="nonzero"/></g></g></g><g clip-path="url(#ccc44a55c6)"><g clip-path="url(#759f62acfe)"><g clip-path="url(#26a2ba162f)"><path fill="#737373" d="M 596.445312 123.398438 C 596.484375 122.511719 596.507812 121.609375 596.46875 120.75 Z M 596.445312 123.398438 " fill-opacity="1" fill-rule="nonzero"/></g></g></g><g clip-path="url(#d815cbbe87)"><g clip-path="url(#62748ffd43)"><g clip-path="url(#9ed122dc61)"><path fill="#737373" d="M 609.308594 130.875 C 606.496094 128.847656 603.667969 126.914062 601.425781 125.496094 C 600.082031 124.558594 598.648438 123.792969 597.121094 123.199219 C 597.140625 121.59375 597.246094 119.992188 597.4375 118.394531 C 596.914062 120.640625 596.742188 122.914062 596.921875 125.214844 L 597.773438 125.621094 C 597.796875 130.660156 597.195312 126.773438 596.976562 131.675781 C 596.230469 131.886719 596.417969 127.394531 596.4375 123.425781 C 596.28125 126.992188 595.484375 130.554688 596.148438 131.996094 C 595.613281 135.3125 595.335938 131.566406 594.6875 135.546875 C 594.660156 136.949219 594.769531 138.644531 594.726562 140.359375 C 594.703125 142.070312 594.507812 143.765625 594.136719 145.4375 L 594.015625 145.367188 C 592.222656 153.148438 593.3125 157.644531 591.066406 164.628906 L 590.960938 163.816406 C 590.058594 166.246094 589.425781 171.300781 587.789062 175.65625 C 588.289062 174.429688 589.101562 173.457031 588.414062 176.152344 C 586.570312 181.167969 585.84375 184.734375 584.117188 188.25 L 583.492188 191.988281 C 580.941406 198.988281 578.015625 205.828125 574.710938 212.511719 C 573.695312 214.714844 572.480469 216.890625 571.226562 219.210938 C 569.972656 221.527344 568.578125 223.753906 567.238281 226.167969 C 565.898438 228.585938 564.332031 230.847656 562.753906 233.152344 C 561.175781 235.457031 559.582031 237.765625 557.832031 240.039062 C 551.355469 248.671875 544.117188 256.617188 536.117188 263.863281 C 530.625 268.808594 524.804688 273.335938 518.664062 277.445312 L 519.203125 276.96875 C 512.167969 281.742188 504.765625 285.859375 496.996094 289.316406 C 494.820312 290.371094 492.472656 291.179688 490.164062 292.148438 C 487.851562 293.121094 485.378906 293.820312 482.957031 294.695312 C 478.023438 296.273438 472.816406 297.605469 467.472656 298.75 C 456.789062 301.03125 445.550781 302.503906 434.996094 303.746094 L 406.863281 307.03125 C 401.972656 306.796875 395.316406 307.53125 390.265625 307.78125 C 393.074219 307.839844 392.179688 308.386719 389.988281 308.546875 C 374.605469 309.703125 388.996094 309.125 373.445312 310.609375 C 364.511719 311.597656 342.871094 313.089844 321.457031 313.976562 L 290.796875 315.152344 C 281.65625 315.523438 274.101562 316.015625 270.011719 316.222656 C 261.289062 317.996094 250.097656 318.636719 241.460938 320.835938 L 242.292969 320.449219 C 241.136719 320.710938 239.28125 321.078125 236.914062 321.523438 C 234.550781 321.96875 231.675781 322.609375 228.449219 323.320312 C 221.070312 325.007812 213.796875 327.0625 206.628906 329.484375 C 199.25 332.003906 192.058594 334.980469 185.054688 338.40625 C 180.472656 340.644531 176.015625 343.113281 171.683594 345.8125 L 173.003906 345.179688 C 170.59375 346.925781 168.0625 348.480469 165.414062 349.847656 C 163.136719 350.84375 160.957031 352.019531 158.871094 353.371094 C 160.308594 353.660156 153.90625 359.15625 151.488281 361.246094 L 151.453125 360.972656 C 149.632812 362.609375 146.761719 365.292969 143.714844 368.390625 C 140.671875 371.488281 137.441406 374.988281 134.734375 377.957031 L 134.507812 377.300781 C 132.417969 379.980469 129.214844 383.589844 126.382812 387.332031 C 124.921875 389.132812 123.578125 390.976562 122.417969 392.609375 C 121.257812 394.246094 120.292969 395.6875 119.628906 396.710938 C 115.613281 402.386719 112.191406 408.402344 109.363281 414.753906 C 105.976562 422.359375 104.09375 430.320312 103.722656 438.636719 L 102.699219 443.921875 C 102.425781 445.710938 102.226562 447.515625 102 449.351562 C 102.070312 449.875 102.136719 450.398438 102.277344 450.925781 C 103.441406 451.675781 104.660156 452.324219 105.933594 452.875 C 108.515625 454.035156 111.222656 454.707031 114.050781 454.890625 C 115.523438 455.011719 116.980469 454.910156 118.421875 454.582031 C 119.867188 454.253906 121.222656 453.714844 122.5 452.964844 C 123.738281 452.203125 124.78125 451.226562 125.621094 450.039062 C 126.054688 449.40625 126.4375 448.738281 126.761719 448.042969 C 127.164062 447.265625 127.476562 446.453125 127.707031 445.609375 L 128.335938 445.824219 L 128.226562 444.4375 C 128.167969 443.980469 128.246094 443.507812 128.257812 443.03125 C 128.625 439.71875 128.3125 438.066406 128.84375 438.375 C 128.746094 439.144531 128.578125 439.910156 128.523438 440.671875 L 128.386719 442.957031 C 128.722656 439.609375 128.945312 441.988281 129.222656 443.257812 C 129.277344 441.976562 129.46875 440.71875 129.796875 439.484375 C 129.710938 438.796875 129.480469 439.933594 129.277344 440.433594 C 129.3125 438.636719 128.984375 436.019531 129.824219 433.851562 C 130.1875 432.121094 130.484375 432.140625 130.757812 432.078125 C 131.027344 432.011719 131.347656 431.875 131.878906 429.914062 C 135.277344 419.527344 141.660156 409.652344 149.433594 400.816406 C 157.667969 391.734375 166.808594 383.691406 176.867188 376.683594 C 177.484375 376.601562 176.898438 376.945312 176.390625 377.457031 C 182.0625 373.273438 187.976562 369.457031 194.125 366.011719 C 195.113281 365.621094 196.140625 365.4375 197.203125 365.457031 C 196.886719 365.5 198.828125 364.378906 201.960938 362.808594 C 205.089844 361.242188 209.492188 359.339844 214.019531 357.632812 C 216.292969 356.804688 218.582031 355.976562 220.726562 355.363281 L 223.902344 354.347656 L 226.808594 353.535156 C 230.414062 352.496094 232.980469 351.980469 233.128906 351.945312 L 233.339844 350.757812 C 237.015625 349.832031 237.652344 350.113281 238.175781 350.269531 C 238.703125 350.425781 239.15625 350.589844 242.558594 349.699219 C 244.976562 347.621094 254.164062 347.816406 256.515625 346.726562 C 256.53125 346.851562 259.964844 346.433594 259.804688 346.945312 C 260.757812 345.953125 263.382812 346.328125 265.574219 345.847656 C 266.34375 345.523438 264.960938 345.660156 264.320312 345.476562 C 266 345.175781 267.691406 344.894531 269.394531 344.636719 C 271.421875 344.710938 271.957031 345.171875 269.796875 345.46875 C 273.136719 345.1875 279.691406 344.746094 287.953125 344.316406 C 296.21875 343.890625 306.261719 343.554688 316.460938 343.167969 C 336.925781 342.40625 357.546875 341.144531 365.125 340.386719 C 363.140625 339.886719 358.515625 340.628906 356.636719 339.738281 C 360.589844 338.902344 362.523438 339.546875 364.234375 338.820312 C 365.816406 340.226562 373.023438 338.5625 376.148438 339.851562 L 377.230469 338.914062 L 379.253906 339.28125 C 396.71875 337.015625 383.222656 338.558594 398.78125 337.464844 C 407.617188 336.582031 411.785156 335.035156 416.664062 334.960938 C 415.824219 334.960938 414.339844 334.648438 416.429688 334.25 C 416.902344 334.960938 422.574219 333.132812 423.777344 333.773438 C 426.050781 333.476562 433.457031 332.8125 430.839844 332.046875 C 432.136719 332.4375 438.769531 331.957031 434.875 332.808594 C 436.890625 332.722656 438.890625 332.492188 440.878906 332.128906 L 437.96875 332.15625 C 445.503906 331.179688 449.8125 331.476562 454.703125 329.875 L 451.800781 329.84375 C 456.386719 329.25 460.242188 328.511719 462.222656 329.222656 L 457.511719 330.253906 C 463.960938 329.4375 470.300781 328.113281 476.535156 326.273438 L 474.214844 326.742188 C 476.226562 326.058594 480.421875 324.914062 485.664062 323.226562 C 488.289062 322.394531 491.171875 321.417969 494.144531 320.25 L 498.695312 318.511719 L 503.242188 316.519531 C 508.914062 314.019531 514.414062 311.183594 519.742188 308.007812 C 522.074219 306.652344 524.035156 305.265625 525.6875 304.179688 C 526.957031 303.367188 528.15625 302.464844 529.289062 301.472656 C 528.152344 301.902344 527.015625 302.316406 525.84375 302.664062 C 527.664062 301.390625 529.367188 299.9375 531.113281 298.605469 C 530.453125 299.011719 529.78125 302.488281 529.074219 302.621094 C 534.761719 299.046875 540.226562 295.164062 545.476562 290.96875 C 553.636719 284.488281 561.222656 277.394531 568.234375 269.683594 C 575.175781 262.039062 581.503906 253.917969 587.21875 245.316406 C 592.253906 237.828125 595.597656 231.625 597.273438 228.785156 C 600.167969 224.335938 598.84375 228.582031 598.898438 228.574219 C 601.609375 222.691406 599.421875 225.707031 601.925781 220.828125 C 602.714844 219.550781 602.347656 221.378906 602.105469 222.207031 C 603.109375 220.019531 604.246094 218.078125 603.996094 217.761719 C 602.5 220.378906 602.15625 218.8125 601.023438 219.6875 C 602.054688 217.59375 602.996094 215.453125 603.984375 213.351562 L 604.414062 213.882812 C 605.089844 212.394531 604.449219 209.59375 607.253906 203.359375 C 611.558594 192.269531 614.949219 180.902344 617.425781 169.265625 C 617.738281 169.519531 617.464844 171.949219 617.136719 174.375 C 617.46875 172.613281 617.910156 170.878906 618.464844 169.171875 C 617.230469 171.769531 619.054688 164.332031 618.328125 166.390625 C 618.566406 161.777344 619.085938 157.199219 619.894531 152.65625 C 620.277344 150.324219 620.550781 148.019531 620.773438 145.832031 C 621.019531 143.792969 621.097656 141.746094 621.011719 139.695312 C 620.371094 139.398438 614.996094 134.886719 609.308594 130.875 Z M 609.308594 130.875 " fill-opacity="1" fill-rule="nonzero"/></g></g></g></g></g></g></svg>