<svg xmlns="http://www.w3.org/2000/svg" xmlns:xlink="http://www.w3.org/1999/xlink" width="1080" zoomAndPan="magnify" viewBox="0 0 810 809.999993" height="1080" preserveAspectRatio="xMidYMid meet" version="1.0"><defs><clipPath id="45ac447961"><path d="M 249 201 L 301 201 L 301 440 L 249 440 Z M 249 201 " clip-rule="nonzero"/></clipPath><clipPath id="1c17382a6e"><path d="M 178.511719 210.792969 L 592.261719 165.257812 L 631.480469 521.605469 L 217.726562 567.140625 Z M 178.511719 210.792969 " clip-rule="nonzero"/></clipPath><clipPath id="ffba880fb5"><path d="M -235.492188 256.355469 L 592.011719 165.285156 L 631.230469 521.632812 L -196.273438 612.703125 Z M -235.492188 256.355469 " clip-rule="nonzero"/></clipPath><clipPath id="2877c13759"><path d="M 366 298 L 467 298 L 467 480 L 366 480 Z M 366 298 " clip-rule="nonzero"/></clipPath><clipPath id="2b23b0cc3f"><path d="M 178.511719 210.792969 L 592.261719 165.257812 L 631.480469 521.605469 L 217.726562 567.140625 Z M 178.511719 210.792969 " clip-rule="nonzero"/></clipPath><clipPath id="b1d997c1b2"><path d="M -235.492188 256.355469 L 592.011719 165.285156 L 631.230469 521.632812 L -196.273438 612.703125 Z M -235.492188 256.355469 " clip-rule="nonzero"/></clipPath><clipPath id="8de32d3837"><path d="M 456 421 L 622 421 L 622 540 L 456 540 Z M 456 421 " clip-rule="nonzero"/></clipPath><clipPath id="544a84bfd9"><path d="M 178.511719 210.792969 L 592.261719 165.257812 L 631.480469 521.605469 L 217.726562 567.140625 Z M 178.511719 210.792969 " clip-rule="nonzero"/></clipPath><clipPath id="652e9c5527"><path d="M -235.492188 256.355469 L 592.011719 165.285156 L 631.230469 521.632812 L -196.273438 612.703125 Z M -235.492188 256.355469 " clip-rule="nonzero"/></clipPath></defs><rect x="-81" width="972" fill="#ffffff" y="-80.999999" height="971.999992" fill-opacity="1"/><rect x="-81" width="972" fill="#ffffff" y="-80.999999" height="971.999992" fill-opacity="1"/><rect x="-81" width="972" fill="#fff8d0" y="-80.999999" height="971.999992" fill-opacity="1"/><g clip-path="url(#45ac447961)"><g clip-path="url(#1c17382a6e)"><g clip-path="url(#ffba880fb5)"><path fill="#f9ac85" d="M 289.101562 344.480469 C 288.152344 345.089844 287.207031 345.703125 286.703125 345.757812 C 286.925781 347.761719 287.589844 349.207031 287.8125 351.210938 C 287.976562 352.714844 287.695312 354.773438 287.359375 356.332031 C 287.414062 356.832031 286.96875 357.386719 286.578125 358.445312 C 286.1875 359.503906 285.742188 360.058594 285.851562 361.058594 C 286.074219 363.0625 284.789062 365.234375 286.066406 367.625 C 286.121094 368.128906 285.675781 368.683594 285.730469 369.183594 C 283.5 371.964844 283.941406 375.972656 282.324219 379.699219 C 281.878906 380.253906 282.433594 380.699219 282.042969 381.757812 C 282.207031 383.261719 281.871094 384.816406 281.035156 386.429688 C 279.75 388.601562 280.027344 391.105469 279.800781 393.664062 C 279.910156 394.664062 279.464844 395.222656 279.074219 396.277344 C 278.238281 397.890625 277.402344 399.503906 278.121094 401.453125 C 278.175781 401.953125 278.289062 402.957031 277.785156 403.011719 C 275.054688 405.847656 276.050781 410.300781 273.878906 413.582031 C 273.429688 414.136719 273.039062 415.195312 272.59375 415.75 C 271.757812 417.363281 271.421875 418.921875 270.582031 420.535156 C 269.746094 422.144531 268.855469 423.257812 268.019531 424.871094 C 265.453125 429.210938 262.886719 433.546875 260.265625 437.386719 C 259.816406 437.941406 259.371094 438.496094 258.925781 439.054688 C 258.816406 438.050781 258.203125 437.105469 258.203125 437.105469 C 255.640625 436.878906 255.976562 435.320312 255.257812 433.375 C 253.316406 424.96875 251.878906 416.507812 250.886719 407.492188 C 250.554688 404.488281 250.726562 401.425781 250.898438 398.367188 C 250.785156 397.363281 250.621094 395.863281 250.007812 394.914062 C 248.785156 393.023438 248.675781 392.019531 250.015625 390.351562 C 250.90625 389.238281 251.1875 387.179688 250.96875 385.175781 C 251.191406 382.617188 251.417969 380.058594 251.644531 377.5 C 251.535156 376.496094 251.421875 375.496094 251.3125 374.492188 C 251.59375 372.433594 248.921875 371.207031 250.207031 369.039062 C 251.042969 367.425781 251.324219 365.367188 252.160156 363.753906 C 252.605469 363.199219 252.496094 362.195312 252.941406 361.640625 C 251.21875 359.800781 251.5 357.742188 251.78125 355.683594 C 252.058594 353.625 251.394531 352.179688 252.675781 350.007812 C 253.960938 347.839844 254.128906 344.78125 252.796875 341.886719 C 252.074219 339.9375 251.910156 338.433594 252.691406 336.320312 C 253.808594 332.648438 254.425781 329.03125 255.042969 325.414062 C 255.433594 324.359375 255.324219 323.355469 255.214844 322.355469 C 255.550781 320.796875 255.828125 318.738281 256.164062 317.179688 C 256.445312 315.121094 256.726562 313.0625 256.953125 310.503906 C 257.34375 309.445312 257.179688 307.945312 257.570312 306.886719 C 257.851562 304.828125 258.6875 303.214844 257.910156 300.765625 C 256.96875 296.8125 258.085938 293.140625 258.703125 289.527344 C 258.984375 287.46875 260.265625 285.296875 258.933594 282.402344 C 258.878906 281.902344 258.824219 281.402344 259.269531 280.84375 C 260.496094 278.175781 261.167969 275.058594 261.339844 272 C 261.285156 271.496094 261.730469 270.941406 261.675781 270.441406 C 260.902344 263.429688 260.902344 263.429688 263.195312 256.585938 C 263.585938 255.527344 262.972656 254.582031 263.308594 253.023438 C 263.144531 251.523438 263.425781 249.464844 263.257812 247.960938 C 263.203125 247.460938 263.648438 246.902344 263.59375 246.402344 C 263.265625 243.398438 263.992188 240.78125 264.214844 238.222656 C 265.222656 233.550781 264.171875 228.597656 263.675781 224.085938 C 263.457031 222.085938 263.34375 221.082031 265.851562 220.808594 C 265.292969 220.359375 264.738281 219.914062 264.683594 219.414062 C 264.628906 218.914062 264.015625 217.96875 264.460938 217.410156 C 265.300781 215.796875 265.582031 213.738281 265.917969 212.179688 C 265.804688 211.179688 267.253906 210.511719 267.699219 209.957031 C 268.148438 209.402344 268.703125 209.847656 269.148438 209.289062 C 269.984375 207.675781 270.824219 206.066406 271.660156 204.453125 C 272.550781 203.339844 274 202.671875 275.894531 201.449219 C 277.0625 202.84375 279.234375 204.125 280.957031 205.964844 C 281.90625 205.351562 283.355469 204.6875 284.800781 204.019531 C 286.972656 205.300781 289.199219 207.085938 291.367188 208.367188 L 294.425781 213.097656 C 295.09375 214.546875 295.648438 214.992188 297.597656 214.269531 C 297.929688 217.277344 297.757812 220.335938 300.039062 222.621094 C 300.09375 223.121094 300.148438 223.621094 300.203125 224.125 C 300.3125 225.125 299.921875 226.183594 300.089844 227.683594 C 300.308594 229.6875 300.472656 231.191406 299.636719 232.804688 C 299.191406 233.359375 298.800781 234.417969 299.914062 235.308594 C 301.582031 236.644531 300.746094 238.257812 299.90625 239.871094 C 298.234375 243.097656 298.621094 246.605469 300.007812 250 C 300.0625 250.5 300.675781 251.445312 300.785156 252.449219 C 298.945312 254.171875 298.164062 256.285156 298.4375 258.789062 C 297.933594 263.410156 297.425781 268.027344 296.921875 272.644531 C 296.976562 273.148438 296.585938 274.203125 296.640625 274.703125 C 297.417969 277.152344 297.136719 279.210938 296.355469 281.328125 C 295.234375 284.996094 295.621094 288.503906 296.007812 292.011719 C 296.117188 293.011719 294.78125 294.679688 296.449219 296.015625 C 297.003906 296.464844 296.722656 298.523438 296.277344 299.078125 C 293.9375 300.855469 294.824219 304.308594 294.042969 306.421875 C 293.597656 306.976562 293.761719 308.480469 294.261719 308.425781 C 296.542969 310.707031 294.257812 312.988281 294.535156 315.492188 C 294.644531 316.496094 292.640625 316.714844 292.804688 318.21875 C 293.636719 321.167969 292.910156 323.78125 292.683594 326.34375 C 292.792969 327.34375 292.402344 328.402344 292.011719 329.457031 C 292.066406 329.957031 291.175781 331.070312 291.730469 331.515625 C 291.28125 336.636719 288.101562 340.027344 289.101562 344.480469 Z M 289.101562 344.480469 " fill-opacity="1" fill-rule="nonzero"/></g></g></g><g clip-path="url(#2877c13759)"><g clip-path="url(#2b23b0cc3f)"><g clip-path="url(#b1d997c1b2)"><path fill="#f9ac85" d="M 369.914062 479.5625 C 368.246094 478.226562 367.632812 477.277344 366.019531 476.441406 C 366.1875 473.382812 366.804688 469.765625 366.867188 465.703125 C 367.761719 460.027344 369.160156 454.296875 370.058594 448.621094 C 370.003906 448.121094 370.394531 447.0625 370.839844 446.507812 C 372.625 444.285156 373.351562 441.667969 374.023438 438.554688 C 374.304688 436.496094 374.085938 434.492188 375.980469 433.269531 C 376.925781 432.65625 376.816406 431.65625 377.207031 430.597656 C 377.652344 430.042969 377.542969 429.039062 377.988281 428.484375 C 380.273438 426.203125 380.445312 423.144531 380.167969 420.640625 C 379.949219 418.636719 381.453125 418.472656 381.84375 417.414062 C 382.179688 415.855469 381.402344 413.40625 383.910156 413.132812 C 382.742188 411.738281 384.1875 411.074219 384.578125 410.015625 C 384.972656 408.957031 385.808594 407.34375 387.144531 405.675781 C 387.316406 402.617188 388.992188 399.390625 391.167969 396.109375 C 389.941406 394.214844 389.722656 392.214844 391.671875 391.492188 C 393.621094 390.769531 394.011719 389.714844 393.847656 388.210938 C 393.792969 387.710938 394.238281 387.152344 394.183594 386.652344 C 396.632812 385.875 395.464844 384.484375 394.800781 383.035156 C 396.695312 381.8125 399.144531 381.035156 398.816406 378.03125 C 398.703125 377.03125 400.097656 375.863281 400.992188 374.75 C 402.382812 373.582031 398.710938 372.464844 401.214844 372.191406 C 399.4375 369.851562 401.886719 369.074219 403.28125 367.90625 C 403.78125 367.851562 403.726562 367.351562 404.226562 367.296875 C 403.671875 366.851562 403.617188 366.351562 403.058594 365.90625 C 403.507812 365.347656 404.007812 365.292969 404.453125 364.738281 C 402.839844 363.902344 404.234375 362.734375 404.234375 362.734375 C 407.128906 361.402344 406.746094 357.894531 408.582031 356.171875 C 410.871094 353.890625 411.09375 351.332031 411.820312 348.71875 C 412.605469 346.605469 414.5 345.382812 413.21875 342.988281 C 413.164062 342.484375 414.058594 341.375 414.503906 340.816406 C 417.792969 338.429688 417.796875 333.867188 419.472656 330.640625 C 419.863281 329.582031 420.199219 328.023438 420.644531 327.46875 C 422.484375 325.746094 423.765625 323.574219 426.105469 321.796875 C 428.894531 319.464844 429.675781 317.347656 429.847656 314.289062 C 429.789062 313.789062 429.734375 313.285156 430.183594 312.730469 C 434.082031 311.289062 434.472656 310.230469 433.640625 307.28125 C 435.425781 305.054688 438.878906 304.167969 437.992188 300.71875 C 439.441406 300.050781 440.386719 299.441406 441.335938 298.828125 C 442.445312 299.722656 443.558594 300.613281 445.117188 300.949219 C 446.066406 300.335938 446.511719 299.78125 447.515625 299.671875 C 448.515625 299.558594 449.574219 299.949219 450.578125 299.839844 C 450.632812 300.339844 450.742188 301.34375 450.851562 302.34375 C 452.246094 301.175781 453.695312 300.511719 455.085938 299.34375 C 456.199219 300.234375 456.8125 301.183594 457.980469 302.574219 C 458.871094 301.460938 459.316406 300.90625 459.765625 300.351562 C 461.878906 301.132812 461.042969 302.746094 460.707031 304.300781 C 462.820312 305.082031 464.433594 305.917969 463.207031 308.589844 C 463.261719 309.089844 463.371094 310.09375 463.371094 310.09375 C 467.101562 311.710938 464.980469 315.492188 466.257812 317.886719 C 466.816406 318.332031 465.976562 319.945312 465.53125 320.5 C 463.914062 324.226562 463.296875 327.84375 462.679688 331.460938 C 462.34375 333.019531 462.007812 334.574219 460.613281 335.742188 C 457.382812 338.632812 458.433594 343.585938 455.757812 346.925781 C 453.527344 349.703125 452.964844 353.820312 451.292969 357.046875 C 450.0625 359.71875 448.28125 361.941406 447.050781 364.613281 C 445.433594 368.339844 442.144531 370.726562 441.582031 374.847656 C 441.636719 375.347656 440.691406 375.957031 440.246094 376.515625 C 439.40625 378.125 437.570312 379.851562 438.792969 381.742188 C 439.457031 383.191406 439.066406 384.246094 437.171875 385.46875 C 434.832031 387.25 432.992188 388.972656 431.765625 391.640625 C 430.925781 393.253906 430.589844 394.8125 430.253906 396.371094 C 428.636719 400.097656 426.90625 402.824219 422.835938 407.324219 C 421 409.050781 420.269531 411.664062 418.988281 413.832031 C 418.597656 414.890625 417.703125 416.003906 416.8125 417.113281 C 418.648438 419.953125 415.359375 422.34375 414.632812 424.957031 C 412.957031 428.183594 409.671875 430.574219 408.609375 434.746094 C 408.664062 435.246094 407.660156 435.359375 407.214844 435.914062 C 406.769531 436.46875 406.265625 436.523438 406.320312 437.027344 C 404.421875 442.8125 404.476562 443.3125 402.191406 445.59375 C 398.902344 447.980469 397.285156 451.707031 395.109375 454.988281 C 394.664062 455.546875 394.664062 455.546875 394.71875 456.046875 C 389.757812 461.664062 386.464844 468.613281 379.832031 472.894531 C 375.988281 474.835938 373.203125 477.171875 369.914062 479.5625 Z M 369.914062 479.5625 " fill-opacity="1" fill-rule="nonzero"/></g></g></g><g clip-path="url(#8de32d3837)"><g clip-path="url(#544a84bfd9)"><g clip-path="url(#652e9c5527)"><path fill="#f9ac85" d="M 456.15625 539.523438 C 457.492188 537.855469 459.386719 536.632812 458.667969 534.683594 C 458.164062 534.738281 457.164062 534.851562 456.664062 534.90625 C 456.664062 534.90625 456.605469 534.402344 456.605469 534.402344 C 460.457031 527.898438 465.417969 522.28125 470.882812 516.609375 C 473.167969 514.332031 475.398438 511.550781 478.183594 509.214844 C 481.417969 506.324219 484.707031 503.9375 488.441406 500.992188 C 489.832031 499.824219 491.226562 498.65625 492.621094 497.488281 C 493.511719 496.375 494.90625 495.210938 495.796875 494.097656 C 498.640625 492.265625 502.039062 490.875 504.824219 488.542969 C 507.609375 486.207031 509.839844 483.425781 512.128906 481.148438 C 513.019531 480.035156 514.414062 478.867188 515.863281 478.203125 C 519.148438 475.8125 522.992188 473.867188 526.28125 471.476562 C 529.070312 469.144531 531.855469 466.808594 534.640625 464.472656 C 536.480469 462.75 538.375 461.527344 540.269531 460.304688 C 541.664062 459.140625 543.667969 458.917969 544.449219 456.804688 C 544.449219 456.804688 544.898438 456.25 544.898438 456.25 C 550.300781 454.640625 553.476562 451.25 557.101562 447.300781 C 557.546875 446.746094 558.550781 446.632812 559.550781 446.523438 C 560.5 445.914062 562.503906 445.691406 562.949219 445.136719 C 565.070312 441.355469 568.46875 439.964844 571.867188 438.578125 C 573.816406 437.855469 575.210938 436.691406 577.105469 435.46875 C 578.945312 433.746094 580.839844 432.523438 583.34375 432.246094 C 584.847656 432.082031 586.742188 430.859375 587.582031 429.246094 C 590.648438 424.851562 596.105469 423.746094 600.953125 421.691406 C 603.851562 420.355469 607.078125 422.03125 609.027344 421.308594 C 611.699219 422.535156 613.8125 423.316406 615.929688 424.097656 C 618.042969 424.878906 618.210938 426.382812 618.375 427.882812 C 618.652344 430.386719 619.371094 432.335938 621.542969 433.617188 C 621.207031 435.175781 621.371094 436.679688 620.980469 437.734375 C 620.699219 439.792969 620.363281 441.351562 619.027344 443.019531 C 618.132812 444.132812 617.242188 445.246094 616.90625 446.804688 C 615.625 448.972656 614.839844 451.085938 611.777344 450.914062 C 611.777344 450.914062 611.277344 450.972656 611.277344 450.972656 C 608.765625 455.808594 602.75 456.472656 599.074219 459.917969 C 596.789062 462.199219 593.890625 463.53125 593.21875 466.644531 C 591.269531 467.367188 589.375 468.589844 587.425781 469.3125 C 583.023438 470.808594 579.125 472.253906 576.503906 476.089844 C 576.058594 476.644531 574.609375 477.3125 573.605469 477.421875 C 571.65625 478.144531 569.09375 477.917969 567.8125 480.089844 C 564.25 479.972656 562.628906 483.699219 559.121094 484.085938 C 556.613281 484.363281 554.773438 486.085938 553.492188 488.253906 C 552.601562 489.367188 551.207031 490.535156 549.648438 490.199219 C 546.640625 490.53125 543.742188 491.863281 541.457031 494.140625 C 540.066406 495.308594 537.613281 496.085938 536.21875 497.253906 C 532.484375 500.199219 527.585938 501.753906 523.238281 503.75 C 521.34375 504.972656 519.449219 506.195312 517.054688 507.472656 C 515.160156 508.695312 513.210938 509.417969 511.316406 510.640625 C 510.367188 511.25 509.363281 511.363281 508.417969 511.972656 C 502.34375 516.695312 494.542969 519.582031 488.46875 524.308594 C 484.734375 527.253906 480.335938 528.75 476.546875 531.195312 C 471.808594 534.253906 465.792969 534.914062 461.058594 537.96875 C 460.164062 539.082031 458.160156 539.304688 456.15625 539.523438 Z M 456.15625 539.523438 " fill-opacity="1" fill-rule="nonzero"/></g></g></g></svg>