<?xml version="1.0" standalone="no"?>
<!DOCTYPE svg PUBLIC "-//W3C//DTD SVG 20010904//EN"
 "http://www.w3.org/TR/2001/REC-SVG-20010904/DTD/svg10.dtd">
<svg version="1.0" xmlns="http://www.w3.org/2000/svg"
 width="1280.000000pt" height="458.000000pt" viewBox="0 0 1280.000000 458.000000"
 preserveAspectRatio="xMidYMid meet">
<metadata>
Created by potrace 1.15, written by Peter Selinger 2001-2017
</metadata>
<g transform="translate(0.000000,458.000000) scale(0.100000,-0.100000)"
fill="#none" stroke="none">
<path d="M8266 4573 c-2 -3 -1414 -6 -3138 -9 -1723 -2 -3158 -6 -3188 -10
-66 -7 -108 -31 -156 -90 l-37 -44 2 -2136 c1 -1815 4 -2140 16 -2163 7 -15
39 -47 70 -71 l56 -43 4592 2 c4478 2 4592 3 4622 21 16 10 52 41 78 68 l48
49 3 334 c2 184 4 653 5 1043 0 390 4 706 8 703 5 -6 12 -115 13 -225 0 -34
27 -80 50 -87 11 -3 20 -11 20 -16 0 -14 -28 -11 -33 4 -6 16 -37 -22 -35 -43
0 -8 -2 -23 -6 -32 -5 -10 -6 -96 -3 -192 3 -140 7 -180 21 -200 13 -21 14
-24 1 -20 -8 4 -15 3 -15 -2 0 -11 81 -114 91 -114 7 0 1 28 -16 75 -7 19 -7
19 11 3 13 -13 19 -37 22 -83 4 -54 7 -65 21 -63 16 4 16 10 4 69 -3 16 2 37
12 53 16 23 16 26 1 32 -9 3 -16 12 -16 20 0 7 6 11 13 8 10 -3 17 14 26 66 7
38 16 70 20 70 4 0 3 -37 -1 -83 -4 -45 -5 -90 -2 -99 3 -9 -2 -32 -10 -51
-13 -33 -12 -47 4 -47 3 0 19 27 35 60 15 32 31 57 35 55 4 -3 12 -30 19 -62
15 -78 34 -105 26 -38 -4 28 -11 74 -16 104 -12 74 -11 140 4 175 12 27 13 21
24 -75 7 -57 19 -122 28 -144 15 -38 15 -35 9 95 -3 74 -3 133 -1 130 3 -3 21
-76 41 -164 32 -145 46 -193 46 -155 0 8 -7 55 -15 104 -21 129 -19 138 18 70
64 -119 235 -351 248 -338 13 13 -36 184 -81 281 -22 47 -38 87 -36 89 7 7
119 -53 189 -101 93 -64 110 -61 59 10 -16 21 -53 66 -83 98 -30 33 -49 57
-44 55 6 -2 43 -21 83 -42 50 -26 72 -33 72 -23 0 7 -27 25 -60 40 -33 15 -60
32 -60 37 0 6 28 9 68 7 l67 -3 23 -47 c16 -35 32 -52 57 -62 40 -17 40 -18
20 -76 -22 -62 -19 -183 5 -256 23 -68 79 -165 99 -172 7 -2 12 -1 9 4 -2 5
-23 47 -46 94 -49 99 -65 173 -56 253 6 61 24 88 24 38 0 -45 20 -38 21 7 1
39 2 37 15 -13 l7 -30 12 45 12 45 15 -50 c29 -93 59 -157 105 -229 25 -39 48
-66 50 -59 2 7 0 21 -6 32 -18 32 -13 36 14 11 21 -20 25 -21 25 -6 0 9 -5 26
-11 37 -6 11 -9 25 -6 32 6 18 58 -70 80 -136 11 -31 24 -57 28 -57 34 0 -40
168 -111 254 -46 55 -49 66 -17 66 19 1 17 6 -23 42 -25 22 -37 38 -27 35 26
-9 20 9 -10 32 -38 28 -7 28 47 1 46 -24 60 -25 60 -6 0 15 -45 45 -100 65
-19 8 -82 16 -140 20 l-105 6 -23 48 c-28 59 -52 69 -142 61 -66 -7 -70 -6
-97 22 -16 16 -35 38 -43 49 -8 12 -36 38 -62 60 -27 22 -48 43 -48 47 0 13
81 -3 120 -22 19 -10 48 -32 64 -49 36 -38 56 -39 104 -6 39 27 71 31 103 15
18 -10 18 -13 4 -33 -8 -12 -15 -25 -15 -29 0 -16 26 -7 38 12 14 24 62 28 62
5 0 -23 18 -18 35 9 16 24 44 41 52 32 3 -2 -3 -18 -12 -35 -17 -34 -7 -41 18
-13 21 23 23 92 3 92 -22 0 -28 17 -21 50 5 21 13 30 26 30 17 0 19 -8 19 -90
0 -90 8 -109 28 -67 10 21 11 21 11 1 1 -14 -12 -28 -39 -43 -34 -19 -52 -22
-115 -19 -41 2 -75 1 -75 -3 0 -21 33 -29 121 -29 84 0 100 3 124 22 25 19 27
26 23 70 -5 47 4 73 15 43 8 -19 80 -55 112 -55 51 0 85 133 51 199 -22 42
-44 55 -98 61 l-49 5 42 59 c47 65 46 75 -10 113 -39 26 -159 68 -169 58 -10
-10 26 -34 70 -47 41 -12 50 -36 21 -59 -13 -11 -17 -11 -21 -1 -11 35 -71 58
-87 33 -9 -16 35 -121 67 -157 28 -32 34 -34 92 -34 33 0 68 -5 76 -10 18 -11
19 -78 1 -133 l-13 -38 -51 46 c-29 26 -60 54 -70 63 -11 9 -23 16 -28 15 -13
-4 -11 11 3 25 13 13 13 12 -72 117 -50 62 -77 76 -50 25 11 -21 10 -22 -22
-15 -47 10 -48 12 -48 58 0 73 -16 76 -31 6 -12 -52 -18 -65 -35 -67 -20 -3
-22 3 -27 65 -3 37 -9 83 -13 101 -5 27 -3 32 13 32 10 0 35 -9 56 -20 41 -22
72 -26 83 -9 3 6 18 9 31 6 16 -3 32 2 44 14 10 10 31 22 46 25 58 14 255 113
251 126 -7 20 -40 22 -51 3 -8 -15 -147 -87 -226 -117 -25 -9 -25 -9 -6 11 26
30 1 26 -41 -5 -57 -44 -38 -18 27 36 47 39 67 50 85 46 14 -4 29 0 40 11 17
17 17 18 -4 21 -42 6 -97 -21 -154 -76 -32 -30 -58 -61 -58 -69 0 -16 -36 -17
-46 -1 -5 7 14 31 49 62 48 43 57 56 57 84 0 18 5 42 11 54 16 29 4 33 -29 8
-16 -12 -37 -20 -47 -18 -14 2 -9 14 30 66 25 35 44 66 42 68 -2 3 -41 -30
-86 -72 -44 -42 -81 -73 -81 -69 0 3 12 27 27 52 26 44 26 45 4 34 -12 -7 -36
-32 -54 -57 -17 -24 -33 -42 -35 -40 -8 8 56 92 107 139 58 54 63 64 23 43
-53 -27 -130 -121 -172 -210 -23 -47 -44 -86 -49 -86 -13 0 -52 46 -44 53 3 4
3 7 -2 7 -4 0 -27 -16 -51 -35 -23 -19 -45 -35 -48 -35 -3 0 -11 18 -17 40 -9
28 -17 40 -28 38 -13 -3 -15 -15 -13 -64 5 -84 -5 -90 -96 -57 -73 26 -104 24
-67 -3 19 -14 19 -16 2 -25 -26 -15 -11 -29 34 -29 44 0 50 -11 17 -34 -28
-20 -61 -20 -99 0 l-31 15 5 76 c3 48 10 79 19 84 26 17 67 9 100 -20 78 -67
103 -60 85 26 -16 75 -3 87 85 81 47 -4 75 -11 88 -23 26 -23 52 -6 34 23 -13
21 -49 29 -130 31 -49 1 -67 -3 -89 -21 -25 -19 -27 -26 -22 -72 l4 -50 -23
28 c-31 35 -30 67 1 104 28 34 45 73 45 107 0 35 16 39 62 15 22 -11 46 -19
52 -17 6 3 22 35 35 72 20 57 22 72 12 103 -9 31 -8 39 5 49 12 9 24 8 51 -3
31 -14 40 -13 82 1 25 9 106 22 180 30 73 8 136 16 138 19 19 18 -166 12 -270
-10 -25 -5 -28 -4 -23 14 5 13 1 22 -10 26 -13 5 -14 9 -4 21 32 39 -19 24
-73 -21 -59 -49 -62 -18 -11 90 33 70 38 90 54 249 9 94 14 176 9 181 -13 14
-17 -7 -29 -169 -10 -123 -15 -154 -31 -171 -10 -11 -19 -27 -19 -35 0 -8 -6
-24 -14 -34 -12 -16 -13 -13 -9 32 7 65 -12 79 -27 21 -6 -24 -26 -81 -44
-127 -31 -78 -35 -84 -72 -97 -21 -7 -51 -27 -65 -44 -30 -35 -42 -30 -33 17
3 18 3 58 -1 88 -8 66 -29 74 -39 15 -8 -52 -20 -51 -35 3 -16 56 -46 96 -61
81 -9 -9 -7 -24 9 -59 28 -63 20 -69 -14 -11 -15 25 -39 56 -55 69 -17 15 -32
40 -38 68 -10 44 -54 154 -66 166 -13 13 -5 -38 13 -89 16 -43 18 -64 12 -113
-5 -33 -9 -54 -10 -47 0 6 -5 12 -10 12 -6 0 -6 -12 1 -31 6 -19 8 -55 3 -92
-4 -34 -10 -91 -14 -127 -6 -61 -8 -65 -31 -65 -21 0 -25 6 -32 42 -11 65 -48
183 -58 183 -4 0 0 -28 11 -62 21 -70 24 -102 9 -93 -6 4 -10 -9 -10 -33 0
-21 -7 -60 -14 -87 -10 -31 -13 -69 -9 -109 3 -34 1 -77 -4 -96 -13 -49 -24
919 -18 1608 l5 543 -56 59 c-96 101 64 92 -1519 89 -767 -1 -1397 -4 -1399
-6z m2820 -34 c55 -26 111 -88 119 -131 3 -18 5 -982 3 -2142 l-3 -2108 -65
-59 -65 -58 -2430 -1 c-1337 0 -3388 -2 -4560 -5 -1433 -2 -2144 0 -2172 7
-52 13 -118 68 -132 111 -8 24 -10 640 -8 2151 l4 2117 29 30 c16 17 38 36 49
42 30 18 593 22 5089 40 2215 9 4031 18 4034 22 12 12 68 4 108 -16z m899
-2590 c21 -12 46 -19 60 -17 21 5 23 3 13 -15 -6 -11 -8 -40 -4 -66 3 -27 2
-41 -3 -32 -7 10 -11 9 -22 -6 -13 -18 -50 -43 -63 -43 -3 0 -6 30 -6 68 -1
39 -7 77 -15 92 -27 47 -16 52 40 19z"/>
<path d="M1497 3547 c-3 -40 -17 -105 -31 -146 -29 -82 -30 -91 -17 -91 30 0
90 287 64 303 -6 4 -12 -22 -16 -66z"/>
<path d="M1582 3480 c-25 -152 -26 -171 -7 -119 18 50 38 176 33 219 -2 23
-11 -11 -26 -100z"/>
<path d="M11727 3073 c7 -71 14 -138 16 -151 3 -12 1 -25 -4 -27 -4 -3 -49 7
-99 21 -63 18 -95 23 -102 16 -14 -14 0 -34 20 -28 10 3 62 -8 117 -24 82 -24
106 -35 133 -65 18 -19 34 -35 37 -35 13 0 3 58 -10 64 -8 3 -15 10 -15 16 0
5 7 10 15 10 17 0 20 27 6 49 -8 12 -12 12 -26 -2 -18 -18 -50 -23 -40 -7 4 6
2 17 -5 25 -6 7 -16 60 -21 117 -12 122 -17 148 -27 148 -5 0 -2 -57 5 -127z"/>
<path d="M1395 3141 c-31 -14 -63 -53 -72 -90 -12 -48 -29 -49 -52 -2 -30 57
-55 71 -128 71 -51 0 -67 -4 -84 -21 -31 -31 -19 -75 31 -119 46 -41 51 -60
14 -60 -14 0 -33 -4 -43 -10 -27 -14 -81 -103 -81 -133 0 -65 102 -96 196 -60
11 4 14 -5 14 -44 0 -63 16 -84 89 -117 65 -29 79 -27 115 13 19 21 19 20 67
-76 27 -53 49 -98 49 -100 0 -2 -11 -8 -24 -13 -14 -5 -33 -22 -43 -37 -33
-52 -63 -57 -105 -16 -43 41 -53 17 -17 -39 20 -31 45 -53 70 -65 21 -9 41
-25 44 -35 3 -10 8 -27 11 -39 5 -18 3 -20 -15 -14 -18 5 -63 0 -158 -20 -12
-3 -29 -12 -38 -21 -9 -9 -19 -14 -22 -10 -3 3 9 18 28 33 105 88 112 114 52
170 l-38 34 22 17 c58 46 80 135 43 172 -37 37 -86 35 -187 -7 -10 -3 -13 10
-13 47 0 41 -5 56 -25 75 -31 32 -75 33 -102 3 -22 -24 -53 -115 -53 -156 0
-23 -1 -24 -18 -9 -22 21 -72 39 -72 27 0 -5 12 -17 26 -27 14 -10 41 -30 59
-45 18 -16 44 -28 59 -28 21 0 26 -5 26 -26 0 -14 5 -34 10 -44 7 -13 7 -21 0
-25 -15 -9 -41 14 -57 52 -18 45 -84 103 -67 60 3 -9 -3 -13 -17 -13 -21 1
-32 -11 -44 -49 -6 -19 -8 -18 -31 8 -28 32 -33 94 -9 103 18 7 20 44 2 44
-27 0 -37 -25 -37 -88 0 -61 2 -67 35 -98 l36 -34 -15 -44 c-18 -53 -7 -106
29 -142 20 -20 34 -24 88 -24 52 0 71 5 101 25 20 14 40 25 44 25 4 0 20 -16
36 -36 24 -30 33 -35 57 -30 28 5 29 4 29 -29 0 -26 9 -45 36 -74 30 -34 34
-43 24 -60 -26 -49 -77 -53 -143 -11 -54 34 -67 66 -42 103 11 17 15 41 13 71
-4 54 -22 62 -26 12 -5 -51 -18 -58 -96 -47 -69 10 -75 13 -185 104 -25 20
-54 40 -63 43 -10 4 -18 14 -18 24 0 9 -9 25 -19 34 -11 10 -21 30 -23 45 -2
20 -8 25 -25 24 -13 -2 -23 -1 -23 1 0 3 17 33 37 67 30 49 38 75 41 123 4 61
-12 146 -27 146 -4 0 -7 -44 -7 -97 1 -80 -2 -98 -14 -98 -8 0 -16 7 -17 15
-12 92 -25 111 -35 50 l-4 -25 -12 28 c-7 16 -12 67 -13 115 -1 80 -2 85 -14
57 -7 -17 -13 -74 -14 -140 -2 -100 -8 -155 -17 -155 -2 0 -19 11 -39 24 -67
46 -274 61 -312 23 -23 -23 -22 -106 1 -141 22 -34 98 -83 151 -97 49 -14 164
-5 224 16 77 27 104 21 150 -32 22 -26 39 -49 37 -50 -2 -2 -15 1 -30 7 -42
16 -70 12 -140 -17 l-65 -26 -76 18 c-139 32 -258 5 -327 -74 -106 -123 -112
-137 -78 -171 30 -30 81 -25 177 16 46 20 87 34 90 31 3 -3 -1 -37 -8 -74 -12
-58 -15 -64 -20 -38 -5 30 -6 29 -18 -15 -9 -32 -11 -75 -7 -144 8 -116 19
-146 35 -103 6 16 46 63 89 105 84 83 126 155 135 230 7 56 -8 54 -22 -4 -24
-94 -106 -214 -146 -214 -17 0 -19 12 -5 26 6 6 41 74 80 152 38 78 74 142 79
142 5 0 13 -6 17 -12 5 -8 12 4 19 32 10 40 15 46 43 50 23 4 38 15 53 39 19
32 23 33 62 27 120 -17 136 -23 180 -63 33 -31 59 -44 101 -54 52 -11 58 -15
75 -53 10 -23 37 -58 60 -79 l42 -38 -42 -50 c-23 -28 -60 -62 -80 -75 -21
-13 -43 -33 -49 -44 -13 -25 -10 -25 32 0 18 10 53 26 77 35 59 20 74 34 60
51 -16 20 -4 31 54 48 47 14 119 52 172 91 19 14 20 12 21 -38 0 -29 4 -61 8
-72 6 -17 -3 -25 -60 -55 -118 -61 -153 -105 -154 -187 -1 -21 -7 -60 -14 -88
l-14 -50 -7 38 c-4 21 -4 79 0 128 6 80 5 89 -11 89 -16 0 -16 -11 -10 -141 8
-162 16 -192 48 -187 13 2 24 11 27 23 12 67 92 116 198 123 65 4 76 8 83 26
4 12 15 28 25 36 15 13 16 11 9 -26 -3 -21 -13 -51 -20 -66 -8 -15 -14 -36
-14 -48 0 -12 -7 -20 -16 -20 -13 0 -15 7 -10 30 6 35 -9 41 -18 8 -16 -60 3
-145 49 -224 20 -35 30 -43 36 -33 12 19 11 126 -1 134 -28 17 0 102 53 161
38 43 55 72 67 115 11 37 -3 38 -20 2 l-14 -28 -4 28 c-4 35 -22 25 -22 -14 0
-16 -5 -29 -11 -29 -7 0 -9 10 -5 24 7 28 -12 46 -25 25 -5 -8 -9 -9 -9 -4 0
20 38 71 104 139 68 70 80 98 26 57 -28 -20 -42 -17 -21 4 5 6 11 28 13 50 3
37 5 40 38 45 22 3 36 11 38 22 3 14 -6 17 -44 20 -33 2 -50 9 -58 22 -8 14
-8 20 1 23 7 3 33 32 59 65 l45 60 -39 -7 c-68 -11 -69 38 -1 81 35 22 39 29
39 65 0 36 -3 41 -30 50 -20 7 -30 18 -30 30 0 13 10 24 30 30 17 6 30 17 30
25 0 16 -16 19 -25 4 -7 -12 -55 -14 -55 -2 0 4 16 14 35 21 36 12 47 31 20
31 -8 0 -15 2 -15 4 0 2 7 20 15 39 27 66 12 427 -18 427 -6 0 -23 -15 -39
-32 l-28 -33 6 37 c5 31 2 39 -19 53 -18 11 -36 14 -61 10 -52 -10 -60 1 -30
41 15 19 27 45 27 58 0 40 -24 124 -38 136 -18 15 -76 21 -100 11z m175 -502
c0 -68 -2 -80 -14 -70 -7 6 -21 9 -30 5 -12 -5 -20 3 -31 30 -23 55 -19 69 28
92 23 12 43 22 45 23 1 0 2 -36 2 -80z"/>
<path d="M11283 3003 c24 -124 78 -293 95 -293 17 0 15 15 -9 61 -11 23 -25
69 -30 103 -12 78 -38 156 -51 156 -6 0 -8 -12 -5 -27z"/>
<path d="M12350 2826 c0 -2 15 -9 33 -15 29 -10 30 -9 13 4 -18 14 -46 20 -46
11z"/>
<path d="M11763 2744 c-24 -20 -43 -40 -43 -45 0 -11 99 62 99 74 2 14 -15 6
-56 -29z"/>
<path d="M12776 2074 c-9 -20 -14 -39 -12 -42 3 -3 13 12 21 33 21 48 14 56
-9 9z"/>
<path d="M711 2025 c-36 -31 -51 -77 -39 -120 4 -16 8 -46 8 -65 -1 -34 -1
-35 -14 -11 -31 55 -93 65 -137 22 -39 -40 -41 -109 -4 -146 13 -14 29 -25 36
-25 6 0 25 -11 41 -25 21 -17 37 -24 50 -19 37 11 8 -16 -40 -39 -33 -16 -48
-29 -50 -46 -14 -96 87 -119 157 -35 l28 35 37 -25 c38 -26 138 -52 156 -41
24 15 -6 129 -40 150 -21 13 -8 31 35 48 79 33 121 103 90 150 -25 39 -69 53
-123 38 -24 -6 -47 -9 -51 -6 -3 3 -7 23 -8 44 -1 22 -11 61 -21 87 -15 43
-22 49 -48 52 -22 2 -40 -5 -63 -23z"/>
<path d="M12490 1785 c37 -38 40 -40 40 -25 0 14 -49 60 -63 60 -6 0 4 -16 23
-35z"/>
<path d="M1697 1633 c-4 -3 -7 -18 -7 -32 -1 -41 -41 -129 -98 -213 -29 -43
-48 -78 -43 -78 10 0 66 60 93 100 16 24 17 22 17 -76 1 -125 23 -260 40 -249
4 2 2 35 -5 72 -8 37 -13 114 -13 170 1 55 -2 106 -5 112 -4 6 0 23 8 39 8 16
19 59 24 95 8 62 5 77 -11 60z"/>
<path d="M12622 1260 c68 -76 121 -150 113 -158 -2 -3 -20 9 -40 27 -69 60
-59 30 12 -40 68 -66 93 -78 93 -44 0 46 -192 285 -228 285 -7 0 15 -32 50
-70z"/>
<path d="M1625 1142 c6 -59 51 -222 65 -236 10 -10 -6 60 -45 199 -22 78 -25
83 -20 37z"/>
<path d="M11574 1160 c14 -72 114 -245 132 -228 4 4 1 14 -5 22 -10 12 -10 31
0 88 8 46 9 88 4 113 -8 38 -9 37 -16 -36 -11 -125 -23 -129 -69 -21 -39 91
-55 112 -46 62z"/>
<path d="M1551 1130 c-2 -80 77 -312 127 -370 16 -18 12 -2 -17 60 -45 99 -75
189 -95 280 -11 52 -14 58 -15 30z"/>
<path d="M1520 640 c0 -11 89 -280 99 -297 19 -34 11 4 -28 124 -34 104 -69
191 -71 173z"/>
</g>
</svg>
