<?xml version="1.0" encoding="utf-8"?>
<!-- Generator: Adobe Illustrator 16.0.0, SVG Export Plug-In . SVG Version: 6.00 Build 0)  -->
<!DOCTYPE svg PUBLIC "-//W3C//DTD SVG 1.1//EN" "http://www.w3.org/Graphics/SVG/1.1/DTD/svg11.dtd">
<svg version="1.1" id="Layer_1" xmlns="http://www.w3.org/2000/svg" xmlns:xlink="http://www.w3.org/1999/xlink" x="0px" y="0px"
	 width="480px" height="45px" viewBox="0 0 480 45" enable-background="new 0 0 480 45" xml:space="preserve">
<path fill="#f9ac85" d="M256.732,20.257c-25.941-5.898-54.665,6.027-76.378,12.625c-19.853,6.032-49.011,11.735-71.02,10.452
	c-19.545-1.14-39.235-17.196-23.684-28.963c11.901-9.006,43.746,0.537,33.018,16.963c-3.667-11-9.667-13-18.333-12.667
	C90.144,19.058,84.146,24.764,93,31.334c14.107,10.467,53.441,4.595,66.333,0C188.281,21.016,225.754,12.539,256.732,20.257"/>
<path fill="#f9ac85" d="M216.555,28.172c25.941,5.898,54.665-6.026,76.379-12.624c19.853-6.032,49.011-11.735,71.02-10.452
	c19.545,1.14,39.234,17.196,23.684,28.963c-11.9,9.007-43.745-0.536-33.018-16.963c3.668,11,9.668,13,18.334,12.668
	c10.19-0.393,16.188-6.098,7.334-12.668c-14.107-10.467-53.441-4.595-66.334,0C285.006,27.414,247.533,35.891,216.555,28.172"/>
<path fill="#f9ac85" d="M94.25,7.5c-5.571,1.471-24.27,9.057-29.639,12.625c-5.123,3.404-9.64,6.162-15.361,9.375
	c-11.456,6.436-31.479,11.94-41.736,1.639c-9.52-9.562-6.75-24.553,6.349-28.114C25.301-0.085,44.513,9.248,32,24.25
	c1-7-1.75-11.875-8.25-15.25C18.778,6.418,10,9,8.25,14.25c-2.026,6.079,5.225,13.891,10.65,15.539
	c6.587,2.002,12.363,2.127,17.961-0.012C48.057,25.5,54.757,19.959,63.25,16c4.206-1.96,13.25-6.25,20.25-7.75
	C89.75,6.25,93.857,7.616,94.25,7.5"/>
<path fill="#f9ac85" d="M385.815,7.5c5.571,1.471,24.27,9.057,29.639,12.625c5.123,3.404,9.641,6.162,15.361,9.375
	c11.456,6.436,31.479,11.94,41.736,1.639c9.52-9.562,6.75-24.553-6.35-28.113c-11.438-3.11-30.649,6.223-18.137,21.225
	c-1-7,1.75-11.875,8.25-15.25c4.972-2.582,13.75,0,15.5,5.25c2.026,6.079-5.225,13.891-10.65,15.539
	c-6.588,2.002-12.363,2.127-17.961-0.012C432.009,25.5,425.308,19.959,416.815,16c-4.205-1.961-13.25-6.25-20.25-7.75
	C390.315,6.25,386.208,7.615,385.815,7.5"/>
</svg>
