<?xml version='1.0' encoding='utf-8'?>
<svg xmlns="http://www.w3.org/2000/svg" version="1.1" id="Layer_1" x="0px" y="0px" viewBox="0 0 5000 465.825" enable-background="new 0 0 5000 465.825"> <g> <path d="M2381.559,338.236c-92.651,30.8-180.905,34.467-265.603,21.451c-203.31-31.244-278.908-157.839-400.34-211.391 c-17.385-7.667-34.901-5.286-35.583-17.179c-0.483-8.417,7.453-11.826,14.57-14.419c18.507-6.744,37.639-10.414,57.191-12.754 c62.212-7.446,112.926,18.131,159.811,54.897c41.964,32.907,88.767,104.762,147.732,140.519 c69.825,42.343,171.018,39.832,251.785,24.36c74.644-14.299,164.916-55.255,177.009-63.51c2.67-1.823,8.098-2.51,6.268-7.49 c-1.384-3.766-5.624-2.337-8.74-2.338c-41.267-0.016-389.655-0.951-408.042-1.27c-9.728-0.168-17.43-3.074-23.988-9.993 c-22.061-23.274-23.378-22.505-22.519-25.135c0.856-2.62,3.356-1.542,5.257-1.445c73.914,3.766,147.835-1.22,221.742,0.131 c67.417,1.232,134.798-1.154,202.198-1.031c7.729,0.014,15.452,1.275,23.187,1.808c25.112,1.731-40.619-38.343-104.984-38.474 c-407.651-0.825-381.356,0.913-386.186-3.816c-29.54-28.929-31.409-27.687-30.142-31.14c1.485-4.047-24.389-0.99,436.694-7.546 c29.855-0.424,101.183-11.902,166.903,5.965c42.811,11.639,34.231,41.089,44.242,28.152 c29.577-38.225,95.847-38.208,144.174-33.492c82.358,8.036,497.789,2.488,500.578,8.127c1.183,2.39-1.142,3.426-2.869,4.477 c-28.708,17.468-22.794,29.043-43.414,29.038c-392.55-0.091-418.064-5.906-483.36,28.283c-3.118,1.633-7.691,3.953-6.669,7.829 c1.225,4.647,6.31,2.223,9.665,2.28c125.178,2.142,83.906-2.349,439.906,0.415c2.748,0.021,6.578-1.088,7.977,1.524 c1.988,3.711-2.333,5.68-4.293,7.883c-5.697,6.401-11.895,12.353-17.841,18.535c-3.942,4.098-8.551,5.364-14.313,5.322 c-85.434-0.624-385.614,1.347-416.373-1.368c-1.622-0.143-3.296-0.226-4.896,0.004c-3.032,0.436-7.291-1.43-8.663,2.529 c-1.589,4.584,2.915,6.305,5.777,8.199c20.199,13.372,42.379,22.984,64.488,32.48c102.97,44.23,230.834,59.326,314.641,33.59 c52.463-16.111,115.661-66.472,156.891-115.577c44.422-52.906,100.955-84.552,169.182-94.159 c34.145-4.808,67.561,1.563,99.934,12.989c4.625,1.632,11.124,1.844,10.479,9.585c-1.99,23.898-33.961-6.849-152.474,88.461 c-38.662,31.093-80.897,56.716-123.368,81.778c-33.136,19.554-69.99,31.827-107.005,41.781 c-98.903,26.596-195.38,30.53-321.176-11.102c-12.983-4.297-25.009-11.629-39.713-11.735c12.677,7.455,24.886,15.891,38.109,22.201 c72.654,34.673,149.886,53.423,229.463,62.051c40.118,4.35,80.513,2.572,121.003-0.181 c101.479-6.901,192.986-49.902,276.474-106.766c156.001-106.254,296.646-262.408,437.115-136.146 c19.173,17.234,29.279,41.056,38.706,64.669c2.632,6.592-0.288,10.517-7.685,9.496c-9.282-1.282-18.504-2.995-27.754-4.511 c-190.755-31.267-335.051,168.807-695.277,206.305c-52.889,5.506-105.035,0.586-157.454-5.896 c-116.144-14.361-181.051-41.684-239.002-74.278c-22.03-12.39-44.854-23.454-65.602-37.964 c-47.727-33.377-92.173-70.284-124.806-119.478c-6.08-9.165-9.667-0.284-11.003,2.772 c-21.646,49.5-191.615,181.797-358.634,215.772c-351.819,71.565-549.302-79.941-750.905-162.038 c-89.531-36.459-164.535-34.835-193.83-25.91c-4.496,1.37-7.995,0.369-11.072-2.899c-3.205-3.405-3.769-7.261-1.285-11.205 c23.373-37.114,27.029-75.325,96.57-98.379c43.508-14.424,86.502-8.363,128.725,4.886c19.769,6.203,37.592,17.563,55.682,27.873 c83.766,47.742,169.928,151.224,302.188,213.585c46.03,21.703,95.254,30.958,144.734,40.124 c46.156,8.55,91.827,3.628,137.785-0.953c58.452-5.826,115.074-19.353,170.389-38.52c17.699-6.133,34.653-14.466,51.774-22.179 c3.856-1.737,8.633-3.29,9.595-8.623c2.222,0.439,4.307,0.351,5.921-1.542C2387.594,336.941,2388.336,336.609,2381.559,338.236z"/> <path d="M797.315,243.244c-446.646,0-517.7,6.191-617.507-20.772c-46.647-12.602-91.142-30.699-126.769-65.85 c-11.212-11.063-25.408-19.124-36.042-31.114c-16.95-19.112-25.839-32.644-4.312-44.377c28.342-15.447,57.262-29.524,90.16-32.954 c22.071-2.301,47.895,10.703,57.895,30.63c12.725,25.356,28.088,79.656,88.834,110.615 c48.915,24.929,100.263,19.903,289.931,19.819c66.562-0.029,133.171-1.542,199.672,0.48c71.094,2.162,142.049-2.059,213.089-1.198 c258.549,3.136,250.114-6.267,241.164,11.231c-7.517,14.697-17.783,21.414-35.698,21.122 C1061.584,239.304,840.097,240.718,797.315,243.244z"/> <path d="M910.946,170.719c-43.651,0.939-87.381-2.19-131.053-1.651c-97.042,1.2-152.65-12.856-201.782-31.585 c-40.689-15.511-71.556-43.07-100.911-73.37c-11.423-11.791-11.125-24.666,3.394-32.315c34.092-17.96,68.003-37.928,109.522-30.02 c8.733,1.663,17.932,0.794,26.904,1.309c27.211,1.564,18.802,28.272,34.302,63.96c14.256,32.823,39.289,51.731,73.088,61.131 c36.072,10.033,72.873,7.36,109.498,7.447c425.954,1.012,407.37-2.444,410.499,3.821c2.124,4.253-2.285,7.342-4.126,10.847 c-8.299,15.794-20.734,22.431-38.99,20.678C1199.098,170.762,971.235,169.423,910.946,170.719z"/> <path d="M4210.51,146.692c254.267,2.202,329.118,15.464,359.181-87.228c2.855-9.754,6.979-19.15,8.09-29.458 c0.696-6.457,5.968-9.079,11.473-11.476c12.987-5.656,26.587-3.82,39.922-3.316c36.708,1.388,71.728,9.672,103.735,28.358 c13.587,7.932,15.036,16.944,4.32,28.688c-123.018,134.816-284.771,102.941-634.377,106.405 c-35.086,0.348-70.195-1.288-105.29-2.156c-6.688-0.165-23.767-19.007-22.929-25.397c0.854-6.511,6.526-5.373,10.662-5.099 C4017.292,148.136,4076.008,145.527,4210.51,146.692z"/> <path d="M1408.823,351.513c-201.311,4.248-289.854,0.92-386.126,69.691c-28.929,20.665-29.185,34.078-37.423,39.827 c-12.901,9.004-25.292,3.988-27.357-11.7c-3.08-23.4,1.058-46.583,6.633-69.053c15.874-63.972,67.79-108.305,128.626-98.644 c66.98,10.636,79.42,35.092,203.377,37.963c68.569,1.588,137.165-1.431,205.739,1.624c10.883,0.485,21.96,0.801,32.961,0.391 c13.109-0.488,9.11,9.971,9.882,16.736c0.806,7.064-0.832,12.705-10.257,12.87c-26.124,0.459-52.232-3.124-78.332-0.472 C1440.621,352.364,1424.723,351.178,1408.823,351.513z"/> <path d="M4090.302,297.563c33.995-13.741,84.403-13.698,112.86,15.191c34.848,35.378,50.623,85.898,50.228,134.102 c-0.055,6.778,1.739,14.146-7.609,17.105c-12.167,3.851-21.374,1.846-27.231-7.083c-49.814-75.927-167.58-85.762-256.655-94.155 c-66.083-6.227-78.839-7.993-261.726-10.092c-11.388-0.131-20.826-1.798-26.388-13.233c-1.723-3.544-3.371-6.525-1.538-10.205 c1.802-3.619,5.39-3.041,8.61-3.17C3803.957,321.08,3978.564,342.728,4090.302,297.563z"/> <path d="M4055.392,250.826c-17.839-0.064-27.556-7.313-32.178-24.085c-0.923-3.351,0.571-4.653,3.204-5.203 c7.699-1.61,750.528,3.798,758.194,3.875c122.04,1.229,158.133-7.262,190.465-26.433c6.777-4.019,10.138-3.118,13.67,2.991 c2.851,4.931,6.589,9.457,8.764,14.652c6.332,15.118,0.31,27.133-14.965,30.1c-29.279,5.689-58.943,8.816-88.694,8.902 C4860.208,255.722,4090.821,250.953,4055.392,250.826z"/> </g> </svg>