<svg xmlns="http://www.w3.org/2000/svg" xmlns:xlink="http://www.w3.org/1999/xlink" version="1.1" width="1000" height="1000" viewBox="0 0 1000 1000" xml:space="preserve">
<desc>Created with Fabric.js 3.5.0</desc>
<defs>
</defs>
<rect x="0" y="0" width="100%" height="100%" fill="#f9ac85"/>
<g transform="matrix(0.9091 0 0 0.9091 500.0045 500.0045)" id="567099">
<g style="" vector-effect="non-scaling-stroke">
		<g transform="matrix(1 0 0 1 -450 -450)">
<rect style="stroke: none; stroke-width: 1; stroke-dasharray: none; stroke-linecap: butt; stroke-dashoffset: 0; stroke-linejoin: miter; stroke-miterlimit: 4; is-custom-font: none; font-file-url: none; fill: rgb(249,172,133); fill-rule: nonzero; opacity: 1;" x="-50" y="-50" rx="0" ry="0" width="100" height="100"/>
</g>
		<g transform="matrix(0.9091 0 0 0.9091 -409.0905 -409.0905)" id="906189">
<rect style="stroke: none; stroke-width: 1; stroke-dasharray: none; stroke-linecap: butt; stroke-dashoffset: 0; stroke-linejoin: miter; stroke-miterlimit: 4; is-custom-font: none; font-file-url: none; fill: rgb(249,172,133); fill-rule: nonzero; opacity: 1;" vector-effect="non-scaling-stroke" x="-50" y="-50" rx="0" ry="0" width="100" height="100"/>
</g>
		<g transform="matrix(0.7216 0 0 0.7216 0.7841 0.7813)" id="Layer_1">
<path style="stroke: none; stroke-width: 1; stroke-dasharray: none; stroke-linecap: butt; stroke-dashoffset: 0; stroke-linejoin: miter; stroke-miterlimit: 4; is-custom-font: none; font-file-url: none; fill: rgb(0,0,0); fill-rule: nonzero; opacity: 1;" vector-effect="non-scaling-stroke" transform=" translate(-631, -601)" d="M 412 1201 C 275.05481 1201 138.109619 1201 1 1201 C 1 983.975098 1 766.950195 1.381338 549.473022 C 25.649467 559.053711 49.562756 569.02417 73.414825 579.139038 C 93.406578 587.616699 113.282768 596.367432 133.289948 604.808044 C 158.205063 615.319214 183.235123 625.557861 208.153549 636.061279 C 228.154465 644.491943 248.06514 653.136719 268.011688 661.696228 C 277.225861 665.650208 278.330505 665.292542 285.532104 658.146912 C 296.478546 647.285461 307.580353 636.580017 318.674133 625.868347 C 321.508698 623.131409 324.481293 620.522949 327.526703 618.021301 C 342.13739 606.019348 356.585419 593.805603 371.494171 582.184021 C 386.601715 570.407471 401.695831 558.500671 417.663025 547.965332 C 444.34848 530.358032 471.589203 513.576416 498.862335 496.881927 C 513.802917 487.736481 529.154846 479.234009 544.571472 470.904755 C 556.542725 464.437012 568.829346 458.535919 581.10675 452.656525 C 595.301697 445.858826 609.471069 438.96225 623.95343 432.820435 C 649.727539 421.889923 675.601135 411.168427 701.672974 400.973022 C 725.196594 391.774048 749.008789 383.306335 772.758301 374.694336 C 784.29248 370.51178 784.222046 370.708801 783.045837 357.837616 C 781.56604 341.643188 780.359253 325.423889 778.996216 309.218597 C 778.034607 297.785706 776.980042 286.360657 776.01886 274.927734 C 774.655273 258.70752 773.34906 242.482513 771.999939 226.261078 C 771.019653 214.47435 770.008179 202.690247 769.013306 190.904724 C 767.675537 175.057892 766.341431 159.21077 765.003784 143.363937 C 764.008057 131.567001 762.996399 119.771393 762.014893 107.973289 C 760.666565 91.764801 759.284058 75.558876 758.021301 59.34367 C 756.93689 45.419003 756.074158 31.476912 754.96106 17.554703 C 754.518494 12.019589 753.665955 6.517255 753 0.999998 C 922.264771 1 1091.529541 1 1261 1 C 1261 181.358185 1261 361.716431 1260.707764 542.867188 C 1259.93811 542.84967 1259.293945 542.094116 1259.009277 541.221313 C 1256.138184 532.418457 1253.36084 523.585022 1250.490356 514.781982 C 1242.093018 489.027771 1233.628296 463.295502 1225.259277 437.532104 C 1216.796875 411.480835 1208.432251 385.397766 1199.994873 359.338257 C 1195.7052 346.08902 1191.270752 332.885956 1187.092529 319.60199 C 1186.272583 316.994659 1185.213135 315.58963 1182.367798 316.001709 C 1166.215942 318.340973 1150.045776 320.559509 1133.912109 323.017914 C 1117.171753 325.568817 1100.402832 328.00885 1083.762207 331.117065 C 1066.359131 334.367737 1048.926147 337.710541 1031.803955 342.159119 C 998.357849 350.848846 964.792236 359.309753 931.886353 369.782867 C 899.01062 380.246429 866.753174 392.717346 834.472473 404.961609 C 815.245789 412.254395 796.31366 420.403442 777.585388 428.90802 C 759.689148 437.03476 742.105408 445.880798 724.610352 454.851471 C 706.768738 463.999878 688.941467 473.23288 671.58075 483.248352 C 649.235535 496.139465 627.007385 509.302216 605.381226 523.352173 C 583.026123 537.875732 561.059143 553.07135 539.640869 568.942627 C 515.145325 587.094238 491.228821 606.050049 467.475372 625.171509 C 453.707001 636.254944 440.581329 648.161011 427.48465 660.047546 C 415.010742 671.368835 402.790894 682.983032 390.760376 694.775574 C 381.773529 703.584717 373.21701 712.836426 364.557343 721.974854 C 354.446899 732.644287 344.256348 743.246094 334.422058 754.166809 C 322.680786 767.205078 311.050598 780.358093 299.79245 793.812988 C 286.819489 809.317139 273.604095 824.69635 261.745636 841.038086 C 240.457397 870.374634 219.86824 900.228516 199.427124 930.166809 C 179.435745 959.446228 162.12471 990.36084 145.05632 1021.410767 C 142.918304 1025.300171 143.198166 1026.811768 146.987564 1029.152588 C 164.10405 1039.726074 181.026062 1050.616577 197.95105 1061.497437 C 219.428284 1075.304688 240.811813 1089.257812 262.287506 1103.067627 C 296.927917 1125.342773 331.608643 1147.555054 366.276276 1169.787964 C 380.081665 1178.641479 393.928558 1187.431274 407.669586 1196.383423 C 409.386749 1197.502197 410.56958 1199.441162 412 1201 z" stroke-linecap="round"/>
</g>
		<g transform="matrix(0.7216 0 0 0.7216 52.2409 114.3935)" id="Layer_1">
<path style="stroke: none; stroke-width: 1; stroke-dasharray: none; stroke-linecap: butt; stroke-dashoffset: 0; stroke-linejoin: miter; stroke-miterlimit: 4; is-custom-font: none; font-file-url: none; fill: rgb(249,172,133); fill-rule: nonzero; opacity: 1;" vector-effect="non-scaling-stroke" transform=" translate(-702.3189, -758.4653)" d="M 412.399994 1201 C 410.56958 1199.441162 409.386749 1197.502197 407.669586 1196.383423 C 393.928558 1187.431274 380.081665 1178.641479 366.276276 1169.787964 C 331.608643 1147.555054 296.927917 1125.342773 262.287506 1103.067627 C 240.811813 1089.257812 219.428284 1075.304688 197.95105 1061.497437 C 181.026062 1050.616577 164.10405 1039.726074 146.987564 1029.152588 C 143.198166 1026.811768 142.918304 1025.300171 145.05632 1021.410767 C 162.12471 990.36084 179.435745 959.446228 199.427124 930.166809 C 219.86824 900.228516 240.457397 870.374634 261.745636 841.038086 C 273.604095 824.69635 286.819489 809.317139 299.79245 793.812988 C 311.050598 780.358093 322.680786 767.205078 334.422058 754.166809 C 344.256348 743.246094 354.446899 732.644287 364.557343 721.974854 C 373.21701 712.836426 381.773529 703.584717 390.760376 694.775574 C 402.790894 682.983032 415.010742 671.368835 427.48465 660.047546 C 440.581329 648.161011 453.707001 636.254944 467.475372 625.171509 C 491.228821 606.050049 515.145325 587.094238 539.640869 568.942627 C 561.059143 553.07135 583.026123 537.875732 605.381226 523.352173 C 627.007385 509.302216 649.235535 496.139465 671.58075 483.248352 C 688.941467 473.23288 706.768738 463.999878 724.610352 454.851471 C 742.105408 445.880798 759.689148 437.03476 777.585388 428.90802 C 796.31366 420.403442 815.245789 412.254395 834.472473 404.961609 C 866.753174 392.717346 899.01062 380.246429 931.886353 369.782867 C 964.792236 359.309753 998.357849 350.848846 1031.803955 342.159119 C 1048.926147 337.710541 1066.359131 334.367737 1083.762207 331.117065 C 1100.402832 328.00885 1117.171753 325.568817 1133.912109 323.017914 C 1150.045776 320.559509 1166.215942 318.340973 1182.367798 316.001709 C 1185.213135 315.58963 1186.272583 316.994659 1187.092529 319.60199 C 1191.270752 332.885956 1195.7052 346.08902 1199.994873 359.338257 C 1208.432251 385.397766 1216.796875 411.480835 1225.259277 437.532104 C 1233.628296 463.295502 1242.093018 489.027771 1250.490356 514.781982 C 1253.36084 523.585022 1256.138184 532.418457 1259.009277 541.221313 C 1259.293945 542.094116 1259.93811 542.84967 1260.707764 543.329834 C 1261 545.370544 1261 547.74115 1260.617798 550.307495 C 1247.657349 553.080017 1234.929688 555.088501 1222.530396 558.346252 C 1192.415649 566.258606 1162.147705 573.796204 1132.516357 583.280823 C 1103.19043 592.667847 1074.364746 603.737793 1045.701782 615.038635 C 1021.907715 624.419861 998.490723 634.821594 975.245422 645.50824 C 959.08728 652.936768 943.227051 661.123474 927.727295 669.848267 C 904.064026 683.16803 880.504761 696.730652 857.499084 711.144287 C 834.229858 725.7229 811.119141 740.685913 788.982605 756.904968 C 765.453674 774.144104 742.871765 792.719727 720.400696 811.344482 C 702.861694 825.881287 685.391602 840.643738 669.203369 856.634521 C 644.829163 880.711365 621.294312 905.664124 598.000488 930.798523 C 584.102661 945.794556 571.048157 961.60675 558.162109 977.496216 C 545.15271 993.537842 532.196838 1009.691162 520.345398 1026.586792 C 504.911499 1048.589478 490.011627 1071.01709 475.94223 1093.91333 C 460.130005 1119.645996 445.351715 1146.020996 430.434387 1172.292969 C 425.152618 1181.594971 420.785004 1191.415894 416 1201 C 414.933319 1201 413.866669 1201 412.399994 1201 z" stroke-linecap="round"/>
</g>
		<g transform="matrix(0.7216 0 0 0.7216 150.6657 199.1056)" id="Layer_1">
<path style="stroke: none; stroke-width: 1; stroke-dasharray: none; stroke-linecap: butt; stroke-dashoffset: 0; stroke-linejoin: miter; stroke-miterlimit: 4; is-custom-font: none; font-file-url: none; fill: rgb(0,0,0); fill-rule: nonzero; opacity: 1;" vector-effect="non-scaling-stroke" transform=" translate(-838.7343, -875.8758)" d="M 416.468689 1201 C 420.785004 1191.415894 425.152618 1181.594971 430.434387 1172.292969 C 445.351715 1146.020996 460.130005 1119.645996 475.94223 1093.91333 C 490.011627 1071.01709 504.911499 1048.589478 520.345398 1026.586792 C 532.196838 1009.691162 545.15271 993.537842 558.162109 977.496216 C 571.048157 961.60675 584.102661 945.794556 598.000488 930.798523 C 621.294312 905.664124 644.829163 880.711365 669.203369 856.634521 C 685.391602 840.643738 702.861694 825.881287 720.400696 811.344482 C 742.871765 792.719727 765.453674 774.144104 788.982605 756.904968 C 811.119141 740.685913 834.229858 725.7229 857.499084 711.144287 C 880.504761 696.730652 904.064026 683.16803 927.727295 669.848267 C 943.227051 661.123474 959.08728 652.936768 975.245422 645.50824 C 998.490723 634.821594 1021.907715 624.419861 1045.701782 615.038635 C 1074.364746 603.737793 1103.19043 592.667847 1132.516357 583.280823 C 1162.147705 573.796204 1192.415649 566.258606 1222.530396 558.346252 C 1234.929688 555.088501 1247.657349 553.080017 1260.617798 550.751587 C 1261 767.572815 1261 984.145569 1261 1201 C 1141.312622 1201 1021.624939 1201 901.130371 1200.767944 C 900.730957 1200.012695 901.044739 1199.36084 901.559998 1198.985474 C 913.001648 1190.651367 924.440063 1182.312134 935.931213 1174.046509 C 951.973145 1162.507446 968.115051 1151.106567 984.109009 1139.501709 C 1003.549622 1125.396118 1022.850281 1111.097778 1042.268555 1096.961304 C 1059.460083 1084.446289 1076.753174 1072.070557 1093.896606 1059.490479 C 1094.753418 1058.861694 1095.338623 1056.440308 1094.827393 1055.582886 C 1087.360107 1043.056885 1079.598633 1030.706787 1072.081299 1018.210144 C 1063.881226 1004.57843 1055.961548 990.777771 1047.736206 977.16156 C 1038.602783 962.042114 1029.199707 947.085571 1020.027649 931.989136 C 1009.273926 914.289429 998.623413 896.526733 987.963867 878.769958 C 978.789246 863.486694 969.740967 848.127014 960.497253 832.885864 C 950.579651 816.53363 940.44043 800.315918 930.506897 783.973267 C 921.252502 768.747986 912.141541 753.435669 902.379944 737.183533 C 813.734741 797.6521 744.627747 874.302124 698.494995 970.135498 C 707.836914 981.24939 716.164246 991.357056 724.716248 1001.270996 C 732.427246 1010.210022 740.467529 1018.864502 748.211914 1027.775513 C 758.169678 1039.233643 767.96405 1050.833618 777.855103 1062.349854 C 782.346558 1067.579346 786.938171 1072.723145 791.4198 1077.960938 C 800.973206 1089.126343 810.453613 1100.35437 820.023499 1111.505493 C 826.746521 1119.339478 833.618042 1127.046143 840.333191 1134.886841 C 849.687988 1145.809448 858.902771 1156.852051 868.283447 1167.752319 C 875.537537 1176.181274 883.017944 1184.415527 890.259888 1192.854736 C 892.413086 1195.364014 894.099609 1198.273804 896 1201 C 736.312439 1201 576.624878 1201 416.468689 1201 z" stroke-linecap="round"/>
</g>
		<g transform="matrix(0.7216 0 0 0.7216 -171.4441 -192.8909)" id="Layer_1">
<path style="stroke: none; stroke-width: 1; stroke-dasharray: none; stroke-linecap: butt; stroke-dashoffset: 0; stroke-linejoin: miter; stroke-miterlimit: 4; is-custom-font: none; font-file-url: none; fill: rgb(249,172,133); fill-rule: nonzero; opacity: 1;" vector-effect="non-scaling-stroke" transform=" translate(-392.3247, -332.6073)" d="M 752.531372 0.999998 C 753.665955 6.517255 754.518494 12.019589 754.96106 17.554703 C 756.074158 31.476912 756.93689 45.419003 758.021301 59.34367 C 759.284058 75.558876 760.666565 91.764801 762.014893 107.973289 C 762.996399 119.771393 764.008057 131.567001 765.003784 143.363937 C 766.341431 159.21077 767.675537 175.057892 769.013306 190.904724 C 770.008179 202.690247 771.019653 214.47435 771.999939 226.261078 C 773.34906 242.482513 774.655273 258.70752 776.01886 274.927734 C 776.980042 286.360657 778.034607 297.785706 778.996216 309.218597 C 780.359253 325.423889 781.56604 341.643188 783.045837 357.837616 C 784.222046 370.708801 784.29248 370.51178 772.758301 374.694336 C 749.008789 383.306335 725.196594 391.774048 701.672974 400.973022 C 675.601135 411.168427 649.727539 421.889923 623.95343 432.820435 C 609.471069 438.96225 595.301697 445.858826 581.10675 452.656525 C 568.829346 458.535919 556.542725 464.437012 544.571472 470.904755 C 529.154846 479.234009 513.802917 487.736481 498.862335 496.881927 C 471.589203 513.576416 444.34848 530.358032 417.663025 547.965332 C 401.695831 558.500671 386.601715 570.407471 371.494171 582.184021 C 356.585419 593.805603 342.13739 606.019348 327.526703 618.021301 C 324.481293 620.522949 321.508698 623.131409 318.674133 625.868347 C 307.580353 636.580017 296.478546 647.285461 285.532104 658.146912 C 278.330505 665.292542 277.225861 665.650208 268.011688 661.696228 C 248.06514 653.136719 228.154465 644.491943 208.153549 636.061279 C 183.235123 625.557861 158.205063 615.319214 133.289948 604.808044 C 113.282768 596.367432 93.406578 587.616699 73.414825 579.139038 C 49.562756 569.02417 25.649467 559.053711 1.381338 549.010376 C 1 546.629456 1 544.25885 1.359192 541.63739 C 2.13797 540.72229 2.717641 540.110291 2.95392 539.386292 C 10.644453 515.822388 18.340235 492.260101 25.953516 468.671173 C 33.426193 445.517914 40.72435 422.308136 48.255306 399.173981 C 57.02454 372.235931 66.022667 345.372314 74.74826 318.420288 C 75.758232 315.300629 76.54763 314.795807 79.874344 315.759949 C 88.44429 318.243683 97.228554 319.99295 105.93705 321.992676 C 130.785721 327.698761 155.646851 333.350647 180.488297 339.087891 C 197.387924 342.990997 214.266281 346.98645 231.14769 350.967957 C 259.677216 357.696686 288.210327 364.410858 316.725372 371.2005 C 337.200348 376.075745 357.636383 381.114624 378.11145 385.98938 C 404.890991 392.365204 431.689697 398.660706 458.485718 404.967133 C 463.461395 406.138123 468.463318 407.197449 473.707001 408.364838 C 474.861511 396.898193 476.075104 386.350677 476.950745 375.775177 C 478.105988 361.822388 478.990082 347.847229 480.00354 333.882599 C 480.337219 329.285217 480.66037 324.686188 481.0755 320.095764 C 482.360901 305.88147 483.753296 291.676575 484.976196 277.457031 C 485.77774 268.137085 486.27887 258.791473 487.054779 249.469055 C 488.308746 234.402359 489.719238 219.348724 490.983337 204.282837 C 491.740082 195.263763 492.233734 186.222 493.042542 177.208099 C 494.271759 163.508713 495.775848 149.83371 496.9646 136.131104 C 497.819153 126.280426 498.252808 116.393822 499.047119 106.537178 C 500.287445 91.146309 501.693207 75.768837 502.987793 60.382233 C 503.386841 55.639332 503.580505 50.878979 503.991638 46.137314 C 505.296448 31.088827 506.659485 16.045389 508 1 C 589.354248 1 670.708435 1 752.531372 0.999998 z" stroke-linecap="round"/>
</g>
		<g transform="matrix(0.7216 0 0 0.7216 -271.0674 -237.277)" id="Layer_1">
<path style="stroke: none; stroke-width: 1; stroke-dasharray: none; stroke-linecap: butt; stroke-dashoffset: 0; stroke-linejoin: miter; stroke-miterlimit: 4; is-custom-font: none; font-file-url: none; fill: rgb(0,0,0); fill-rule: nonzero; opacity: 1;" vector-effect="non-scaling-stroke" transform=" translate(-254.2657, -271.0966)" d="M 507.531342 1 C 506.659485 16.045389 505.296448 31.088827 503.991638 46.137314 C 503.580505 50.878979 503.386841 55.639332 502.987793 60.382233 C 501.693207 75.768837 500.287445 91.146309 499.047119 106.537178 C 498.252808 116.393822 497.819153 126.280426 496.9646 136.131104 C 495.775848 149.83371 494.271759 163.508713 493.042542 177.208099 C 492.233734 186.222 491.740082 195.263763 490.983337 204.282837 C 489.719238 219.348724 488.308746 234.402359 487.054779 249.469055 C 486.27887 258.791473 485.77774 268.137085 484.976196 277.457031 C 483.753296 291.676575 482.360901 305.88147 481.0755 320.095764 C 480.66037 324.686188 480.337219 329.285217 480.00354 333.882599 C 478.990082 347.847229 478.105988 361.822388 476.950745 375.775177 C 476.075104 386.350677 474.861511 396.898193 473.707001 408.364838 C 468.463318 407.197449 463.461395 406.138123 458.485718 404.967133 C 431.689697 398.660706 404.890991 392.365204 378.11145 385.98938 C 357.636383 381.114624 337.200348 376.075745 316.725372 371.2005 C 288.210327 364.410858 259.677216 357.696686 231.14769 350.967957 C 214.266281 346.98645 197.387924 342.990997 180.488297 339.087891 C 155.646851 333.350647 130.785721 327.698761 105.93705 321.992676 C 97.228554 319.99295 88.44429 318.243683 79.874344 315.759949 C 76.54763 314.795807 75.758232 315.300629 74.74826 318.420288 C 66.022667 345.372314 57.02454 372.235931 48.255306 399.173981 C 40.72435 422.308136 33.426193 445.517914 25.953516 468.671173 C 18.340235 492.260101 10.644453 515.822388 2.95392 539.386292 C 2.717641 540.110291 2.13797 540.72229 1.359192 541.193237 C 1 361.075165 1 181.15033 1 1 C 169.6875 1 338.375092 1 507.531342 1 z" stroke-linecap="round"/>
</g>
		<g transform="matrix(0.7216 0 0 0.7216 192.5212 266.3614)" id="Layer_1">
<path style="stroke: none; stroke-width: 1; stroke-dasharray: none; stroke-linecap: butt; stroke-dashoffset: 0; stroke-linejoin: miter; stroke-miterlimit: 4; is-custom-font: none; font-file-url: none; fill: rgb(249,172,133); fill-rule: nonzero; opacity: 1;" vector-effect="non-scaling-stroke" transform=" translate(-896.7566, -969.0918)" d="M 896.416626 1201 C 894.099609 1198.273804 892.413086 1195.364014 890.259888 1192.854736 C 883.017944 1184.415527 875.537537 1176.181274 868.283447 1167.752319 C 858.902771 1156.852051 849.687988 1145.809448 840.333191 1134.886841 C 833.618042 1127.046143 826.746521 1119.339478 820.023499 1111.505493 C 810.453613 1100.35437 800.973206 1089.126343 791.4198 1077.960938 C 786.938171 1072.723145 782.346558 1067.579346 777.855103 1062.349854 C 767.96405 1050.833618 758.169678 1039.233643 748.211914 1027.775513 C 740.467529 1018.864502 732.427246 1010.210022 724.716248 1001.270996 C 716.164246 991.357056 707.836914 981.24939 698.494995 970.135498 C 744.627747 874.302124 813.734741 797.6521 902.379944 737.183533 C 912.141541 753.435669 921.252502 768.747986 930.506897 783.973267 C 940.44043 800.315918 950.579651 816.53363 960.497253 832.885864 C 969.740967 848.127014 978.789246 863.486694 987.963867 878.769958 C 998.623413 896.526733 1009.273926 914.289429 1020.027649 931.989136 C 1029.199707 947.085571 1038.602783 962.042114 1047.736206 977.16156 C 1055.961548 990.777771 1063.881226 1004.57843 1072.081299 1018.210144 C 1079.598633 1030.706787 1087.360107 1043.056885 1094.827393 1055.582886 C 1095.338623 1056.440308 1094.753418 1058.861694 1093.896606 1059.490479 C 1076.753174 1072.070557 1059.460083 1084.446289 1042.268555 1096.961304 C 1022.850281 1111.097778 1003.549622 1125.396118 984.109009 1139.501709 C 968.115051 1151.106567 951.973145 1162.507446 935.931213 1174.046509 C 924.440063 1182.312134 913.001648 1190.651367 901.559998 1198.985474 C 901.044739 1199.36084 900.730957 1200.012695 900.661682 1200.767944 C 899.611084 1201 898.222229 1201 896.416626 1201 z" stroke-linecap="round"/>
</g>
</g>
</g>
</svg>