<?xml version="1.0" standalone="no"?>
<!DOCTYPE svg PUBLIC "-//W3C//DTD SVG 20010904//EN"
 "http://www.w3.org/TR/2001/REC-SVG-20010904/DTD/svg10.dtd">
<svg version="1.0" xmlns="http://www.w3.org/2000/svg"
 width="1280.000000pt" height="1280.000000pt" viewBox="0 0 1280.000000 1280.000000"
 preserveAspectRatio="xMidYMid meet">
<metadata>
Created by potrace 1.15, written by Peter Selinger 2001-2017
</metadata>
<g transform="translate(0.000000,1280.000000) scale(0.100000,-0.100000)"
fill="#000000" stroke="none">
<path d="M4276 12713 c-28 -151 -39 -283 -33 -413 6 -145 30 -234 80 -303 129
-180 277 -314 497 -452 41 -26 64 -44 50 -41 -14 4 -86 22 -161 41 -75 19
-185 41 -245 49 -285 39 -520 68 -629 79 l-120 12 -9 58 c-7 49 -11 57 -30 57
-44 0 -51 15 -28 55 l22 36 -21 40 c-17 34 -24 40 -42 35 -12 -4 -35 -9 -51
-13 -28 -6 -28 -5 -21 28 3 19 9 42 12 52 3 12 -8 30 -32 53 -35 33 -38 34
-61 19 -31 -20 -32 -20 -42 17 -7 27 -15 35 -50 45 -42 12 -42 11 -68 -23
l-27 -35 -29 36 c-25 30 -35 35 -73 35 -44 0 -55 -10 -55 -51 0 -23 -12 -24
-50 -4 -26 14 -33 13 -70 -1 -40 -16 -41 -18 -35 -52 l6 -34 -35 6 c-29 6 -40
2 -70 -25 l-36 -31 25 -36 c14 -20 25 -40 25 -43 0 -4 -18 -10 -40 -14 -34 -6
-44 -13 -60 -46 -11 -21 -20 -42 -20 -46 0 -5 19 -21 42 -35 26 -18 36 -29 27
-32 -8 -3 -129 -7 -269 -10 -275 -5 -437 -20 -708 -66 -270 -47 -348 -39 -454
44 -101 80 -135 168 -103 267 46 143 133 237 253 273 240 71 572 -45 572 -200
0 -36 -43 -101 -90 -134 -104 -74 -232 -62 -334 30 -52 49 -56 50 -97 44 l-43
-7 52 -48 c146 -134 417 -129 561 11 93 90 57 192 -92 265 -204 100 -498 112
-664 28 -108 -54 -204 -186 -218 -300 -21 -165 151 -320 360 -324 l50 -1 -35
-10 c-118 -34 -257 -82 -267 -91 -10 -11 -56 -145 -84 -247 l-13 -45 -7 70
c-14 122 -58 211 -138 274 -116 92 -268 72 -400 -54 -106 -101 -147 -225 -138
-425 16 -366 194 -591 346 -439 141 141 147 414 12 561 l-48 52 -7 -43 c-6
-41 -4 -45 43 -96 75 -83 96 -163 67 -258 -26 -86 -108 -167 -170 -167 -155 0
-271 332 -200 572 36 120 130 207 273 253 99 32 187 -2 267 -103 83 -106 91
-184 44 -454 -46 -272 -61 -433 -67 -715 -3 -145 -9 -263 -14 -263 -4 0 -17
16 -29 35 -25 41 -28 41 -79 15 -33 -16 -40 -26 -46 -60 -4 -22 -10 -40 -14
-40 -3 0 -23 11 -43 25 l-36 25 -31 -36 c-27 -30 -31 -41 -25 -70 l6 -35 -34
6 c-34 6 -36 5 -52 -35 -14 -37 -15 -44 -1 -70 20 -38 19 -50 -4 -50 -41 0
-51 -11 -51 -55 0 -38 5 -48 35 -73 l36 -29 -35 -27 c-34 -26 -35 -26 -23 -68
10 -35 18 -43 45 -50 37 -10 37 -11 17 -42 -15 -23 -14 -26 19 -61 23 -24 41
-35 53 -32 10 3 33 9 52 12 l34 7 -7 -37 c-4 -20 -10 -43 -12 -50 -4 -9 9 -21
36 -35 l41 -21 36 22 c38 24 53 17 53 -27 0 -19 8 -23 57 -30 l58 -9 7 -80 c7
-74 50 -418 84 -669 8 -60 30 -170 49 -245 19 -75 37 -147 41 -161 3 -14 -15
9 -41 50 -107 170 -218 305 -326 397 -125 105 -166 131 -243 156 -102 32 -385
31 -561 -2 -65 -12 -122 -24 -125 -27 -8 -9 106 -108 182 -159 162 -110 285
-117 522 -28 l99 37 56 -29 c138 -72 382 -379 492 -621 47 -103 92 -296 93
-399 1 -83 -2 -96 -32 -158 -45 -92 -128 -179 -205 -217 -206 -100 -475 -24
-564 158 -24 50 -28 71 -31 167 -4 126 10 199 61 304 40 81 116 166 164 182
71 23 162 -4 227 -67 51 -50 70 -90 70 -154 1 -67 -18 -109 -91 -198 -52 -63
-60 -86 -44 -126 7 -17 13 -13 49 35 72 95 95 159 100 275 6 133 -11 187 -82
260 -94 97 -219 107 -303 25 -117 -113 -191 -387 -165 -615 6 -56 20 -128 32
-158 52 -140 200 -228 381 -228 228 0 408 163 444 403 14 93 18 89 40 -38 18
-106 19 -209 4 -269 l-11 -44 -111 -4 c-77 -3 -122 -10 -143 -21 -43 -22 -91
-79 -105 -124 -10 -35 -26 -263 -18 -263 13 0 104 31 113 39 6 4 25 11 41 15
47 11 158 81 198 125 67 74 72 92 70 231 -4 169 -20 329 -49 487 -13 73 -24
136 -24 140 1 4 23 -50 49 -122 27 -71 67 -170 89 -220 58 -131 197 -394 222
-420 12 -12 44 -35 73 -51 47 -26 61 -29 142 -28 90 0 171 22 220 58 19 14 19
16 -15 87 -68 141 -151 253 -212 285 -48 25 -91 18 -145 -25 -27 -21 -66 -58
-87 -82 -30 -35 -39 -41 -46 -29 -5 8 -10 20 -10 27 0 6 -21 46 -46 89 -50 85
-76 139 -135 287 -44 109 -169 462 -169 477 0 5 23 -7 51 -26 142 -96 277 -79
403 49 109 111 156 231 156 395 0 153 -42 276 -139 403 -93 124 -188 189 -274
189 -38 0 -53 -6 -82 -32 -138 -121 -137 -427 2 -561 42 -40 152 -92 166 -78
5 5 7 25 5 46 -3 36 -6 38 -66 62 -189 76 -253 289 -125 417 52 52 97 63 164
41 101 -33 261 -219 309 -360 47 -135 30 -234 -59 -362 -81 -115 -175 -176
-271 -176 -177 0 -309 135 -360 368 -34 160 -89 504 -116 728 -21 180 -24 224
-14 248 l13 29 29 -40 c16 -22 31 -40 34 -40 2 0 21 7 43 16 36 14 41 20 47
60 3 24 10 44 15 44 5 0 23 -9 41 -20 18 -11 38 -20 43 -20 18 0 55 66 55 99
0 31 1 32 33 26 33 -6 34 -6 46 38 11 38 11 49 -4 77 -9 17 -15 33 -13 35 2 2
19 7 38 12 34 9 35 11 32 54 -2 36 -8 49 -37 74 l-35 30 39 22 39 23 -16 41
c-11 29 -24 44 -44 51 -31 11 -34 19 -16 48 10 16 9 23 -12 45 -37 40 -52 45
-99 34 -24 -5 -45 -8 -47 -6 -2 2 2 25 10 51 l14 47 -39 19 -39 20 -40 -20
c-21 -11 -41 -20 -44 -20 -3 0 -6 17 -8 38 -3 33 -6 37 -34 40 -18 2 -49 -4
-70 -13 l-37 -15 6 197 c8 213 29 434 52 523 8 30 24 113 35 185 31 193 116
499 150 541 13 15 214 83 335 113 44 11 137 29 206 40 69 11 155 27 191 36
106 24 308 44 520 52 l198 6 -15 -37 c-9 -21 -15 -52 -13 -70 3 -28 7 -31 41
-34 20 -2 37 -5 37 -8 0 -3 -9 -23 -20 -44 l-20 -40 20 -39 19 -39 47 14 c26
8 49 12 51 10 2 -2 -1 -23 -6 -47 -11 -47 -6 -62 33 -98 24 -22 28 -23 52 -11
22 12 27 12 34 0 6 -8 10 -21 10 -28 0 -13 57 -42 83 -42 8 0 22 16 33 35 l19
35 30 -35 c25 -29 38 -35 74 -37 43 -3 45 -2 54 32 5 19 10 36 12 38 2 2 18
-4 35 -13 28 -15 39 -15 77 -4 44 12 44 13 38 46 -6 32 -5 33 26 33 33 0 99
37 99 55 0 6 -9 25 -20 43 -26 42 -25 52 3 52 47 0 66 12 81 51 9 22 16 41 16
43 0 3 -18 18 -40 34 l-40 29 28 12 c23 10 59 9 173 -4 285 -31 746 -106 869
-141 158 -45 261 -140 295 -272 18 -65 12 -117 -18 -177 -73 -146 -273 -269
-408 -251 -128 17 -271 98 -382 215 -108 114 -122 201 -45 280 75 77 174 91
276 40 71 -35 113 -83 147 -166 22 -55 25 -58 60 -61 21 -2 41 0 46 5 4 4 -3
35 -16 68 -31 76 -112 156 -182 179 -160 52 -357 17 -441 -79 -75 -85 -17
-223 148 -350 129 -100 259 -145 415 -145 155 0 271 44 384 146 134 122 154
270 56 413 -19 28 -31 51 -25 51 14 0 363 -123 480 -170 127 -51 228 -99 304
-144 32 -20 64 -36 70 -36 6 0 18 -5 26 -10 12 -7 6 -16 -29 -46 -141 -121
-155 -199 -54 -296 48 -45 137 -103 232 -148 71 -34 73 -34 87 -15 36 49 58
130 58 220 1 81 -2 95 -28 142 -16 29 -39 61 -51 73 -26 25 -289 164 -420 222
-49 22 -148 63 -220 90 -71 27 -114 46 -95 43 19 -3 98 -17 175 -30 162 -27
496 -49 544 -35 74 21 143 84 198 180 17 30 35 69 39 85 4 17 11 35 15 41 8 9
39 100 39 113 0 8 -228 -8 -263 -18 -45 -14 -102 -62 -124 -105 -11 -21 -18
-66 -21 -143 -4 -91 -7 -113 -21 -118 -40 -17 -190 -17 -291 0 -58 9 -109 20
-115 23 -5 3 27 11 72 18 196 28 341 151 388 329 41 159 -6 342 -113 436 -58
51 -133 77 -258 91 -228 26 -502 -48 -615 -165 -82 -84 -72 -209 25 -303 73
-71 126 -87 259 -82 116 4 180 27 276 100 48 36 52 42 35 49 -39 16 -64 8
-116 -37 -90 -77 -135 -98 -203 -98 -68 0 -107 17 -158 68 -63 62 -91 158 -68
229 16 48 101 124 182 164 105 51 178 65 304 61 96 -3 117 -7 167 -31 182 -89
257 -359 158 -564 -61 -124 -221 -234 -350 -241 -103 -6 -341 55 -468 120
-259 133 -506 334 -578 473 l-28 52 37 99 c87 232 83 352 -18 510 -39 61 -152
194 -165 194 -4 0 -15 -39 -24 -87z m994 -1353 c0 -5 -5 -10 -11 -10 -5 0 -7
5 -4 10 3 6 8 10 11 10 2 0 4 -4 4 -10z m-3820 -3820 c0 -5 -5 -10 -11 -10 -5
0 -7 5 -4 10 3 6 8 10 11 10 2 0 4 -4 4 -10z"/>
<path d="M8430 12728 c-196 -225 -217 -353 -108 -647 l32 -84 -28 -53 c-73
-139 -315 -337 -578 -472 -127 -65 -364 -126 -468 -120 -83 4 -171 46 -253
118 -98 88 -138 179 -138 317 0 171 74 309 199 370 50 24 71 28 167 31 126 4
199 -10 304 -61 81 -40 166 -116 182 -164 31 -95 -31 -225 -134 -280 -44 -23
-132 -23 -181 1 -21 11 -68 43 -104 73 -63 52 -86 60 -126 44 -17 -7 -13 -13
35 -48 104 -78 178 -103 306 -103 111 0 176 25 236 89 98 104 97 242 -2 320
-136 108 -383 167 -594 143 -56 -6 -122 -18 -147 -27 -138 -49 -225 -175 -237
-345 -18 -251 144 -446 400 -485 93 -14 89 -18 -38 -40 -106 -18 -209 -19
-269 -4 l-44 11 -4 111 c-3 77 -10 122 -21 143 -22 43 -79 91 -124 105 -35 10
-263 26 -263 18 0 -11 30 -99 38 -115 6 -11 18 -39 26 -64 23 -62 92 -157 144
-197 66 -50 93 -54 301 -42 159 9 246 20 501 64 19 3 -28 -18 -105 -48 -77
-29 -171 -67 -210 -84 -117 -52 -396 -200 -420 -223 -12 -11 -35 -44 -51 -73
-26 -47 -29 -61 -28 -142 0 -90 22 -171 58 -220 14 -19 16 -19 87 15 141 68
253 151 285 212 25 48 18 91 -25 145 -21 27 -58 66 -82 87 -35 30 -41 39 -29
46 8 5 20 10 26 10 6 0 38 16 70 36 76 45 177 93 304 144 117 47 466 170 480
170 6 0 -6 -23 -25 -51 -97 -141 -81 -277 49 -404 72 -70 174 -127 263 -145
85 -18 253 -8 333 19 97 33 195 95 275 175 119 118 148 218 83 291 -121 138
-427 137 -561 -2 -40 -42 -92 -152 -78 -166 5 -5 26 -7 47 -5 36 3 39 6 60 61
32 82 75 131 146 166 80 40 143 42 217 5 103 -51 134 -150 78 -246 -57 -97
-222 -227 -342 -268 -135 -47 -234 -30 -362 59 -164 115 -214 251 -148 399 45
102 143 178 275 216 118 34 535 102 831 136 163 19 190 20 213 8 l28 -14 -41
-27 c-23 -15 -41 -29 -41 -32 0 -3 7 -22 16 -44 15 -39 34 -51 82 -51 27 0 28
-16 2 -55 -11 -16 -20 -34 -20 -40 0 -18 66 -55 99 -55 31 0 32 -1 26 -33 -6
-33 -6 -34 38 -46 38 -11 49 -11 77 4 17 9 33 15 35 13 2 -2 7 -19 12 -38 9
-34 11 -35 54 -32 36 2 49 8 74 37 l30 35 19 -35 c11 -19 25 -35 33 -35 26 0
83 29 83 42 0 7 4 20 10 28 7 12 12 12 35 0 24 -13 28 -12 62 22 36 36 36 36
24 83 -7 26 -10 49 -8 51 2 2 25 -2 51 -10 l47 -14 19 39 20 39 -20 40 c-11
21 -20 41 -20 44 0 3 17 6 38 8 33 3 37 6 40 34 2 18 -4 48 -12 68 l-15 36
102 0 c222 0 470 -25 692 -69 55 -11 154 -29 220 -41 106 -20 402 -107 431
-127 29 -22 120 -336 150 -522 14 -86 31 -181 39 -211 23 -91 44 -302 52 -518
l6 -202 -37 15 c-21 9 -52 15 -70 13 -28 -3 -31 -7 -34 -40 -2 -21 -5 -38 -8
-38 -3 0 -23 9 -44 20 l-40 20 -39 -20 -39 -19 14 -47 c8 -26 12 -49 10 -51
-2 -2 -23 1 -47 6 -47 11 -62 6 -98 -33 -22 -24 -23 -28 -11 -52 12 -22 12
-27 0 -34 -8 -6 -21 -10 -28 -10 -13 0 -42 -57 -42 -83 0 -8 16 -22 35 -33
l35 -19 -35 -30 c-29 -25 -35 -38 -37 -74 -3 -43 -2 -45 32 -54 19 -5 36 -10
38 -12 2 -2 -4 -18 -13 -35 -15 -28 -15 -39 -4 -77 12 -44 13 -44 46 -38 32 6
33 5 33 -26 0 -33 37 -99 55 -99 6 0 25 9 43 20 18 11 36 20 41 20 5 0 12 -20
15 -44 6 -40 11 -46 47 -60 22 -9 41 -16 43 -16 3 0 18 18 34 40 l29 40 12
-29 c10 -24 9 -63 -9 -212 -34 -296 -103 -711 -136 -829 -39 -136 -135 -252
-236 -286 -145 -48 -270 5 -379 159 -62 89 -94 187 -85 258 17 128 98 271 215
382 114 108 201 122 280 45 77 -75 91 -174 40 -276 -35 -71 -83 -113 -166
-147 -55 -22 -58 -25 -61 -60 -2 -21 0 -41 5 -46 14 -14 124 38 166 78 139
134 140 440 2 561 -73 65 -173 36 -291 -83 -79 -80 -141 -177 -175 -275 -27
-79 -37 -248 -19 -333 18 -89 75 -191 145 -263 127 -129 261 -146 404 -50 28
19 51 31 51 26 0 -13 -121 -358 -160 -457 -51 -128 -101 -234 -147 -311 -24
-41 -43 -79 -43 -85 0 -7 -5 -19 -10 -27 -7 -12 -16 -6 -46 29 -121 141 -200
155 -295 54 -78 -82 -189 -284 -172 -312 5 -8 38 -26 74 -39 50 -20 83 -26
154 -26 81 -1 95 2 142 28 29 16 61 39 73 51 25 26 165 291 222 420 22 50 62
149 90 220 27 72 46 114 43 95 -3 -19 -17 -98 -30 -175 -27 -162 -49 -496 -35
-544 21 -74 84 -143 180 -198 30 -17 69 -35 85 -39 17 -4 35 -11 41 -15 9 -7
99 -38 112 -39 1 0 2 42 2 94 0 157 -41 250 -130 297 -14 7 -73 15 -137 17
-91 4 -113 7 -118 21 -17 40 -17 190 0 291 9 58 20 109 23 115 3 5 11 -27 18
-72 34 -238 215 -403 443 -403 182 0 326 86 380 227 87 228 19 628 -132 774
-84 82 -209 72 -303 -25 -71 -73 -87 -126 -82 -259 4 -116 27 -180 100 -276
36 -48 42 -52 49 -35 16 40 8 64 -40 120 -70 82 -96 137 -95 204 0 62 19 104
68 153 62 63 158 91 229 68 48 -16 124 -101 164 -182 51 -105 65 -178 61 -304
-3 -96 -7 -117 -31 -167 -89 -182 -358 -258 -564 -158 -124 61 -234 219 -241
350 -6 102 55 341 119 467 131 257 335 507 473 579 l53 28 99 -37 c237 -89
360 -82 522 28 76 51 190 150 182 159 -3 3 -60 15 -125 27 -96 18 -158 23
-305 23 -266 1 -303 -12 -499 -177 -108 -92 -219 -227 -326 -397 -26 -41 -44
-64 -41 -50 4 14 22 87 42 163 19 76 42 191 50 255 8 64 26 203 40 307 13 105
30 244 37 310 l12 120 58 9 c49 7 57 11 57 30 0 44 15 51 53 27 l36 -22 41 21
c35 18 41 25 36 43 -4 12 -9 35 -13 51 -6 28 -5 28 28 21 19 -3 42 -9 52 -12
12 -3 30 8 53 32 33 35 34 38 19 61 -20 31 -20 32 17 42 25 6 34 16 45 47 14
40 14 40 -22 70 l-35 30 35 28 c30 24 35 34 35 71 0 45 -10 56 -51 56 -23 0
-24 12 -4 50 14 26 13 33 -1 70 -16 40 -18 41 -52 35 l-34 -6 6 35 c6 29 2 40
-25 70 l-31 36 -36 -25 c-20 -14 -40 -25 -43 -25 -4 0 -10 18 -14 40 -6 34
-13 44 -46 60 -21 11 -42 20 -47 20 -4 0 -19 -18 -32 -39 -14 -21 -28 -37 -31
-35 -3 1 -6 92 -7 201 -3 274 -27 531 -77 813 -41 237 -32 319 49 422 52 66
119 109 179 115 83 9 222 -59 297 -145 116 -132 113 -441 -6 -605 -66 -90
-131 -109 -201 -58 -51 37 -82 80 -99 138 -29 94 -7 176 67 257 48 53 50 58
44 97 l-7 41 -38 -37 c-42 -41 -84 -120 -99 -186 -49 -212 90 -471 234 -435
147 37 261 440 196 696 -11 45 -32 102 -46 126 -67 114 -199 197 -315 198 -78
1 -126 -20 -188 -82 -59 -58 -100 -150 -110 -243 -7 -62 -10 -69 -16 -44 -22
85 -69 233 -81 251 -12 19 -144 68 -270 100 -26 6 -20 9 37 15 86 9 131 24
191 61 141 90 181 228 106 376 -85 171 -250 250 -499 239 -307 -14 -536 -151
-480 -288 42 -99 211 -177 364 -167 96 7 175 39 238 97 l52 48 -43 7 c-41 6
-45 4 -96 -43 -83 -75 -163 -96 -258 -67 -58 17 -101 48 -138 99 -64 88 -17
173 134 242 154 71 377 66 497 -10 82 -52 165 -185 177 -282 5 -44 1 -61 -21
-107 -15 -31 -48 -73 -72 -95 -112 -98 -196 -109 -469 -63 -280 48 -438 63
-722 69 -145 3 -263 9 -263 14 0 4 16 17 35 29 41 25 41 28 15 79 -16 33 -26
40 -60 46 -22 4 -40 10 -40 14 0 4 11 23 25 42 l26 34 -36 33 c-31 29 -40 32
-71 26 l-35 -6 6 34 c6 34 5 36 -35 52 -37 14 -44 15 -70 1 -38 -20 -50 -19
-50 4 0 41 -11 51 -55 51 -38 0 -47 -5 -73 -36 l-30 -36 -24 35 c-19 30 -27
35 -48 30 -51 -12 -70 -23 -70 -40 0 -10 -4 -24 -9 -32 -7 -11 -13 -10 -34 3
-24 16 -26 16 -62 -18 -24 -23 -35 -41 -32 -53 3 -10 9 -33 12 -52 7 -33 7
-34 -21 -28 -16 4 -39 9 -51 13 -18 5 -25 -1 -42 -35 l-21 -40 22 -36 c23 -40
16 -55 -28 -55 -19 0 -23 -8 -30 -57 l-9 -58 -120 -12 c-107 -11 -265 -31
-625 -78 -63 -9 -176 -31 -250 -50 -74 -19 -146 -37 -160 -41 -14 -3 9 15 50
41 222 139 368 272 497 452 90 124 107 392 47 716 -9 48 -20 87 -24 87 -4 0
-35 -33 -70 -72z m-880 -1368 c0 -5 -4 -10 -10 -10 -5 0 -10 5 -10 10 0 6 5
10 10 10 6 0 10 -4 10 -10z m3815 -3820 c3 -5 1 -10 -4 -10 -6 0 -11 5 -11 10
0 6 2 10 4 10 3 0 8 -4 11 -10z"/>
<path d="M1113 6258 c5 -132 17 -176 59 -224 50 -56 80 -67 205 -72 l111 -4
11 -44 c15 -60 14 -163 -4 -269 -22 -127 -26 -131 -40 -38 -39 256 -234 418
-485 400 -130 -9 -245 -67 -301 -152 -41 -64 -59 -121 -71 -231 -26 -225 46
-498 161 -613 81 -81 205 -75 302 16 72 67 92 128 87 263 -5 120 -27 183 -100
279 -36 48 -42 52 -49 35 -16 -40 -8 -63 44 -126 30 -36 62 -83 73 -104 24
-49 24 -137 1 -181 -55 -103 -185 -165 -280 -134 -48 16 -124 101 -164 182
-51 105 -65 178 -61 304 3 96 7 117 31 167 66 135 211 205 404 196 77 -3 101
-9 156 -36 127 -63 238 -222 245 -352 6 -102 -55 -341 -119 -467 -131 -257
-335 -507 -473 -579 l-53 -28 -84 32 c-138 51 -199 65 -279 65 -93 -1 -167
-26 -258 -88 -76 -51 -190 -151 -182 -159 3 -3 60 -15 125 -27 175 -33 459
-34 561 -2 83 26 113 46 240 154 118 102 219 223 329 399 26 41 44 64 41 50
-4 -14 -22 -86 -41 -161 -19 -75 -41 -185 -49 -245 -34 -251 -77 -595 -84
-669 l-7 -80 -57 -9 c-50 -7 -58 -11 -58 -30 0 -44 -15 -51 -55 -28 l-36 22
-40 -21 c-34 -17 -40 -24 -35 -42 4 -12 9 -35 13 -51 6 -28 5 -28 -28 -21 -19
3 -42 9 -52 12 -12 3 -30 -8 -53 -32 -33 -35 -34 -38 -19 -61 20 -31 20 -32
-17 -42 -27 -7 -35 -15 -45 -50 -12 -42 -11 -42 23 -68 l35 -27 -36 -29 c-30
-25 -35 -35 -35 -73 0 -44 10 -55 51 -55 23 0 24 -12 4 -50 -14 -26 -13 -33 1
-70 16 -40 18 -41 52 -35 l34 6 -6 -35 c-6 -29 -2 -40 25 -70 l31 -36 36 25
c20 14 40 25 43 25 4 0 10 -18 14 -40 6 -34 13 -44 46 -60 51 -26 54 -26 79
15 12 19 25 35 29 35 5 0 11 -118 14 -262 6 -285 21 -443 69 -723 46 -273 35
-358 -63 -468 -44 -51 -127 -97 -174 -97 -69 0 -190 56 -259 119 -92 85 -133
249 -102 418 31 175 121 303 212 303 62 0 144 -81 170 -167 29 -95 8 -175 -67
-258 -47 -51 -49 -55 -43 -96 l7 -43 48 52 c68 74 92 143 93 262 1 68 -4 111
-17 150 -44 128 -132 211 -210 196 -187 -35 -297 -547 -172 -802 71 -145 262
-250 392 -215 84 23 176 117 209 214 8 26 19 78 23 115 l7 67 13 -45 c24 -90
73 -235 83 -247 9 -11 169 -65 263 -89 26 -6 20 -9 -39 -15 -86 -10 -147 -32
-209 -76 -88 -64 -135 -162 -122 -252 15 -104 103 -230 201 -287 154 -91 459
-83 676 18 148 68 189 174 100 263 -148 149 -434 151 -577 5 l-37 -38 41 -7
c39 -6 44 -4 97 44 81 74 163 96 257 67 58 -17 101 -48 138 -99 51 -70 32
-135 -58 -201 -119 -86 -336 -117 -489 -69 -114 36 -198 125 -245 259 -37 108
-6 197 99 280 105 83 181 90 447 45 300 -51 520 -71 787 -71 108 0 199 -3 201
-7 3 -5 -13 -19 -34 -33 -21 -13 -39 -28 -39 -32 0 -5 9 -26 20 -47 16 -33 26
-40 60 -46 22 -4 40 -10 40 -14 0 -3 -11 -23 -25 -43 l-25 -36 36 -31 c30 -27
41 -31 70 -25 l35 6 -6 -34 c-6 -34 -5 -36 35 -52 37 -14 44 -15 70 -1 38 20
50 19 50 -4 0 -41 11 -51 55 -51 38 0 48 5 73 35 l29 36 27 -35 c26 -34 26
-35 68 -23 35 10 43 18 50 45 10 37 11 37 42 17 23 -15 26 -14 61 19 24 23 35
41 32 53 -3 10 -9 33 -12 52 -7 33 -7 34 21 28 16 -4 39 -9 51 -13 18 -5 25 1
42 35 l21 40 -22 36 c-23 40 -16 55 28 55 19 0 23 8 30 58 l9 57 85 8 c47 4
171 19 275 33 105 14 246 32 315 39 131 16 256 41 402 81 48 13 90 24 94 24 5
0 -25 -21 -66 -46 -167 -103 -299 -211 -393 -321 -109 -128 -135 -169 -160
-247 -32 -102 -31 -385 2 -561 12 -65 24 -122 27 -125 9 -8 108 106 159 182
110 162 117 285 28 522 l-37 99 28 52 c72 138 323 344 579 474 126 64 365 125
467 119 130 -7 289 -116 350 -241 99 -205 24 -475 -158 -564 -50 -24 -71 -28
-167 -31 -126 -4 -199 10 -304 61 -81 40 -166 116 -182 164 -23 71 5 167 68
229 49 49 91 68 153 68 67 1 122 -25 204 -95 58 -49 69 -53 116 -40 24 7 23 8
-30 48 -97 74 -160 97 -277 101 -133 5 -186 -11 -259 -82 -97 -94 -107 -219
-25 -303 113 -117 387 -191 615 -165 56 6 128 20 158 32 140 52 228 200 228
381 0 228 -165 409 -403 443 -45 7 -77 15 -72 18 6 3 57 14 115 23 101 17 251
17 291 0 14 -5 17 -27 21 -118 3 -77 10 -122 21 -143 22 -43 79 -91 124 -105
35 -10 263 -26 263 -18 0 13 -31 104 -39 113 -4 6 -11 25 -15 41 -4 17 -22 55
-39 85 -55 96 -124 159 -198 180 -48 14 -382 -8 -544 -35 -77 -13 -156 -27
-175 -30 -19 -3 24 16 95 43 72 27 171 68 220 90 131 58 394 197 420 222 12
12 35 44 51 73 26 47 29 61 28 142 0 90 -22 171 -58 220 -13 19 -15 19 -57 0
-77 -33 -200 -109 -251 -154 -91 -81 -102 -139 -39 -218 21 -27 58 -66 82 -87
35 -30 41 -39 29 -46 -8 -5 -21 -10 -28 -10 -8 0 -26 -8 -40 -19 -44 -31 -220
-116 -330 -160 -118 -47 -468 -171 -482 -171 -6 0 6 23 25 51 99 144 78 291
-58 414 -71 64 -172 118 -254 135 -85 18 -254 8 -333 -19 -98 -34 -195 -96
-275 -175 -119 -118 -148 -218 -83 -291 121 -138 427 -137 561 2 40 42 92 152
78 166 -5 5 -25 7 -46 5 -35 -3 -38 -6 -60 -61 -34 -83 -76 -131 -147 -166
-100 -50 -200 -37 -272 35 -88 89 -66 185 72 315 111 106 232 169 352 185 70
9 169 -23 257 -85 143 -101 201 -219 168 -343 -34 -132 -137 -227 -295 -272
-122 -35 -569 -107 -869 -141 -114 -13 -149 -14 -172 -4 l-29 12 40 29 c22 16
40 31 40 34 0 2 -7 21 -16 43 -14 36 -20 41 -60 47 -24 3 -44 10 -44 15 0 5 9
23 20 41 11 18 20 38 20 43 0 18 -66 55 -99 55 -31 0 -32 1 -26 33 6 33 6 34
-38 46 -38 11 -49 11 -77 -4 -17 -9 -33 -15 -35 -13 -2 2 -7 19 -12 38 -9 34
-11 35 -54 32 -36 -2 -50 -9 -74 -38 l-30 -34 -19 35 c-11 19 -25 35 -33 35
-26 0 -83 -29 -83 -42 0 -7 -4 -20 -10 -28 -7 -12 -12 -12 -34 0 -24 12 -28
11 -52 -11 -39 -36 -44 -51 -33 -98 5 -24 8 -45 6 -47 -2 -2 -25 2 -51 10
l-47 14 -19 -39 -20 -39 20 -40 c11 -21 20 -41 20 -44 0 -3 -17 -6 -37 -8 -34
-3 -38 -6 -41 -34 -2 -18 4 -49 13 -70 l15 -37 -197 6 c-217 8 -434 29 -522
52 -31 8 -126 25 -211 39 -85 14 -180 32 -210 41 -132 38 -306 99 -312 109
-12 18 -86 245 -107 331 -11 44 -30 139 -41 210 -11 72 -27 155 -35 185 -23
89 -44 310 -52 523 l-6 197 37 -15 c21 -9 52 -15 70 -13 28 3 31 7 34 41 2 20
5 37 8 37 3 0 23 -9 44 -20 l40 -20 39 20 39 19 -14 47 c-8 26 -12 49 -10 51
2 3 22 -1 45 -7 46 -12 62 -6 101 35 21 22 22 29 12 45 -18 29 -15 37 16 48
20 7 33 22 44 51 l16 41 -39 23 -39 22 35 30 c29 25 35 38 37 74 3 44 3 45
-35 54 -30 7 -37 13 -31 26 26 62 26 66 10 104 -14 36 -18 38 -46 32 -29 -6
-30 -5 -30 26 0 34 -37 99 -56 99 -6 0 -27 -11 -47 -25 -41 -27 -42 -26 -52
32 -6 37 -11 43 -46 57 -22 9 -41 16 -43 16 -3 0 -18 -18 -34 -40 l-29 -40
-12 29 c-10 24 -9 63 9 212 34 296 103 712 136 829 48 166 152 273 293 300 59
11 100 5 156 -23 144 -71 269 -273 251 -407 -16 -120 -79 -241 -185 -352 -116
-124 -203 -152 -288 -96 -54 35 -93 113 -93 183 0 67 46 163 99 204 39 31 122
71 147 71 10 0 14 13 14 44 0 25 -3 47 -7 49 -5 3 -31 -4 -59 -14 -73 -27
-141 -91 -175 -162 -51 -108 -48 -280 6 -387 76 -150 199 -148 351 5 79 80
141 177 175 275 27 79 37 248 19 333 -18 89 -75 191 -145 263 -127 130 -263
146 -404 49 -28 -19 -51 -31 -51 -25 0 12 120 354 160 457 51 128 101 234 147
311 24 41 43 79 43 85 0 7 5 19 10 27 7 12 16 6 46 -29 21 -24 60 -61 87 -82
54 -43 97 -50 146 -24 60 31 157 164 221 304 24 52 24 53 5 67 -49 36 -130 58
-220 58 -81 1 -95 -2 -142 -28 -29 -16 -61 -39 -73 -51 -25 -26 -165 -291
-222 -420 -22 -49 -62 -148 -90 -220 -27 -71 -46 -114 -43 -95 3 19 17 98 30
175 29 169 49 494 34 548 -21 78 -137 186 -239 223 -25 8 -53 20 -64 26 -16 8
-104 38 -115 38 -2 0 -1 -51 2 -112z m337 -998 c0 -5 -4 -10 -10 -10 -5 0 -10
5 -10 10 0 6 5 10 10 10 6 0 10 -4 10 -10z m3820 -3820 c0 -5 -2 -10 -4 -10
-3 0 -8 5 -11 10 -3 6 -1 10 4 10 6 0 11 -4 11 -10z"/>
<path d="M11631 6354 c-24 -7 -48 -17 -55 -22 -6 -5 -24 -12 -41 -16 -70 -16
-196 -109 -236 -173 -36 -58 -39 -88 -28 -282 9 -158 22 -260 64 -501 4 -19
-18 28 -48 105 -29 77 -70 176 -90 220 -60 132 -194 385 -217 410 -11 12 -44
35 -73 51 -47 26 -61 29 -142 28 -90 0 -171 -22 -220 -58 -19 -13 -19 -15 0
-57 33 -77 109 -200 154 -251 81 -91 139 -102 218 -39 27 21 66 58 87 82 30
35 39 41 46 29 5 -8 10 -21 10 -28 0 -7 12 -31 26 -54 41 -64 109 -206 154
-318 47 -117 170 -466 170 -480 0 -6 -23 6 -51 25 -141 97 -277 81 -404 -49
-70 -72 -127 -174 -145 -263 -18 -85 -8 -254 19 -333 34 -98 96 -195 175 -275
118 -119 218 -148 291 -83 79 69 119 213 97 353 -15 95 -48 161 -108 213 -44
39 -140 85 -156 75 -5 -2 -8 -24 -8 -49 0 -31 4 -44 14 -44 25 0 108 -40 147
-71 53 -41 99 -137 99 -204 0 -70 -39 -148 -93 -183 -85 -56 -172 -28 -288 96
-106 112 -169 231 -185 349 -18 137 105 338 251 410 56 28 97 34 156 23 141
-27 245 -134 293 -300 33 -117 102 -533 136 -829 18 -149 19 -188 9 -212 l-12
-29 -29 40 c-16 22 -31 40 -34 40 -2 0 -21 -7 -43 -16 -36 -14 -41 -20 -47
-60 -3 -24 -10 -44 -15 -44 -5 0 -23 9 -41 20 -18 11 -37 20 -43 20 -18 0 -55
-66 -55 -99 0 -31 -1 -32 -30 -26 -28 6 -32 4 -46 -32 -16 -38 -16 -42 10
-104 6 -13 -1 -19 -31 -26 -38 -9 -38 -10 -35 -54 2 -36 8 -49 37 -74 l35 -30
-35 -19 c-19 -11 -35 -25 -35 -33 0 -26 29 -83 42 -83 7 0 20 -4 28 -10 12 -7
12 -12 0 -34 -12 -24 -11 -28 11 -52 38 -40 54 -46 100 -34 23 6 43 10 45 7 2
-2 -2 -25 -10 -51 l-14 -47 39 -19 39 -20 40 20 c21 11 41 20 44 20 3 0 6 -17
8 -37 3 -34 6 -38 34 -41 18 -2 49 4 70 13 l37 15 -6 -202 c-8 -216 -29 -427
-52 -518 -8 -30 -25 -125 -39 -210 -22 -138 -67 -309 -124 -470 l-19 -54 -128
-43 c-151 -50 -290 -84 -465 -113 -69 -11 -154 -27 -190 -35 -95 -20 -259 -35
-479 -42 l-193 -6 16 32 c10 18 16 48 14 69 -3 35 -5 37 -40 40 -21 2 -38 5
-38 8 0 3 9 23 20 44 l20 40 -20 39 -19 39 -47 -14 c-26 -8 -49 -12 -51 -10
-2 2 1 25 8 51 12 47 12 47 -24 83 -34 34 -38 35 -62 22 -23 -12 -28 -12 -35
0 -6 8 -10 21 -10 27 0 15 -51 43 -78 43 -11 0 -26 -14 -38 -35 l-19 -35 -30
34 c-24 29 -38 36 -74 38 -43 3 -45 2 -54 -32 -5 -19 -10 -36 -12 -38 -2 -2
-18 4 -35 13 -28 15 -39 15 -77 4 -44 -12 -44 -13 -38 -46 6 -32 5 -33 -26
-33 -33 0 -99 -37 -99 -55 0 -5 9 -23 20 -40 29 -43 25 -52 -24 -59 -40 -6
-46 -11 -60 -47 -9 -22 -16 -41 -16 -43 0 -3 18 -18 40 -34 l40 -29 -29 -12
c-24 -10 -63 -9 -212 9 -296 34 -712 103 -829 136 -132 38 -230 114 -275 216
-66 148 -16 284 148 399 88 62 187 94 257 85 120 -16 241 -79 352 -185 76 -71
113 -126 123 -183 13 -71 -48 -154 -138 -187 -53 -20 -120 -13 -185 20 -71 35
-114 84 -146 166 -21 55 -24 58 -60 61 -21 2 -42 0 -46 -5 -14 -14 29 -110 72
-158 56 -63 137 -101 233 -110 138 -13 269 26 333 100 65 73 36 173 -83 291
-80 79 -177 141 -275 175 -79 27 -248 37 -333 19 -89 -18 -191 -75 -263 -145
-130 -127 -146 -263 -49 -404 19 -28 31 -51 25 -51 -14 0 -363 123 -480 170
-106 42 -258 116 -322 156 -20 13 -43 24 -50 24 -7 0 -20 5 -28 10 -12 7 -6
16 29 46 24 21 61 60 82 87 63 79 52 137 -39 218 -51 45 -174 121 -251 154
-42 19 -44 19 -57 0 -36 -49 -58 -130 -58 -220 -1 -81 2 -95 28 -142 16 -29
39 -62 51 -73 25 -23 306 -172 420 -222 39 -17 133 -56 210 -85 77 -30 124
-52 105 -48 -241 42 -343 55 -501 64 -208 12 -235 8 -301 -42 -55 -41 -146
-176 -154 -228 -4 -21 -10 -39 -15 -39 -4 0 -13 -18 -19 -41 -6 -22 -14 -47
-17 -56 -5 -13 8 -15 108 -10 133 5 177 17 225 59 56 50 67 80 72 205 l4 111
44 11 c60 15 163 14 269 -4 127 -22 131 -26 38 -40 -256 -39 -418 -234 -400
-485 12 -170 99 -296 237 -345 25 -9 91 -21 147 -27 285 -33 616 88 661 240
15 51 15 58 -4 121 -21 74 -88 143 -163 172 -48 18 -72 20 -161 17 -120 -5
-182 -27 -280 -101 -53 -40 -54 -41 -30 -48 47 -13 57 -9 122 44 36 30 83 62
104 73 49 24 137 24 181 1 103 -55 165 -185 134 -280 -16 -48 -101 -124 -182
-164 -105 -51 -178 -65 -304 -61 -96 3 -117 7 -167 31 -125 61 -199 199 -199
370 0 138 40 229 138 317 82 72 170 114 253 118 101 6 341 -55 465 -118 260
-132 508 -335 581 -474 l28 -53 -32 -84 c-94 -255 -89 -369 24 -539 46 -68
151 -187 158 -179 3 3 15 59 27 124 33 175 34 459 2 561 -26 83 -46 113 -154
240 -102 118 -223 219 -399 329 -41 26 -64 44 -50 41 213 -54 324 -79 415 -91
317 -42 512 -67 620 -78 l120 -12 9 -58 c7 -49 11 -57 30 -57 44 0 51 -15 28
-55 l-22 -36 21 -40 c17 -34 24 -40 42 -35 12 4 35 9 51 13 28 6 28 5 21 -28
-3 -19 -9 -42 -12 -52 -3 -12 8 -30 32 -53 36 -34 38 -34 62 -18 21 13 27 14
34 3 5 -8 9 -22 9 -32 0 -17 19 -28 70 -40 21 -5 29 0 48 30 l24 35 30 -36
c26 -31 35 -36 73 -36 44 0 55 10 55 51 0 23 12 24 50 4 26 -14 33 -13 70 1
40 16 41 18 35 52 l-6 34 35 -6 c29 -6 40 -2 70 25 l36 31 -25 36 c-14 20 -25
40 -25 43 0 4 18 10 40 14 34 6 44 13 60 46 26 51 26 54 -15 79 -19 12 -35 26
-35 31 0 5 84 9 198 9 267 0 487 20 787 71 268 46 343 38 450 -48 81 -66 119
-137 112 -212 -12 -114 -111 -258 -211 -305 -29 -14 -91 -31 -139 -37 -73 -11
-99 -11 -176 3 -182 32 -311 121 -311 214 0 36 43 101 90 134 104 74 232 62
334 -31 54 -49 57 -51 98 -44 l43 8 -53 47 c-118 109 -314 130 -472 50 -62
-31 -126 -95 -136 -136 -34 -133 195 -259 492 -271 193 -8 322 33 420 134 54
55 101 148 109 217 21 168 -146 322 -355 327 -52 1 -58 -2 123 54 84 26 121
42 131 58 8 12 29 72 47 132 43 151 47 160 49 105 2 -108 42 -203 116 -277 94
-91 197 -105 324 -42 116 59 186 150 221 289 18 70 20 103 16 204 -12 297
-138 526 -271 492 -41 -10 -105 -74 -136 -135 -84 -168 -58 -372 63 -490 l35
-33 7 41 c6 39 4 44 -44 97 -74 81 -96 163 -67 257 17 58 48 101 99 138 71 52
141 30 204 -64 98 -146 119 -381 47 -534 -47 -99 -192 -198 -305 -210 -75 -7
-146 31 -212 112 -84 105 -94 185 -52 425 50 282 74 539 77 813 1 109 4 200 7
201 3 2 17 -14 31 -35 13 -21 28 -39 32 -39 5 0 26 9 47 20 33 16 40 26 46 60
4 22 10 40 14 40 3 0 23 -11 43 -25 l36 -25 31 36 c27 30 31 41 25 70 l-6 35
34 -6 c34 -6 36 -5 52 35 14 37 15 44 1 70 -20 38 -19 50 4 50 41 0 51 11 51
55 0 38 -5 48 -35 73 l-36 29 35 27 c34 26 35 26 23 68 -10 35 -18 43 -45 50
-37 10 -37 11 -17 42 15 23 14 26 -19 61 -23 24 -41 35 -53 32 -10 -3 -33 -9
-52 -12 -33 -7 -34 -7 -28 21 4 16 9 39 13 51 5 18 -1 25 -35 42 l-40 21 -36
-22 c-40 -23 -55 -16 -55 28 0 19 -8 23 -57 30 -57 9 -58 10 -61 44 -1 19 -16
143 -33 275 -16 132 -36 296 -44 365 -16 131 -41 256 -81 402 -13 48 -24 90
-24 94 0 4 24 -31 53 -77 112 -178 206 -291 327 -393 50 -43 107 -88 127 -102
120 -81 395 -96 706 -38 48 9 87 20 87 24 0 20 -173 155 -245 190 -141 71
-231 72 -412 9 -163 -57 -145 -55 -203 -23 -141 77 -358 347 -480 599 -55 112
-113 354 -108 445 7 131 117 289 245 352 55 27 79 33 156 36 193 10 339 -61
404 -196 23 -49 28 -72 31 -167 5 -126 -10 -199 -61 -304 -40 -81 -116 -166
-164 -182 -95 -31 -225 31 -280 134 -23 44 -23 132 1 181 11 21 43 68 73 104
52 63 60 86 44 126 -7 17 -13 13 -49 -35 -74 -98 -96 -159 -100 -279 -5 -135
15 -196 87 -263 97 -91 221 -97 302 -16 115 115 187 388 161 616 -24 214 -108
321 -289 368 -273 71 -527 -103 -567 -388 -7 -45 -15 -77 -18 -72 -3 6 -14 57
-23 115 -17 101 -17 251 0 291 5 14 27 17 118 21 77 3 122 10 143 21 43 22 91
79 105 124 14 46 25 263 13 262 -5 -1 -29 -7 -53 -15z m-261 -1094 c0 -5 -4
-10 -10 -10 -5 0 -10 5 -10 10 0 6 5 10 10 10 6 0 10 -4 10 -10z m-3820 -3820
c0 -5 -4 -10 -10 -10 -5 0 -10 5 -10 10 0 6 5 10 10 10 6 0 10 -4 10 -10z"/>
</g>
</svg>
