<svg xmlns="http://www.w3.org/2000/svg" viewBox="0 0 48 48"><title>Yoga</title><g id="_11_-_20" data-name="11 - 20"><g id="Yoga"><path d="M42.442,28.575l-6.191-4.418-3.2-6.393A4.979,4.979,0,0,0,28.577,15H19.423a4.979,4.979,0,0,0-4.476,2.764l-3.2,6.393L5.566,28.569a3.608,3.608,0,0,0-1.122,4.664A3.518,3.518,0,0,0,6.738,34.92a3.475,3.475,0,0,0,.745.08,3.537,3.537,0,0,0,.832-.11,4.025,4.025,0,0,0,2.618,4.177L13.759,40.1a3.989,3.989,0,0,0-.479,1.874,4.149,4.149,0,0,0,.241,1.386A4.062,4.062,0,0,0,17.326,46a4.01,4.01,0,0,0,1.366-.24L24,43.824l5.309,1.932a4.015,4.015,0,0,0,4.93-5.656l2.833-1.031A4.048,4.048,0,0,0,39.72,35.28c0-.13-.021-.259-.034-.389a3.459,3.459,0,0,0,.826.109,3.5,3.5,0,0,0,3.1-1.862A3.578,3.578,0,0,0,42.442,28.575ZM17,32.7l-3.306-1.2c-.04-.015-.082-.019-.123-.032l2.96-2.113a3.4,3.4,0,0,0,.469-.4ZM18.01,43.879a2.049,2.049,0,0,1-2.608-1.2,2.129,2.129,0,0,1-.122-.707,2.017,2.017,0,0,1,.387-1.18l5.413,1.97ZM32.6,42.664a2.032,2.032,0,0,1-2.6,1.213L11.616,37.188a2.03,2.03,0,1,1,1.39-3.815l18.377,6.688A2.034,2.034,0,0,1,32.6,42.664Zm3.792-5.474-3.635,1.324a4,4,0,0,0-.687-.332h0l-5.144-1.873,8.067-2.938a2.048,2.048,0,0,1,2.608,1.2,2.129,2.129,0,0,1,.122.707A2.039,2.039,0,0,1,36.389,37.19Zm-5.384-4.5V28.948a3.48,3.48,0,0,0,.466.4l2.96,2.113c-.041.013-.083.016-.123.031Zm10.839-.5a1.535,1.535,0,0,1-2.2.523l-7.007-5a1.508,1.508,0,0,1-.47-.549L30.9,24.643a1,1,0,0,0-1.894.447v8.333l-5,1.823-5-1.822V25.09a1,1,0,0,0-1.894-.447l-1.263,2.524a1.5,1.5,0,0,1-.473.553l-7.006,5a1.5,1.5,0,0,1-2.18-.482,1.592,1.592,0,0,1,.55-2.041l6.384-4.556a1,1,0,0,0,.314-.367l3.309-6.615A2.989,2.989,0,0,1,19.423,17h9.154a2.989,2.989,0,0,1,2.687,1.659l3.309,6.615a1,1,0,0,0,.314.367L41.28,30.2A1.6,1.6,0,0,1,41.844,32.2Z" id="id_107" style="fill: #f9ac85;"></path><path d="M30.5,8.5A6.5,6.5,0,1,0,24,15,6.508,6.508,0,0,0,30.5,8.5ZM24,13a4.5,4.5,0,1,1,4.5-4.5A4.505,4.505,0,0,1,24,13Z" id="id_108" style="fill: #f9ac85;"></path><path d="M8,12H9v1a1,1,0,0,0,2,0V12h1a1,1,0,0,0,0-2H11V9A1,1,0,0,0,9,9v1H8a1,1,0,0,0,0,2Z" id="id_109" style="fill: #f9ac85;"></path><path d="M39,18a1,1,0,0,0,0,2h1v1a1,1,0,0,0,2,0V20h1a1,1,0,0,0,0-2H42V17a1,1,0,0,0-2,0v1Z" id="id_110" style="fill: #f9ac85;"></path><circle cx="38" cy="10" r="1" id="id_111" style="fill: #f9ac85"></circle><circle cx="5" cy="19" r="1" id="id_112" style="fill: #f9ac85;"></circle></g></g></svg>