<?xml version="1.0" standalone="no"?>
<!DOCTYPE svg PUBLIC "-//W3C//DTD SVG 1.0//EN" "http://www.w3.org/TR/2001/REC-SVG-20010904/DTD/svg10.dtd">
<svg xmlns="http://www.w3.org/2000/svg" xmlns:xlink="http://www.w3.org/1999/xlink" id="body_1" width="800" height="800">

<g transform="matrix(33.333336 0 0 33.333336 0 0)">
	<g>
	</g>
	<g>
        <path d="M16.77 3.41C 14.846005 3.417749 13.054329 4.390588 12 6C 10.604099 3.9026346 8.001987 2.96312 5.588188 3.6849608C 3.1743894 4.406802 1.515276 6.6206255 1.5 9.14C 1.5 17.73 12 20.59 12 20.59C 12 20.59 22.5 17.73 22.5 9.14C 22.502659 7.619497 21.899818 6.1605015 20.82466 5.0853415C 19.749498 4.010181 18.290504 3.40734 16.77 3.41z" stroke="#f9ac85" stroke-width="1.91" fill="none" />
        <path d="M16.77 7.23C 17.27738 7.2273235 17.764753 7.4276953 18.123531 7.7864714C 18.482307 8.145248 18.682678 8.632622 18.68 9.14C 18.651379 10.818636 17.948612 12.415174 16.73 13.57" stroke="#f9ac85" stroke-width="1.91" fill="none" />
	</g>
</g>
</svg>