<?xml version="1.0" encoding="utf-8"?>
<!-- Generator: Adobe Illustrator 23.0.2, SVG Export Plug-In . SVG Version: 6.00 Build 0)  -->
<svg fill="#737373" version="1.1" id="Layer_1" xmlns="http://www.w3.org/2000/svg" xmlns:xlink="http://www.w3.org/1999/xlink" x="0px" y="0px"
	 viewBox="0 0 150.5033 200.1126" enable-background="new 0 0 150.5033 194.1126" xml:space="preserve">
<g>
	<path d="M123.6809,82.1771c-1.3164-1.2139-2.9355-2.0518-4.6865-2.4258l-20.9346-4.4728V40.9434l40.54,20.6801
		c0.873,0.4453,1.8047,0.6567,2.7217,0.6567c2.1836,0,4.2891-1.1963,5.3496-3.2749c1.5059-2.9521,0.334-6.5654-2.6182-8.0713
		L97.1068,26.986c-2.8013,9.4211-11.5356,16.3134-21.8546,16.3134S56.1988,36.4072,53.3975,26.986L6.4504,50.934
		c-2.9521,1.5059-4.124,5.1191-2.6182,8.0713c1.0605,2.0786,3.166,3.2749,5.3496,3.2749c0.917,0,1.8486-0.2114,2.7217-0.6567
		l40.5402-20.6797v34.3348L31.509,79.7513c-1.751,0.374-3.3701,1.2119-4.6865,2.4258l-23.5996,21.748
		c-4.0605,3.7427-4.3193,10.0693-0.5762,14.1304c1.9717,2.1392,4.6592,3.2231,7.3564,3.2231c2.4219,0,4.8516-0.875,6.7734-2.6465
		l21.5869-19.894l31.6973-6.772c2.068-0.4418,3.8451-1.497,5.1909-2.9302c1.3458,1.4332,3.1229,2.4884,5.1909,2.9302l31.6973,6.772
		l21.5869,19.894c1.9219,1.7715,4.3506,2.6465,6.7734,2.6465c2.6963,0,5.3848-1.084,7.3564-3.2231
		c3.7432-4.061,3.4844-10.3877-0.5762-14.1304L123.6809,82.1771z"/>
	<circle cx="75.2518" cy="20.5" r="20.5"/>
	<rect x="68.5599" y="105.9955" width="1.6476" height="48.1323"/>
	<rect x="78.4451" y="116.0231" width="1.6475" height="48.1323"/>
	<rect x="73.5025" y="125.0479" width="1.6475" height="69.0648"/>
</g>
</svg>
