<svg version="1.1" id="outline" xmlns="http://www.w3.org/2000/svg" xmlns:xlink="http://www.w3.org/1999/xlink" x="0px" y="0px" viewBox="0 0 512 512" enable-background="new 0 0 512 512" xml:space="preserve">
<path d="M495.466,196.771l-64.579-167.85c-1.933-5.024-5.708-8.995-10.628-11.182c-4.92-2.186-10.397-2.325-15.421-0.392
	l-167.85,64.578c-1.98,0.762-3.577,2.279-4.438,4.219c-0.861,1.938-0.917,4.141-0.155,6.121l22.981,59.731
	c0.562,1.461,1.531,2.687,2.748,3.577c-5.905-2.435-12.281-3.67-18.836-3.569c-5.279,0.077-10.423,1-15.289,2.72V104
	c0-4.418-3.582-8-8-8H36.156C25.042,96,16,105.042,16,116.156v359.688C16,486.958,25.042,496,36.156,496h359.688
	c11.114,0,20.156-9.042,20.156-20.156V303.667c2.791-0.532,5.554-1.313,8.259-2.354c24.7-9.505,37.064-37.333,27.561-62.034
	c-1.986-5.161-4.784-9.856-8.286-13.955l47.339-18.213C494.996,205.523,497.053,200.895,495.466,196.771z M32,116.156
	c0-2.292,1.864-4.156,4.156-4.156H208v56c0,3.031,1.713,5.803,4.425,7.157c2.712,1.354,5.957,1.06,8.38-0.761
	c5.435-4.084,11.907-6.294,18.717-6.394c8.561-0.104,16.692,3.167,22.883,9.269c6.188,6.099,9.595,14.171,9.595,22.73
	C271.999,217.646,257.644,232,240,232c-6.987,0-13.625-2.212-19.195-6.396c-2.423-1.819-5.667-2.113-8.38-0.761
	C209.713,226.197,208,228.969,208,232v56h-42.725c1.719-4.865,2.643-10.01,2.719-15.289c0.188-12.883-4.738-25.081-13.871-34.348
	c-9.129-9.263-21.249-14.364-34.126-14.363C93.532,224.001,72,245.534,72,272c0,5.531,0.925,10.917,2.722,16H32V116.156z
	 M337.604,300.805c4.083,5.436,6.293,11.907,6.393,18.717c0.125,8.565-3.167,16.692-9.269,22.884
	c-6.099,6.188-14.17,9.595-22.729,9.595C294.354,351.999,280,337.645,280,320c0-6.987,2.211-13.625,6.396-19.195
	c1.82-2.424,2.115-5.668,0.76-8.38S283.031,288,280,288h-56v-42.722c5.083,1.797,10.469,2.722,16,2.722
	c18.393,0,34.395-10.404,42.451-25.632l18.888,49.093c0.762,1.979,2.279,3.576,4.218,4.438c1.939,0.862,4.142,0.917,6.121,0.156
	l47.342-18.215c0.142,5.158,1.128,10.291,2.952,15.246c2.044,5.554,5.054,10.577,8.848,14.914H344c-3.031,0-5.802,1.713-7.157,4.425
	S335.784,298.381,337.604,300.805z M288.012,201.161c-0.014-0.004-0.027-0.005-0.041-0.009c0.009-0.384,0.029-0.765,0.029-1.151
	c0-12.877-5.101-24.997-14.364-34.126c-3.753-3.699-7.994-6.697-12.56-8.957c0.328,0.074,0.66,0.135,1,0.167
	c3.021,0.299,5.939-1.149,7.548-3.719c3.606-5.762,8.853-10.148,15.173-12.687c7.949-3.194,16.716-3.039,24.685,0.433
	c7.965,3.47,14.043,9.78,17.117,17.769c6.335,16.468-1.908,35.019-18.376,41.355C301.702,202.746,294.713,203.065,288.012,201.161z
	 M208,480H36.156c-2.292,0-4.156-1.864-4.156-4.156V304h56c3.031,0,5.802-1.713,7.157-4.425s1.06-5.956-0.76-8.38
	C90.212,285.625,88,278.987,88,272c0-17.645,14.354-31.999,31.999-32c8.559,0,16.631,3.407,22.729,9.595
	c6.102,6.191,9.394,14.318,9.269,22.884c-0.1,6.81-2.31,13.281-6.393,18.717c-1.82,2.424-2.115,5.668-0.76,8.38S148.969,304,152,304
	h56v42.725c-4.865-1.72-10.01-2.643-15.289-2.72c-12.858-0.226-25.081,4.738-34.348,13.871C149.101,367.005,144,379.125,144,392.002
	C144.001,418.469,165.534,440,192,440c5.531,0,10.917-0.925,16-2.722V480z M400,475.844c0,2.292-1.864,4.156-4.156,4.156H224v-56
	c0-3.031-1.713-5.803-4.425-7.157c-2.711-1.352-5.956-1.06-8.38,0.761C205.625,421.788,198.987,424,192,424
	c-17.644,0-31.999-14.354-32-31.998c0-8.56,3.407-16.632,9.595-22.73c6.191-6.102,14.297-9.361,22.883-9.269
	c6.81,0.1,13.282,2.31,18.717,6.394c2.423,1.819,5.667,2.114,8.38,0.761c2.712-1.354,4.425-4.126,4.425-7.157v-56h42.722
	c-1.797,5.083-2.722,10.469-2.722,16c0,26.466,21.532,47.999,47.998,48H312c12.876,0,24.995-5.101,34.124-14.363
	c9.133-9.267,14.059-21.465,13.871-34.348c-0.077-5.279-1-10.424-2.719-15.289H400V475.844z M425.396,215.158
	c-2.829,1.089-4.8,3.683-5.091,6.7c-0.291,3.017,1.149,5.939,3.719,7.548c5.905,3.696,10.353,9.097,12.862,15.618
	c6.335,16.467-1.907,35.02-18.374,41.355c-7.989,3.074-16.746,2.793-24.66-0.793c-7.917-3.587-13.908-9.989-16.867-18.028
	c-2.353-6.392-2.614-13.226-0.755-19.765c0.829-2.916-0.062-6.05-2.3-8.094c-1.5-1.371-3.433-2.094-5.397-2.094
	c-0.965,0-1.938,0.175-2.871,0.533l-52.265,20.109l-15.34-39.873c5.389-0.148,10.749-1.22,15.91-3.205
	c24.701-9.504,37.066-37.332,27.563-62.032c-4.624-12.019-13.736-21.498-25.66-26.692c-11.928-5.196-25.082-5.413-37.038-0.612
	c-4.899,1.967-9.369,4.676-13.292,8.027l-15.342-39.875l160.383-61.705c0,0,0,0,0-0.001c1.036-0.397,2.166-0.37,3.18,0.081
	c1.015,0.451,1.792,1.27,2.191,2.306l61.706,160.383L425.396,215.158z" id="id_102" style="fill: #f9ac85"></path>
</svg>