<?xml version="1.0" standalone="no"?>
<!DOCTYPE svg PUBLIC "-//W3C//DTD SVG 1.0//EN" "http://www.w3.org/TR/2001/REC-SVG-20010904/DTD/svg10.dtd">
<svg xmlns="http://www.w3.org/2000/svg" xmlns:xlink="http://www.w3.org/1999/xlink" id="body_1" width="1024" height="768">

<g transform="matrix(6.25 0 0 6.25 214.90623 -0)">
    <path d="M77.62 27.52C 77.350006 29.41 77.04 31.35 76.78001 33.18L76.78001 33.18L77.090004 36.66C 78.06925 36.774452 78.921906 37.381874 79.350006 38.27C 79.99628 39.697155 80.22177 41.279118 80 42.83C 80 43.320004 79.88 43.83 79.79 44.36L79.79 44.36L77.36 45.36C 77.597786 44.478966 77.75839 43.5789 77.840004 42.670002C 78.023254 41.55034 77.895256 40.401848 77.47 39.350002C 77.09328 38.46757 76.07917 38.049473 75.19 38.410004L75.19 38.410004L71.91 40.410004L70.55 31.2C 63.72 35.45 55.930004 37.350002 47.440002 37.56C 39.267834 37.67743 31.232315 35.45691 24.280003 31.160002L24.280003 31.160002L22.810003 40.07L19.910004 38.45C 19.040003 38.31 18.300003 38.170002 17.690004 39.170002C 17.151697 40.430958 17.005352 41.824738 17.270004 43.170002C 17.356617 43.90117 17.49023 44.62602 17.670004 45.340004L17.670004 45.340004L15.260004 44.390003C 15.200004 44.06 15.150004 43.730003 15.120004 43.390003C 14.801371 41.584938 15.053033 39.72544 15.840004 38.070004C 16.298618 37.20547 17.164877 36.632984 18.140003 36.550003L18.140003 36.550003L18.450003 33.440002C 18.060003 31.040003 17.590002 28.510002 17.240002 26.090002C 12.490002 -7.209997 83.119995 -10.599997 77.62 27.540003L77.62 27.540003L77.62 27.52zM90.84 51.3L90.09 73.57L91 73.57C 93.25 73.62 95 74.57 95.07 78.22L95.07 78.22L95.07 87.22C 94.93 90.61 93.53 92.4 91.01 92.73L91.01 92.73L89.46 92.73L88.85 110.83C 88.893654 112.74573 87.57256 114.42331 85.7 114.83L85.7 114.83L48.609997 122.740005C 47.90726 122.93985 47.16273 122.93985 46.459995 122.740005L46.459995 122.740005L9.359997 114.83C 7.4874306 114.4233 6.1663404 112.74573 6.2099967 110.83L6.2099967 110.83L5.609997 92.73L4.06 92.73C 1.53 92.39 0.14 90.6 0 87.21L0 87.21L0 78.21C 0.08 74.52 1.82 73.61 4.07 73.56L4.07 73.56L5 73.56L4.23 51.3C 4.179147 49.1171 5.888233 47.296745 8.07 47.21C 8.606375 47.19044 9.140975 47.28238 9.639999 47.48L9.639999 47.48L47.53 62.34L85.42 47.47C 85.92452 47.280586 86.46138 47.19224 87 47.21C 89.18572 47.291428 90.900734 49.11335 90.85 51.3zM48.53 67.43L86.05 52.82L84.05 109.29L48.520004 117.29L48.520004 67.43zM42.73 65.62L42.73 117.08L10.189999 110.08L8.2 52L42.73 65.62zM37.7 48C 37.714615 48.132935 37.714615 48.267067 37.7 48.4C 37.72045 49.225872 37.231018 49.979332 36.468147 50.296375C 35.70528 50.613415 34.825985 50.428787 34.255062 49.831684C 33.68414 49.23458 33.539093 48.3479 33.89 47.600002C 32.82639 47.683083 31.781347 47.925804 30.789999 48.320004C 30.266188 48.461937 29.724777 48.160168 29.57 47.640003C 29.384174 47.09137 29.643297 46.49107 30.17 46.250004C 31.617907 45.676758 33.16279 45.388153 34.72 45.400005C 36.26023 45.420853 37.785553 45.70495 39.230003 46.240005C 39.758087 46.469418 40.0262 47.061855 39.850002 47.610004C 39.79696 47.870335 39.636234 48.096058 39.407585 48.231342C 39.178932 48.366627 38.90371 48.398838 38.65 48.320004C 38.32 48.200005 37.980003 48.090004 37.65 48.000004zM57.230003 47.82C 57.21971 47.943115 57.21971 48.06688 57.230003 48.19C 57.230003 48.90453 57.611202 49.564785 58.230003 49.92205C 58.848804 50.279316 59.611202 50.279316 60.230003 49.92205C 60.848804 49.564785 61.230003 48.90453 61.230003 48.19C 61.2309 47.954735 61.190277 47.721153 61.110004 47.5C 62.161705 47.577976 63.199635 47.786236 64.200005 48.12C 64.458206 48.195084 64.73619 48.155994 64.96368 48.012623C 65.19116 47.86925 65.34635 47.635326 65.39001 47.37C 65.56043 46.793716 65.24129 46.186466 64.67 46C 63.212833 45.512253 61.68662 45.262383 60.149998 45.26C 58.62985 45.26409 57.120365 45.513985 55.679996 46C 55.13949 46.202023 54.843914 46.784485 55 47.34C 55.04358 47.60275 55.197723 47.834206 55.423367 47.97571C 55.649006 48.117214 55.92449 48.155186 56.18 48.08L56.18 48.08L57.18 47.79zM66.630005 41.02C 67.043396 41.41381 67.08285 42.059895 66.72044 42.50108C 66.35804 42.94227 65.7166 43.02904 65.25001 42.7C 63.74001 41.45 60.640007 42.010002 57.990005 42.49C 56.734837 42.76683 55.455147 42.91758 54.170006 42.940002C 53.610313 42.871094 53.195583 42.386654 53.213768 41.823025C 53.23195 41.2594 53.677032 40.802696 54.240005 40.770004C 55.370716 40.735897 56.49569 40.595276 57.600006 40.350006C 60.720005 39.780006 64.350006 39.130005 66.600006 41.020004zM29.69 42.88C 29.2234 43.209045 28.581953 43.122276 28.219547 42.681084C 27.857141 42.239895 27.896599 41.59381 28.310001 41.2C 30.590002 39.32 34.22 39.96 37.31 40.530003C 38.415413 40.76889 39.5398 40.90944 40.670002 40.95C 41.232983 40.982685 41.67808 41.439392 41.696262 42.00303C 41.714447 42.56666 41.299706 43.051105 40.74 43.120003C 39.454906 43.097046 38.175255 42.946304 36.920002 42.670002C 34.280003 42.18 31.180002 41.670002 29.670002 42.88zM20.45 44C 20.531948 43.851128 20.67056 43.741676 20.834377 43.696484C 20.998194 43.65129 21.173319 43.6742 21.320002 43.76C 21.469542 43.843903 21.579157 43.98431 21.624273 44.14974C 21.669392 44.31517 21.646236 44.491787 21.560001 44.64C 21.352936 44.96416 21.232433 45.336 21.210001 45.72C 21.20779 46.078854 21.319868 46.429096 21.53 46.72C 21.563051 46.76114 21.586918 46.808876 21.6 46.86L21.6 46.86L20 46.19C 19.979841 46.01391 19.979841 45.83609 20 45.66C 20.01288 45.078323 20.167337 44.50855 20.45 44zM73.18 44.63C 73.09421 44.483315 73.071304 44.30819 73.11649 44.144375C 73.16168 43.98056 73.27113 43.841946 73.42 43.760002C 73.72404 43.585426 74.111946 43.687973 74.29 43.99C 74.60512 44.499542 74.784164 45.081444 74.81 45.68C 74.816925 45.908768 74.79339 46.13744 74.74 46.36L74.74 46.36L73.1 47C 73.11092 46.8985 73.14892 46.8018 73.21 46.72C 73.41828 46.42817 73.53017 46.07854 73.53 45.72C 73.49987 45.33749 73.37996 44.967472 73.18 44.64z" stroke="none" fill="#737373" fill-rule="nonzero" />
</g>
</svg>