<?xml version="1.0" encoding="UTF-8" standalone="no"?>
<svg
   xmlns:dc="http://purl.org/dc/elements/1.1/"
   xmlns:cc="http://creativecommons.org/ns#"
   xmlns:rdf="http://www.w3.org/1999/02/22-rdf-syntax-ns#"
   xmlns:svg="http://www.w3.org/2000/svg"
   xmlns="http://www.w3.org/2000/svg"
   xmlns:sodipodi="http://sodipodi.sourceforge.net/DTD/sodipodi-0.dtd"
   xmlns:inkscape="http://www.inkscape.org/namespaces/inkscape"
   width="64"
   height="64"
   viewBox="0 0 16.933333 16.933334"
   version="1.1"
   id="svg8"
   inkscape:version="0.92.3 (2405546, 2018-03-11)"
   sodipodi:docname="17-Imagination.svg"
   inkscape:export-filename="/home/wanzabuyumna/@WANZ_DESIGN/NICON STUDIO MAGANG/Style Line/Style Line/Icon 8/Icon 8.png"
   inkscape:export-xdpi="96"
   inkscape:export-ydpi="96">
  <defs
     id="defs2" />
  <sodipodi:namedview
     id="base"
     pagecolor="#f9ac85"
     bordercolor="#f9ac85"
     borderopacity="1"
     inkscape:pageopacity="0"
     inkscape:pageshadow="2"
     inkscape:zoom="2.8284271"
     inkscape:cx="70.421728"
     inkscape:cy="21.095826"
     inkscape:document-units="px"
     inkscape:current-layer="layer1"
     inkscape:document-rotation="0"
     showgrid="false"
     units="px"
     inkscape:window-width="1920"
     inkscape:window-height="1040"
     inkscape:window-x="0"
     inkscape:window-y="0"
     inkscape:window-maximized="1"
     inkscape:pagecheckerboard="0"
     inkscape:snap-page="true"
     inkscape:snap-bbox="true"
     inkscape:bbox-nodes="true" />
  <metadata
     id="metadata5">
    <rdf:RDF>
      <cc:Work
         rdf:about="">
        <dc:format>image/svg+xml</dc:format>
        <dc:type
           rdf:resource="http://purl.org/dc/dcmitype/StillImage" />
      </cc:Work>
    </rdf:RDF>
  </metadata>
  <g
     inkscape:label="17-Imagination"
     inkscape:groupmode="layer"
     id="layer1">
    <path
       style="color:#737373;font-style:normal;font-variant:normal;font-weight:normal;font-stretch:normal;font-size:medium;line-height:normal;font-family:sans-serif;font-variant-ligatures:normal;font-variant-position:normal;font-variant-caps:normal;font-variant-numeric:normal;font-variant-alternates:normal;font-feature-settings:normal;text-indent:0;text-align:start;text-decoration:none;text-decoration-line:none;text-decoration-style:solid;text-decoration-color:#737373;letter-spacing:normal;word-spacing:normal;text-transform:none;writing-mode:lr-tb;direction:ltr;text-orientation:mixed;dominant-baseline:auto;baseline-shift:baseline;text-anchor:start;white-space:normal;shape-padding:0;clip-rule:nonzero;display:inline;overflow:visible;visibility:visible;opacity:1;isolation:auto;mix-blend-mode:normal;color-interpolation:sRGB;color-interpolation-filters:linearRGB;solid-color:#737373;solid-opacity:1;vector-effect:none;fill:#737373;fill-opacity:1;fill-rule:nonzero;stroke:none;stroke-width:1.99999988;stroke-linecap:round;stroke-linejoin:round;stroke-miterlimit:4;stroke-dasharray:none;stroke-dashoffset:0;stroke-opacity:1;color-rendering:auto;image-rendering:auto;shape-rendering:auto;text-rendering:auto;enable-background:accumulate"
       d="M 10.998047 0 C 8.0474682 0 5.3647886 0.82472351 3.359375 2.2285156 C 1.3539653 3.6323077 5.9211895e-16 5.6829106 0 8.0019531 C 0 10.320958 1.3539653 12.363824 3.359375 13.767578 C 5.3647886 15.17137 8.0474682 15.996094 10.998047 15.996094 L 11 15.996094 L 11.001953 15.996094 C 13.952532 15.996094 16.635215 15.17137 18.640625 13.767578 C 20.646038 12.363824 22 10.320958 22 8.0019531 C 22 5.6829106 20.646038 3.6323077 18.640625 2.2285156 C 16.63512 0.82472351 13.952532 2.9605947e-16 11.001953 0 L 11 0 L 10.998047 0 z M 55.501953 0 C 55.046592 -0.0011716535 54.647247 0.30727838 54.53125 0.74804688 C 53.911596 3.1270705 52.416089 4.8976066 50.648438 5.5683594 C 49.782967 5.9005798 49.792378 7.1072571 50.648438 7.4355469 C 52.416689 8.1037673 53.917255 9.8716945 54.539062 12.25 C 54.800984 13.2436 56.210554 13.2436 56.472656 12.25 C 57.092325 9.8710142 58.595642 8.0984493 60.363281 7.4277344 C 61.218063 7.0962698 61.212459 5.8854729 60.351562 5.5605469 C 58.583322 4.8923642 57.090539 3.1263905 56.46875 0.74804688 C 56.353437 0.30996184 55.958541 0.0018897637 55.505859 0 L 55.503906 0 L 55.501953 0 z M 41 5 C 40.553354 5.0019302 40.161469 5.2978385 40.041016 5.7285156 C 39.50687 7.6087172 38.218579 9.0135092 36.667969 9.5527344 C 35.771457 9.8637895 35.771457 11.130465 36.667969 11.441406 C 38.217982 11.982672 39.500849 13.392708 40.033203 15.273438 C 40.169417 15.761828 40.585681 16.004662 41 16.003906 C 41.414323 16.004662 41.83059 15.76164 41.966797 15.273438 C 42.499151 13.392708 43.782013 11.982672 45.332031 11.441406 C 46.228543 11.130351 46.228543 9.8636761 45.332031 9.5527344 C 43.781416 9.0135092 42.49313 7.6087172 41.958984 5.7285156 C 41.838531 5.2977251 41.446646 5.0019276 41 5 z M 7 7 C 7.5522793 7.0000008 7.9999932 7.4477207 8 8 C 7.9999932 8.5522793 7.5522793 8.9999992 7 9 C 6.4477207 8.9999996 6.0000068 8.5522793 6 8 C 6.0000068 7.4477207 6.4477207 7.0000004 7 7 z M 11 7 C 11.552281 6.9999989 11.999993 7.4477192 12 8 C 11.999993 8.5522808 11.552281 9.0000011 11 9 C 10.447721 8.9999996 10.000007 8.5522793 10 8 C 10.000007 7.4477207 10.447721 7.0000004 11 7 z M 15 7 C 15.552279 7.0000008 15.999993 7.4477207 16 8 C 15.999993 8.5522793 15.552279 8.9999992 15 9 C 14.447719 9.0000011 14.000007 8.5522808 14 8 C 14.000007 7.4477192 14.447719 6.9999989 15 7 z M 49.5 15 C 49.050157 15.007597 48.65649 15.30158 48.537109 15.728516 C 48.077458 17.372119 46.982041 18.58794 45.671875 19.050781 C 44.77536 19.361836 44.77536 20.630465 45.671875 20.941406 C 46.981561 21.405985 48.075087 22.625399 48.533203 24.269531 C 48.667452 24.75093 49.08353 24.993839 49.492188 25 L 49.492188 25.001953 C 49.494886 25.001953 49.497354 25 49.5 25 C 49.502702 25 49.505167 25.001953 49.507812 25.001953 L 49.507812 25 C 49.916474 24.992403 50.332529 24.75093 50.466797 24.269531 C 50.92491 22.625399 52.018432 21.405985 53.328125 20.941406 C 54.224633 20.630351 54.224633 19.361723 53.328125 19.050781 C 52.017933 18.58794 50.922538 17.372119 50.462891 15.728516 C 50.343495 15.301505 49.949843 15.007068 49.5 15 z M 21.75 15.003906 C 20.671624 15.061015 19.636428 15.502718 18.898438 16.285156 C 17.620243 17.688192 17.754237 19.581294 19.001953 20.816406 C 19.687121 21.494642 20.61477 21.883913 21.585938 21.972656 C 20.22993 24.714287 19.932238 27.940976 20.941406 30.998047 C 20.386916 30.97159 19.75742 31.095559 19.244141 31.419922 C 18.48534 31.899243 17.998047 32.770151 17.998047 33.847656 L 17.998047 34.226562 C 11.998104 37.953596 9.7226306 44.367186 9.1738281 46.226562 C 7.1951279 47.3616 5.3076325 48.316146 4.0019531 49.070312 C 0.17863603 51.277712 -1.1370641 56.170884 1.0703125 59.994141 C 2.0152549 61.606219 3.2815532 62.633371 4.6640625 63.273438 C 7.0405769 64.373654 9.7761333 64.185557 11.912109 62.970703 L 22.871094 58.998047 L 27.083984 58.998047 C 27.559422 61.854916 30.032549 63.996094 33 63.996094 L 58.15625 63.996094 C 59.67347 63.996094 60.878501 63.478053 61.785156 62.628906 C 62.691812 61.77976 63.251568 60.642373 63.589844 59.425781 C 64.26636 56.992559 64.060586 54.166858 63.302734 51.888672 C 60.226513 43.103576 53.689501 36.126557 45.380859 32.5625 C 45.932663 30.045712 45.674835 27.340641 44.476562 24.828125 L 43.183594 22.117188 C 41.176665 17.909019 37.061289 15.400809 32.703125 15.279297 C 32.412593 15.2717 32.120263 15.275695 31.828125 15.287109 C 30.270041 15.358168 28.696764 15.736148 27.193359 16.453125 C 26.680454 16.69766 26.201076 16.982302 25.740234 17.285156 C 25.381671 16.43926 24.66713 15.721561 23.681641 15.324219 C 23.060442 15.073636 22.397031 14.969475 21.75 15.003906 z M 32.630859 17.28125 C 36.212066 17.374136 39.702728 19.44762 41.384766 22.974609 L 42.677734 25.6875 C 45.069975 30.703576 42.933495 36.638693 37.953125 39.013672 C 33.003053 41.374327 27.097745 39.330019 24.699219 34.443359 C 24.505027 33.751914 24.182594 33.133264 23.871094 32.722656 L 23.328125 31.585938 C 20.935884 26.569819 23.063364 20.640074 28.054688 18.259766 C 29.299732 17.666039 30.606 17.350144 31.902344 17.289062 C 32.145405 17.277724 32.388961 17.273842 32.630859 17.28125 z M 20.710938 33.001953 C 20.820506 32.993865 20.995385 33.009694 21.167969 33.066406 C 21.466287 33.164296 21.82773 33.374431 22.146484 33.761719 C 22.809618 34.532099 23.003906 35.608534 23.003906 36.683594 L 23.003906 40.994141 C 23.001806 41.546594 23.447531 41.996082 24 41.998047 L 34.003906 41.998047 C 34.575272 41.998047 35.001953 42.458015 35.001953 42.994141 C 35.001953 43.530304 34.575238 44 34.003906 44 L 29.005859 44 C 28.456225 43.9978 28.007963 44.440691 28.001953 44.990234 C 28.001953 45.776489 27.540222 47.392884 26.753906 48.744141 C 25.967632 50.095397 24.967922 50.996094 24 50.996094 L 21.003906 50.996094 C 20.436206 50.996094 19.910637 51.284865 19.443359 51.609375 C 18.976084 51.933658 18.497545 52.348191 17.982422 52.841797 C 16.95221 53.829047 15.809375 55.104386 14.734375 56.376953 C 12.690543 58.796342 11.00751 61.051102 10.833984 61.283203 C 8.9261857 62.300917 6.7426314 62.203509 4.9824219 61.1875 C 4.1097063 60.683765 3.3521672 59.946293 2.8046875 58.998047 C 1.1339814 56.104365 2.1471116 52.442784 4.9980469 50.796875 C 6.9202885 49.686525 10.60612 47.928403 13.826172 45.666016 C 17.046261 43.403628 20 40.5203 20 36.992188 L 20 33.847656 C 20 33.452771 20.1474 33.222269 20.326172 33.109375 C 20.415561 33.05306 20.558609 33.013428 20.710938 33.001953 z M 44.785156 34.494141 C 52.477693 37.857957 58.539657 44.363283 61.404297 52.523438 C 62.062558 54.496049 62.198094 56.973246 61.664062 58.894531 C 61.39685 59.855212 60.968151 60.6377 60.408203 61.162109 C 59.866317 61.669624 59.167111 61.996094 58.15625 61.996094 L 33 61.996094 C 30.766655 61.996094 29.005859 60.196207 29.005859 57.994141 C 29.005859 55.792075 30.766655 54 33 54 C 39.666839 53.999962 42.337065 53.999962 49.003906 54 C 49.773894 53.99622 50.248791 53.152533 49.859375 52.488281 C 47.991034 49.345642 45.350783 46.736729 42.271484 44.921875 C 41.119908 44.247645 40.112057 45.98202 41.263672 46.65625 C 43.799897 48.15831 45.680903 50.013753 47.132812 51.992188 C 42.322442 51.992188 38.673556 51.992147 33 51.992188 C 30.029817 51.992188 27.554227 54.137247 27.082031 56.998047 L 22.693359 56.998047 C 22.577706 56.997933 22.464319 57.016956 22.355469 57.056641 L 14.410156 59.9375 C 15.095516 59.077469 15.352783 58.758577 16.263672 57.669922 C 17.313765 56.426911 18.42465 55.188517 19.363281 54.289062 C 19.832558 53.839337 20.264117 53.474063 20.589844 53.248047 C 20.807922 53.096866 20.972259 52.996094 21.089844 52.996094 L 24.001953 52.996094 C 26.010674 52.996094 27.523 51.39679 28.482422 49.748047 C 29.241823 48.442976 29.69299 47.131704 29.896484 46 L 34.003906 46 C 35.648688 46 37.003906 44.691526 37.003906 42.994141 C 37.003906 42.489725 36.883354 42.030869 36.664062 41.615234 C 37.395053 41.42399 38.093325 41.170337 38.802734 40.832031 C 41.640067 39.47896 43.703803 37.169593 44.785156 34.494141 z M 17.998047 36.660156 L 17.998047 36.992188 C 17.998047 39.475147 15.705945 41.898374 12.675781 44.027344 C 12.439447 44.193265 12.185264 44.364458 11.943359 44.525391 C 12.942659 42.257372 14.818308 39.020376 17.998047 36.660156 z M 25.005859 38.335938 C 25.62063 38.976643 26.276588 39.516346 27.003906 39.998047 L 25.005859 39.998047 L 25.005859 38.335938 z "
       transform="scale(0.26458334)"
       id="path848" />
  </g>
</svg>
